<mxfile host="app.diagrams.net" modified="2024-05-28T08:22:57.694Z" agent="Mozilla/5.0 (Windows NT 10.0; Win64; x64) AppleWebKit/537.36 (KHTML, like Gecko) Chrome/125.0.0.0 Safari/537.36" etag="m3CVwfFR54H1OdiKTXNa" version="24.4.9" type="device">
  <diagram name="Сторінка-1" id="rYu-rGk1AJaKdzWHbQu8">
    <mxGraphModel dx="481" dy="270" grid="1" gridSize="10" guides="1" tooltips="1" connect="1" arrows="1" fold="1" page="1" pageScale="1" pageWidth="827" pageHeight="1169" math="0" shadow="0">
      <root>
        <mxCell id="0" />
        <mxCell id="1" parent="0" />
        <mxCell id="JmuAxBopoD4e7R5yBPcm-45" value="" style="edgeStyle=orthogonalEdgeStyle;rounded=0;orthogonalLoop=1;jettySize=auto;html=1;strokeColor=#4E4634;" edge="1" parent="1" source="JmuAxBopoD4e7R5yBPcm-2" target="JmuAxBopoD4e7R5yBPcm-3">
          <mxGeometry relative="1" as="geometry" />
        </mxCell>
        <mxCell id="JmuAxBopoD4e7R5yBPcm-2" value="" style="shape=image;verticalLabelPosition=bottom;labelBackgroundColor=default;verticalAlign=top;aspect=fixed;imageAspect=0;image=data:image/png,iVBORw0KGgoAAAANSUhEUgAAAHEAAABxCAMAAADVoLziAAAAAXNSR0IArs4c6QAAAARnQU1BAACxjwv8YQUAAAKFUExURQAAAAAAAAAAAAAAAAAAAAAAAAAAAAAAAAAAAAAAAAAAAAAAAAAAAAAAAAAAAAAAAAAAAAAAAAAAAAAAAAAAAAAAAAAAAAAAAAAAAAAAAAAAAAAAAAAAAAAAAAAAAAAAAAAAAAAAAAAAAAAAAAAAAAAAAAAAAAAAAAAAAAAAAAAAAAAAAAAAAAAAAAAAAAAAAAAAAAAAAAAAAAAAAAAAAAAAAAAAAAAAAAAAAAAAAAAAAAAAAAAAAAAAAAAAAAAAAAAAAAAAAAAAAAAAAAAAAAAAAAAAAAAAAAAAAAAAAAAAAAAAAAAAAAAAAAAAAAAAAAAAAAAAAAAAAAAAAAAAAAAAAAAAAAAAAAAAAAAAAAAAAAAAAAAAAAAAAAAAAAAAAAAAAAAAAAAAAAAAAAAAAAAAAAAAAAAAAAAAAAAAAAAAAAAAAAAAAAAAAAAAAAAAAAAAAAAAAAAAAAAAAAAAAAAAAAAAAAAAAAAAAAAAAAAAAAAAAAAAAAAAAAAAAAAAAAAAAAAAAAAAAAAAAAAAAAAAAAAAAAAAAAAAAAAAAAAAAAAAAAAAAAAAAAAAAAAAAAAAAAAAAAAAAAAAAAAAAAAAAAAAAAAAAAAAAAAAAAAAAAAAAAAAAAAAAAAAAAAAAAAAAAAAAAAAAAAAAAAAAAAAAAAAAAAAAAAAAAAAAAAAAAAAAAAAAAAAAAAAAAAAAAAAAAAAAAAAAAAAAAAAAAAAAAAAAAAAAAAAAAAAAAAAAAAAAAAAAAAAAAAAAAAAAAAAAAAAAAAAAAAAAAAAAAAAAAAAAAAAAAAAAAAAAAAAAAAAAAAAAAAAAAAAAAAAAAAAAAAAAAAAAAAAAAAAAAAAAAAAAKdFlu0AAADWdFJOUwABAgMEBQYHCAkKCwwNDg8QERIUFRYYGRobHB0eHyAhIiMkJSYnKCkqKywtLjAyMzQ1Njc4OTo7PD0+P0BCR0hJSktMTU5TVVZXWFlaW1xdXl9hYmNkaGlqa2xtbm9wdXd4ent9fn+AgYKDhIWGiIqLjI2Oj5CRk5SWmJmam5ydnp+goaKjpKWmp6iqq6yvsbO0tba3uLm6u7y9vr/AwsPExcbHyMnKy8zNzs/Q0dLT1dbX2Nna29zd3+Dh4uPk5ebo6ezt7u/w8fLz9PX29/j5+vv8/f4i9UeVAAAACXBIWXMAABcRAAAXEQHKJvM/AAAFn0lEQVRoQ+2a+1sUVRjHD7SICJYJiJBIoZWEUhpSWnmJrIRW6eIlKUvxlpWipIZmImKxFnQxweKWKYFo0ioihJhoonFR0Dx/T2dmvssyuzM7Z+bM9jz58Pnpfc953+/77O6cObclI4xwjxPqCIX1H/CYc8uhulPuU7WuLc5Hg183Oa9mgHoZ+GXtVPQEh9TiGyjlpbd4OnrtZ1xBH6qo6f9kPCJsJqMZFfxpfgYxtpLTA3kt+nIQZSPLoa3HCsTZhhPC+mQj0iaeDvSVKvTMRKwtRJ2BbCCaIxFtBx9DNDAfItoGknuhGZjeRxAvzm5IGlGIeGHiuqFoxF8TkCHKOxA0ZiUyRDkKPWOOIEOQeN4vldJrE5EjxkuQ4+FF5IiRBzUe1iBHjINQ4+EAcsTgf3AorUCOEI4mqPHQ6ECWCGNaocZD6xhkiTDaDTUeWuyoGHoCajzY8q2ScqjxcBg5YuRDjYdPkSNGFtR4WIYcMSZrr4u1uJ2CHDFCqqFnTP19yBHEaKnq5T1kiBJzBYJGdCcgQ5jNUDRiO+LFifkTkoHpikO8DbwBzcC8hWhbKINoIL5CrD3EnoWsPqdt3ramGD2v7VMQaRszAz89LdMQZyOpv0Fci7pERNlKdCnk/dlhx0SsxesXUEFN/QL0B4GY9Z2o4qVp2Sj0BofYFVXDN5MdBzODVS90/reVTynmlMUF5T+fPtNYWfL+C9FK06yK7+aFKKZdZB1nH2hgzxNwCQkfHQaLkOn7BlnvsVdsrJlZK3+FlPa5Fj6ANg9Rma5+9NbZs88hJKEIijKt+3PSxqHnwSezPlO9/vbHo0eIpX4vm9vtDd+7Sg4dbvzjDlqG6FyKLOtE7IQWLzsjkGmRhz2/ID+1Sci1RJqZXY6H1jRkW+A53iWVmq65yDdN+lVImOVqOhRMMqMLAua5MgMapojTnij4aLWwrAuvRLI1KsKhw08BUq2yDTrcLEKidRZBiZPopp5uMXqaMJNxEpEUP1GM+CTB1909QrIzd/W7wWB1rlPrBH1Uvv+1m31cz/dbgIW40BcsSn1XQca3RKL43jIdQXvw+AGVgKMN7cGjTX1kF+6/utfgVnHZPzBpr6sC1jdFw2+WdelUv9vDL6I9ENfmEbIDNn2TkD2ysZeQ+Ty3BRfNV+ycxQIXw7nJJsAlsvUya02/JJsBMV/x7OMsbmwNvLYoQtbJVtX9rH2a8TmB6YoNk1hYzI/waDUbXiWKWRPLeh4yPPc1W/FoDIua3AiP0hLmHoN9Ulqhjvc8SHqYrFjGvkSS0gKPsYmQyHbY9Ly054r8Gp4O5ip+Lm3d0odvQHLYPvJv2JRelv4P4FCeXT1MVZTXLOoh8Cwhc2FKXJc3clvhaWKmYp4UkX0Lnkwfm36UwQEGnVLQGnha8FcclP9bsOouXIULbOO6ATZYJYUtl3bL2vBX/IJ1O3wvy+tYo+8N2kfSi1P/zIe/YhHrDiuE4+FL1ui70SuUKhbD8Ye/Yr/8C62HBz5gr5/zsMEGKSz7Jjx/TDw5d+Vf6G3VD8kGR5L6jxe5UtDKoanFHxMVKV0nhbw2/GF9npAMmDIDS6SQtfA0MVWRFkgxC7wDsmeqenAow3EbPG3MVaT71C+ddvbS2wibcTmD9YbthaeDyYq0fCyLSjkH7zhzDsCmtCWVuZFGR+lmK9KfpDlp0q+KI43RKsXE1OGdx/QwXZE2SsfE0fWyLc0cnsFxQprHEhvg6WO+Ij0nXbwpV4NscEzw3Ni9ylqHz2N6WKhIL80mZJdssWc3WzYYmwmZzbHM8avItXq8sb1EeQ/cKd01dPIysLuAa8diZfUoRod6rxNq5m8G1jjps9Uxcz1tja2o5CHR+gEVH13S6lPFnA50BYeOOagzjIRN1W7378HA7a7eqHOc7QgW0B9hhP8RhPwLHkXv2XfbQUcAAAAASUVORK5CYII=;" vertex="1" parent="1">
          <mxGeometry x="224.00000000000003" y="471" width="60" height="60" as="geometry" />
        </mxCell>
        <mxCell id="JmuAxBopoD4e7R5yBPcm-3" value="" style="shape=image;verticalLabelPosition=bottom;labelBackgroundColor=default;verticalAlign=top;aspect=fixed;imageAspect=0;image=data:image/png,iVBORw0KGgoAAAANSUhEUgAAAGUAAABmCAYAAADS6F9hAAAAAXNSR0IArs4c6QAAAARnQU1BAACxjwv8YQUAAAAJcEhZcwAAFxEAABcRAcom8z8AABa6SURBVHhe7d33c1RXlgdwfp6q+V9cBpOUUGgFlBNICCFEFBlEFCIjorG9Xpi1MWZxqLG9W+uaGteu7TGO67FnPQ5gcpRQzp1z0Nnvue++7larJXW/loQEfapOPUHn89F5997X3U+zZnLYzx5NcJ8+csXZ1NjtOLafnMcbu52nD12xnziYIK8Sj6kM+6lDb1BTI9G+LWTbUEOmtcvIVreCaM9momMNZD9+4A151XhMRdhOHHyPDu8m66oKMtaUk6mWcwmZVpaTcUUZWVcuITpQT47jje/Lm8RjMgMg73DBzSi8qXYpmVbJ5J85+f8BZa4uIWrYSrbjDe/Km8ZjMsJ+8tBlOriTzNwV6BIlw6CIBMwKwPDu7WjDFXkX8ZjIsJ88ckkBYYQQEBUlCERkTZnSMfvQMUcbLsu7isdEBDrkIh3apYCsrhyJEqZLVBQBs9wPc0neZTxiCTHLAohFBRkXZTiISAz+5qpior1byHp070V51/HQEvZTR/5Eh5RZVmQgYVAAIrK6NABzZG98uqwlrKcOnVenvX6QGFFM2I1Zqopkx+y7IB8qHpGE9fThf6EjAAGCec2yiQERWSLSUlUImM1kPrL3vHzIeIwV1sb6V0WHMMgkoZjQLZZlgMHqH7uy1+RDxyNc+FzO8/TtF2SpyCMzij8pIMuLlWSYSgUGHfOKfArxCA6f1fo6yXC8f5lMS3JFp0weCnIZYCoKALOJbIf3nJVPJR4cQ0NDr0oPfzjee5uM5YuDMCYYRKKY0C2WSgXGcnjPafmUnu+wHNh1gm5dlxTDw/7OW2QsAwwDTBaKgCkga2U+0e6NgNl9Uj615zNsZ44eE4M6pqqur7+QFMPD8e9vAiZbwkwgSDAKBn1TRT5ZkQLm4O4m+RSfrwDIETq2j2xrq1BkFBcDr+ubq5JieNgv/5uEwfUmuksYhBPdImCW5hHtEjDH5FN9PsJ8+shhFcSMGZZ57XLluBbDfPulpBge9ksXyFgqYfwgISjjgYyGwiASxQSUAMzOI/IpP9thPXP0gABZBwgBAhg1ucgolOu7ryTF8LBfPE/GEsDUhIIAYAVnDF2ioiCNQLEImA1kPbTroHzqz2YAZD8dbyB7OBBOXpfUlJORYb7/WlIMD/ubrwMmS7keF7A0S8zSjFjb8KTAWJypzNowTmlGUWEwLZcwjfIlPFthPXt0nwBZD5BQDAkiUHhNImAKyf33byXF8LBdeBXF15HlwE5y/tcH5P75/8hz63exdX78EVkP7gZMjoKjokQDIlGMQLEyzM46wOxskC/l2QiA7FFAqhUA7pSxUDixOxIwP3wnKYLC4yHPjWvyH+HD88tPZNlRR8aiDKVrtKBwAtaKlDB75Uua2QGQXQKkLgoQsSZhmBIF5sf/laWOLoasFrIebyRjoYSJFgRdIrIsR4GpryPTgZ275UubmWE5e7Seju8HyIoASMQocrGI3Q+PMe4fGGZIqXYUMeR0kLl+I5l4gqAVBSAGP8x6htkpX+LMCsuZY9uoaT85AGJSMaIFEYtF/My7HcyqfH29stTRhePubRoAirlSYkQJoqYfZgdg9u/aLl/qzAjL2eNb+INyjroaBYTHEs0oS1EkLOqaDhJ5vbLM0QX3Vzd2YwPYjZljQBEwWCvZgEM71gFm51b5kqd3GM8e3zSRIAIFRXB9E35RGWkYv/ycHmUlkR4QAkYDCD8PTgOm5Dbg0PZ1ZGms3yRf+vQM28tNdQJkw0qAAINBYkXhT0BiXPE+aZbl1RbOxw/pYVEmNZfmkL4CMDGg8JEFAVPGMGvJ3Fi/QZZgeoX5XNO6CQfh5JU5rufr75Pl1Rbunm5qBsbD4ixqKc8lAxDMGkHUNJRkBsHsWC9LMT0CIGsYxLlRBcFsa6JQ+PAJtr7uLllebeHubKfHwGjGb/hjrPxbeDcEBH+nRI2SJdJQnEl2htkGmIYda2VJnm6YzjWtohMA2TQJIHx8Sx5O4RV7LGG/9gs9yl0kdl/NQHmM7RPelakwY4GMhgJgTkORjuz499C2NRj861fJ0jydAMjKoRMHAFJLJgHBIBOMguQiOP7jfVlebTF45SI9zEoUIAIG+RjT5FYVRkOXqCh8vE3A4GffVsDs214jSzS1YTrbtMLHIJslCC8Qg1EiBQlFCQERR4GrCsmMF8sLQS3hHRygFiwamzHQt0iUFk6gNGOMacXWAAz+XIBWFAGDKbcD44x362oyNW6vlqWamrCcO1nlbTpArs2rwoNMYJeoh+f5xTs+eEeWObrw6gepY/t6TImVTlFBOJ/IbRtSjzHHpBHEiE7hNBSmk6M0kzxbVpNx3/YqWbLJDYBUetAhri1BIKOhhIJEiuIHCaCIwy34LXZ//40sdXThMxkBU0ePMhNEt6gggcyidgGzeDhMlCh8ANRQkIaO0QFmFWC2VcrSTU4AZKkCgvbkA4xjgUxgl/jf6sUuiFf3zk8+lqWOLrxGwGxdR490C8Ugr4K0oricT7Ar68C/DSqMBhCR6BZDfio5cZkbexPALJUlnNiwvNJU7j5xYMjFAxkXfkPN1KPwu4pVxaIQ/J4Jd82QzSZLroTPZiXzN1epC5c7H9yT/xsIr0FPHZvXUDM6hmF4PFFR2nh8QbYjDegmUwwoAiZPgXFtrh0CTLks5cSE+ZWmUlfTgSE3T/meJkjQW71cLEN2ArlDPmxh/vJzepAyhx5mLKDWqhJyNT+SlwSCYTo3raZmdEwriq2CCBRMBlpRyA4kH4A0aQQxFihpwDTcictdm2p9hr1bS2VJYwvz2aZi14kDPjcWRyZGYJBpgCLGGBTB/dXfZKmVMH/xKT3KThKr9seLF9ET/vhSy2N5aSB48O/cWEstugXUhqKrKG0oNGcrCtnJMLhMgdGGYsxPU2CKM3gtxzDFsrTaAiCF7hMHvdMRREHRkfvrEJSrn9FjRuHBXMK0Li8FzMhjZzxV7sLrecIw2I2pIG3olnZkG8MgDcAwaQRR05Cbgo7JQMes9Or3bimUJY4uTC835btPHvS4t61TQDaunIYo6JSQD/GZr34aQJEwzTkp1FZdRu7WFnmtQHgH+qkLr0GBQaegmK2ZidSaNh85FzmPOnAZT3VNmlFSReoXJyswG1d69Hu358tSRxbWV0/luk8ecnu2T18Q/jBEWBTsvhjliUTh7RMJ084wbU/kNQPh7e+jzrXLqSXxBTEt7muoJ8NbF8j84btkvPQn6sOkoRvT8cGM+UqxVZgIu0RFMeQtIn0OYLDIdG2qcQ/u2ZwrSz52mF47neM5dcjlwWLLVAcEBplBKBagNMtOYQyBgmxFtmQnU/uKcnK3t8lrB8LT2UGGy2+ERePw9PWS5b3L4gCkITsxCpQAiEiMLwIGt0HHuACTI0sfPoznmrI8pw47Pfx251MBkSgRgIyF8jhrOAof31LzCVb1HTXl5OkYCRNJeDDN5udsyFwIGImigkSIosAkkasonVwbapzGPduyJMHwsJw7oUOHOLz8wQABUjutu0SgYDcw6u5LBQlCEYO5gEmgTjyep7Nd3iq68HV1kKmigIwYI6LtEiVTROrRcS7cDh3jMO7ZqpMUSphfPpWMDrF7+SM0fhCJEilIKMp4IKOhjAoSgsKLyDAoFsy+mrF78INIFMYQKMh2THFbBcxSMZ5oCScWrnodxhgVRAOKAah6PA9XYRp3jN3csDlJgAy9/fYf7U2NvUO7NpCJix8MMo27xI8Ssk5RUUYFwSDN2YrVdmdtBfnMJnnL6EO/cyMZMDPTCiISuzGG8aLjUMee/jNn/jjLdvrwVj4BjWkDCr1JBRmvSzjHR/GDTDUKBnQVRYBIFO4QPwpW/MY/azvqrIb1v/9CPSmzAyAaUQSMbiHR0lwyblq1ZZalccc1z9bVI0GmeZcIFBQhHEoLxpSxQPjYVhumyI7rv8pbaQvPowfUjV+APhQ7FhADni+nCz+bqop+mWWurxsSAM8KCgZ6RvGDIAWIHwVbXrFjSjva9DfS8GHh2Yf778Hj9WF3GCuKETM6Q1GGbxYwPJYZCCIO44+C8iQIZQSIROlAuttGrvCjCQUlm3rxeD0ofgAmehCx9kFi65ql31Dzkw8r92cKBesUAVIWjBLIDuy+2rHbcca6+3r8gHpR2N7FKdQLAM5+pFYUT14K9ekW/DirdW3Vev4q2UwDGRslcXQQidKWPp/MH8X2YQw7Bvru5Bf9IH25qWJ8GWCEcCChKCFdQvmL6GHqS2tnfZKX94eOtSta+UPLMw8lLSxKaxBKB3dMMIhE6cBA34tfRPL55C2jD339BupJm6uAYNfFIP0iUwDDCCEoY3SJF13yOG3uk09mz/6DWKvcWFUxp7euxujjD5TNEBD+kDajuEJQrIyCFzkWSCcnjyvoFuunf5W3jC548diz6CXqRdH9IMDpR3EZRcBgtzYqih8Esy5c1p4x3/hr4ouzBYgaN5eXLuyrW2Hizy3NLJTPZZmUECh8fAsgKoofBClARGZSJ4rZxbOwh/flrSMLb2cH9WHK3YvZkgBBKiCBLukHCOeggBm9SxikI2OB6Z9JLyyUFMPjZs2ShL711WbvFqxbYgHxo0QIMgJlPBCJgplOOJQ2FSUUJAiFMTg70VU9FQXk+v03eQ9jh/vBPerHc+xJm0d9+ekSJIDCICoKd8oAIAZVkBAU2SHmfyTMTpQE4eP2ytKk/nXVFu+WVdpRpqBLFJTUiFHCgXQV6aibtzmJ1I2Cmt+6ILogXHj7esn63tvUi+7swW4vUhCROcnicP1wkEX85pnll+QXleNd48WN6rIUwFi9mxhmHJBRUUYDGQ8lBGQ0lMqCMVEYYRiIROnCekVF6WYUZE8xtui6ztS51IPrDe6vJ/PF82T94F2yXLpAhoO7sLvKoe6U2ZgCYwUvQNKoH48vkkGCUBQQBYV3X4O4DScfrmcUAZKx0PrPxBdSZMkji5srSlL711bbvLywnIZdMhZKeyY6JRSEMcKByOwuxJYT09rujAXUvWiOzNnoDGChqL2AYwwlowfhdOI6ALH9nPxiqix1dHFreVla/9rldu8mTJOnK8qXw1FsAiUhBCRbAZEovMsKBhGpohRkUG8hEmsgJdOUZJAgFLVLBIhEGQxCESAShd+bV0E6dQn2X5LmpskSa4vb1SUZ/WurHF5ev0wjEIGCF+m6+pnkUML6t/+hdt3CCEAypxYEU+Uu3ULHb4lzMmRpY4ublSVZA2uqnB4+vD9NUPgdPwMWbmHHlIQXsDhMVkCwXlFRBAhSAVFQeoNQBEgYFAEiUfqxDUVhEBVlcDH+LVEECNIBkE7dQufPSS9mypJOTNxeVpTTv2aZyw/zNECqsOWvKqAg1oYd5P7uKxqyWSWHEj6rlWzfXKX+3VuoA7uxLhS5GzAxgwgMLSCLqCszwfVb8pyxPyChNe5UFecOrK50e3gN8zRQGAS/8c6//KckGDssH39EnShYF4orQDD7UlEYREURP4dB6cN2OIiCMiBRBoNQFBAFRY9/B4G4ryXNjeyjRFrj5vKS/P7VlR4PZmRTCsJfgcPUlbsjmrB/fRXrkCTMrjJGB8GucDgIMMKCpCkgyDFBkI58gGQleH5NnlMgSze5cXtZaSFgvO71y6cMhXdZfBZWLWG+cpG6sOBTQAIo/gzpEgEiEhCc4UD8KCrIIj+IHSDdWQneaylzi2TJpiawKyvur63wudZVTTqIqTxHHPYZcmj7eh3frg/PpQeFGxVlBEi6AiJRBiTK4DCUYBAFRYL4rqfOKZGlmtq4W1lS2l+7dMiFgX/Su+TPV2SJtYXlnUvUnTZPQcBucBiIROnDlFiAFEYIIlECIKnUk5Xo+y1lbpks0dOJe8uKyxUYDPojUMYDGQUluEt4+otBerzze40Xrmu/csEAAYAwKAqIgtIfhKKApCkgYVAUkEVkL0il7uykoWupLy2RpXm6cXtp4dIBQLh4NjbBXcJfpeaffV2dsrzawtvZTr2YufUWYqobA4g+D9swID2YTFxPmVchSzI94tbSwmWDAHHywB8OJFIUP0gQCq7j6+2R5dUW3p4u6sXYJNYfAkWCYAamoggQiTIgUQaDUBhERdEzEIPg//l9+t9SX1omSzG94u6Sgio9QFyrMfBPRJeoKEsWk7dl5Nfkogn+jFYvFxBFV7skdhBMmXOS6cai+VPz1WytcbussJphnKt5NzYBKDymoAih322MNhxffkbd6XKgRwoQidIPIBVFgCAVEAVFH4QiQJA2XMbvm1xPnbtCvvTpHXfK82sMDMMDf4wgAgVFsp48JMurLQxH91G3bsFwEIExHkjaSBC+HkCupc1bKV/yzIhbS/JqjegUJ59xO0YU5fAKZmD37sgSRxfuO7ewRklWdllYp6goCoiCMiBRBoNQBIhE4e/FqyC8ckeHPN0T42iN22X5q/nPyDp54NcKUqGcKI3Pe2Levg4LQbssdWTB1x/YWIPpcMIEgChjyu9p89fIlzgz41Z57jo+PZRTnOFOO4oRP/OnQqyH9pDPYpYlHzuGLBbS799BPRnzqK84y4/Sj12YiiJAkAJEoujz0/0oDMLJIDy430hfsE6+tJkdd8vy1puB4uDxRQuImpiJMYxpYy05f/pBlj58OH/6kQbWV1O3AAEGgzBGRCAKSgBE6ZgbafPr5Et6NuJO2eKNFowrAiYGFLHFIm8QRRrctZksH75Hzn/8nVzXf8X2e7J++C7pd21SPnSdk0h9WDAqIJkKiEThM68KkCCU4SAKig2LTT6dx+9pC6b3CTy1xp2y3M0Chk9BqAWEkwd9zvLFAqZbt1B8FaEXHdSblYhd1XwBwl0R6JBwIBkKiEQZCZImQPi42430+VvkS3g2427p4q1WoDh4fIkRhVNftlh8HUEAcFfwNjgZBFsVJSwIOk9FCYCkkwnbm2kLtsmn/mzHneLs7QJmtPPPjwcShMLJJ7YJC8IYajKIRBkMQhkNxAysW+nzd8in/HzE3ZKcnTYM+nYeWzR2iT+BImAERAAnIhCJYsA2GORGxoKZeT77WON2SdaeYTDhQCJEETBiN6ag9GOxqaIIEKQCoqDog1AECNKK/7Mgb6bPn9l/+SHWuFOUvc/OMPxJFY1dIhIgnPrSrAhAMsKAZAgUdMg++dSe77hfktXgQLfYuVtiROFzcvEpzwWIRBkMQhEgEiUU5GbGwmfzzzxpjfsl2Y0OdIt9WUFMIOqJ0hgmtEuGgQBBAdGRrSiDbukSnu0/iKY17hVlHnIsLyKbChMDioBBp6hd4gdBChCkFRh2XH4rY+Fh+RTiES7uF+qOcMfYML7EAqKeKI3PrD2IbhgN5LYu4ah86HiMFXeLMo85ML7YuFtiRFHPXidAAMEgFmwdxTq6k5l4XD5kPCKJe4W6Jidg+K+TxgoiTv/EIEUBkHu6hBPyoeIRTdwtTD/lxPjCf2txIlCsfMZTTJdv6xLjf+I8lrhfoDvtwvjihxkBEoIyKoiOXAC5l5l4Vt51PGKJewXpL7sq8xUYDV2igGTRnazEc/Iu4zERcT8/7RU3Bn7+k36joowA0ZG1BCC4/G5W0qvyruIxkXE/L/U1d0UeWf0oQSBhUESH4PI7mUmvy7uIx2TEg9zU191LcyXM6ChWbN247F5W8r/Km8ZjMuNBXup5BSabzMDgM2ubgMBpVkFw2f3slAvyJvGYiribl3qGD9G7MMYwCh9OYRRnWZZ4y/dudsoZedV4TGXcyE2d3ZKf/mZzXlr7o9xUas5d1N6Sn/LmjczE4WcDmlExa9b/Ayd2+7tjyTWoAAAAAElFTkSuQmCC;" vertex="1" parent="1">
          <mxGeometry x="334" y="474" width="54.46" height="55" as="geometry" />
        </mxCell>
        <mxCell id="JmuAxBopoD4e7R5yBPcm-4" value="" style="shape=image;verticalLabelPosition=bottom;labelBackgroundColor=default;verticalAlign=top;aspect=fixed;imageAspect=0;image=data:image/png,iVBORw0KGgoAAAANSUhEUgAAAHEAAABxCAYAAADifkzQAAAAAXNSR0IArs4c6QAAAARnQU1BAACxjwv8YQUAAAAJcEhZcwAAFxEAABcRAcom8z8AABMVSURBVHhe7V0LsFxFmW4grEBAIK97zkSIEmrZWh8oSe7MvYSEh6KoBBcSBBVEkJX3SxA0uAmg60aICEYQyPM+Avh+AlU+ykIKi5Xd2nU3q2tZS6nrgy2VwK4Jd+5M935fn7/DZDwzc55zZ+bOV/VVkjvndP/9/+f/uv8+czuqjz766KOPPvrIHmb53IP1sHdtZbiwZteQt0B+3Aewe+m8o6pD/i2VIf9qXXrFgfLjzgMM/LxZNt+YZa8wlaK/wyw6/FD5aFoDQZs1WfJ/Rr+Qk4P+qHzUWZgYGnhNteQbM+QbzT+XzjeVJf675ONpjUqp8F76w/plqMAHvKqHC8fIx52DSmngQzSUgaxIEPH0PSQfT2tUit6XzfF4qOEX+6DDN+VB/xr5uHNQKXmPO0NtEIcLZrLoP2uW+3PkkmkJs2SuN1n0/mAz0PmGfir635VLOgMvDvl/hSDurjXUPnHHI5BD3kq5bFqiMuifSz84hbJBtH7y/rT7uLkL5bKpB1dcdg6sMdQaG0hqZ07ibQLU6OF63zhJhcxeKpdNPSgNfNpqDSUpqfjs12bpkYfLpdMKZpE/B+N/1vqh3jdWUr3H5NKpBSUBRv0fV6X1htrVmJ0bCyvk8mmFyUFvpRl+abFXS5l6nkegj5TLpw5YPl9CaQgzlLSSWvQ2yeXTCphKRuql1DFYM9jPLpLLpw4w4pFGhpLMxHLR+5UenPVyuWVawBy74LDJkvebMCl1pN/KRf/rcsvUYBekAJr/ghkON5J0kvpi0Xur3DYtMDnon8Fxc/xhfiGt34rec/q4I325rf3QQ4ULKQmNpNQxkFT/XrltWgBTyMZmCkUGkspM9c6X29oPdP6VVoaSdnEz6D2DSfwgubWnwRcB8M0vmkmpo5XUkv9FubW9kJ2I55pJqSMlRTOQpcIb5faeBvxyWispdbQPeMn7vV7qzZXb2wdo+XsopVEMJa2klry75PaeBlal90RRKNKuGSipxcI5cnv7UOZrp6Wt5cIxkBbvPzv6XVoG0K8bmIlM/HkUKXW0D3jRG5cm2oMXkPpYlf5PHEM1X1GB5SXeMmmmJ6EH55/MqYNjDfNDGK2kFv3f8r2jNJM/KoPeqiir0noGkjpwhzTTk8CU8emoUuroCn9k45nSTP5AZ2Oy2xCL3IJCEHfotxz9Mmmqp2CWLzgAa4WfxFEox0BSB7ZKU/mCm9mtdiIa0b71p6QOF4akuZ5CedA/AbVzLCl1tJJa8n6FB+EwaS4/6GJhBVdTUVeltbSyYSXV+4Q011OoFgvr4kqpo12l2rl0/tukufyA5fPmpIaSwXLa+xezSu0nTfYEnl6k9sdi79/CXslFJf1aLXn3SZP5QA/PPgTz4S+TSKkjJRUPgi4v9pZIsz2B8uC8UnXI12Gv5KJS/PrMs38992BpNnsggMFORApDSfvEFQfWSrM9AUwVt6VRKJJ+tXPjoH+qNJs9YGjknYhmpOQgG582Su0rTXc1MI79MEX8cxopdQwecO9uaTpbcKelXPT/K42UOorkTE4MFd4gzXc14JdFGE8ljZQ60r9o7+csV6T57DA5NO+UpMvnMEpGf0Sa72qUi95Hs1Aokv6ln01x4ERpPjsgxe/MylBSVqlPdruk0v7Jov9UFlLqSD9julkvXWSDZxYk34loREoP5tgX9ZKBV0s3XYmJ4+a9tjLkT2QhpY52cQN//+zoDHe2ysP+CTBUJynwG9EV/uVS4QbppiuB2vDGLBWKpJ9RrlTLQ4Vh6SY9JlPsRDRjIKn+96WbrgOkdJ/JkveDLKXU0UrqYEY7W2aR2h+a/+NcDLUS5EFS5/yldNdV0IsLx9D+LKXUkf7GvPivZrmaId0lR7k4UKSU5mGok1Rk49XSXVcBq9LraD/HETa+NLT+hqTqYW+xdJcceBpuzUNKHe0rraL3bemuq4As/G6SV3JRaSW16N8i3SUDN6mxSvqnPKTUkV9nRx+7di+ed5R02xXQw0csxMO3q/Y3wbKmrBl+lOplwcSSwuvRWDUPKXW0koqnuVwsdM5vCEVAZahwWV5S6ih+rzAO0m18QPNvzttQMgii/6h02xWAbx7LU0pJt2ZAX6ul2/hAQz/MU0odA0n1XzDHd8BvCEWAHvIWWHtzlFJHeVCelK7jQS884tWVxf6EGURjS/KnKc03E8cWLpDuOxoGdtLesHFkTTOIBxxxmEA8pPvoqFww6wqzqmD0WX5baM6GfLzD/1F5kbcaT/naTmV5ibe6usJ/mvaGjSMPmnci4y+cdaWEJjr0qPqeWXeoMVcWjLnWy5/XgVfA4BPnWwnhXNBxpF0ngVfCTtobNo6sSf/ffpgxI/vE29nSG9Uxekztxo3GfGiOMZfB6CvZYM682jPVt0JGFoMh88OUE3ZV3wZfXBNiex6k3+l/xAHx2MW4SIhaQ29VV5svKmPGwM/NgHMHjLm8DYHEk6ff7QXzQZgTp5qwi/YFGZIz6W881Nb/jAPioUfUVRKi1kAQv2O+gBu3gePgnQcEjV5R11HWpNGXIIhL4TAuqMIcOVWkPbCL9lk7w+zPivQzs5B+p/8ZB8QDcYm2s2U2qaP0NvUnG33ePALy7x87xJhL25CNlNTTEMhOk1RK6WkYfzuklH7+OPxNv9P/jAP+buOC+EioGgPRvnRPFjqyIXL1LHSAiTas46xIST23AyWVUgq7cpdS+vcj8DPXIy6AjszGEdV6ZwvRfuTPgkjyqdi4H1ZlcyGtOQaSUvUBBPF4OK5Y58ipIu2APbQrVynllHXdvMDPTglrySAiPhKqcOjN6ghk4v/u0eF68ucb/iLokOVAvRFZkZL6FjiuU7IRdtCeXANIf3IupH+b+N/GZ5tqvLOFVL3IZmF9GteSHXzyIEy8OWYjJfWcwHmhTm03KaWwJ1cp5TxIvzYKIMm4BJLa+OwbpOrXQqW0lmxoFFx7aH7zI5/4v+0QSWX/w3Aw7MktE+nHNfAn/dosgchAUr8mIdsbKCQL+PC5pk+CIzvbion3xtm5BrL6ZjhwqrORUgo7cgsgFY0F/ZZ9A7+G+buWjM9WtZPxktC9BL1FnWc+X3dDM3LivQ+F6DU5bQRgKa/f2QGrVEop7MiltKDf6D9X0If5OYyIExLuPAndS8CE+aWWUlpPPhWfzmkjAE++pqTaU5fqHNsuipTSjswzkf6i3+i/KOpXy0BS9z77BhPlPATx92Z7yA2tSANYmOYhq1dBUt8ER05VNlJKTw3sCLUvDekv+i1uAEnEifHSD6gBCaGV0nNiSWktORGTNx+efSCxGqyuQjZO1e4Nd2nODuwItS8p6afV8JfzXZhfW/FhBBJxkxBaKX3QbniHXRyFnJA3YWLmRkCWbzw4D70fQeR3TdotqewP/ZqLxY4w+5KQ/vkgCnr6K848WE9KKuIWBHBEzUREn00kpbWkLGzYPzD08jrDk5IyRkl9IxzabkmllKJfZ0OofXHp/PLZJgV9VFJSETfGj7s0JzM1E6d1LWnY7dwIyDAbKakr4dR2SyqldBXGkaWU0i/0T9oAkowXJXVEnUwp3ZBKSmvJhimtt2S4EUApuwiSSse2S1KlH0p5ZlJKf3CDJEotGJV8x7hNbWAQf5dKm+tZuxGQxdacyFnlFDi2XZLKfrKUUmYg/UG/ZBlEtIUg/laFfpiWezYCMIFnsREASdNntXGVin7YXyZS6gp6+iPLZBEiCTX3S//RzokhF6QidZ+FrNudDxtgVELSdLskVdpnf6mllOPm+JMU9FHIOXGbeorfalthvoQf5NEJ2/z7g9PPjyJp1ZPh4Ly/toH2q5Du2n4Tk+Pm+HPIQOtbxA0Lm9ODMmOr+pjNxodqLsqCrpjNYiOAknomnJy3pFJK0U9qKeV4OW7ngzD/JCXjxCxE3GwAHdDRKj2mfmOzMstOOZFvRmH7wZQbAZTU90FSKXd5Saq0zX5SSakt6DFeFvRZLmQYF65IR9XvEMBzJXR7w35Jakx905YcWcor2/qs2whIGEiRtspJcHRekkopRfu1/cWmG989GG/WPmQAx9RjkNCjJWSNgYtuxsWTifdTw0gj7jgwKDuSLnQoqe+As/OSVLRbRfuJpZTjYhbekVFB78hXT+OqirisMUbtI2FqDb1FnaK3qx1WXrOQBEoBJ/hbX558fqSkXiCSGhaEtKSUov3EUspx3YqCnuPMYkpiG1y8jKufYhX6ZglNPOjPqNnIyFGbkWn3Vkk+DCx4b0r4jQBKHJ726olweNaSSilFuzabkkgpx8NxZVXQ09/c5B5V43qTSv/fLaChD6DRnbFfGoeRT+n9++FpT7gRgCypngGnZy2plFK0m0hKbUGP8XBcWZQTDN529Tzk83IJQTZAOr8BWflDK69pDeV8cdfLgqc+7vxISX0vnJ51JlJK0W5sKaX9fDvB8aSdB+lXyueYespsVYvE9dlC365m4ulYbx5EZ2lrSg74E9wIiJmNlDo4rbIcjs8qkGyHUspgxJVS2s9xpA0g/Qm/IlnuMhtUfofWOqBGWQmJ/XWqmpL3ce74aIKNAErqCjg+K0mllKK92FJKu2k/x5HGD8y+oPY7W1zcHqDDhej4W6lqSg6eGwHXx/wdSErq+cjGDDNRn4/+40gp7b0eBT3tT7qQod+C2u9Rfb+aulO1MICbUtWUHAgL46sGML9EDCQl7zIEcVkQgNDARCXvhzTHklLaSXvTFPTcNhtVFdbkPCNO3Dl1QFaehFrmP6y8Jnkq6Yj1MTcCKKmnI5Bp3zHyaxinx8hC2kc7aW+SANI/weLlp/h3Z/0vdramHFUjiWpKzgtcmd0WYyOAuzfnZSCplFK0E3k+pH3csKC9cedBV/uNqe2Z1H55Aauri1Hj/NHOlWEDaUTrEBTKH54VPOlhDqwlv8ybVlJ5H+5nO5G+HEy7aB/tjBtA1tjjaif8c4m4qrMBeX0d5PUJ82UYHqem5LUPoGC+NuJGACX17Qhk0lUqV6W4P5KU0p5rMQ/SvjhjcvI5jhp7i0p+vNdUwNynDoK8fip2Tcl55u6IGwFwvn5PinkR9/H+lkF0ttCuOPMgxw3iob67LbVfXsAA/gZzwC9j1ZR01D/MDOSrWSApgZciiCcgIHE3xXk97uP9LaWUdtCeqAHkOIPFy39j/CvFFd0NyMgrkZXfiFxT0gmUob87rPVCh5Ka5OwbSinua5mF7J920J4oDyHHx9pvVD2CAC4UF/QOUBN9GHPDRKSakk5jIX3DHDiyyfzIVeq7EkgqpRT3NV2VsqBn/1EL+uC9X9nWfnHe+3UbkJUnQmb+PVJNyQXEvTOCwrrRQodS6M6+iSqpvK7VmTTsj/3ei4K+1UKG46B8jqqfgKfIUHsber2ahUButhnJhU+YYxwpT5/iRgCc2mh+RCB4xkzkbMR19kyaRgFkP+yP/baSf9Z+zEDUyCgfZssQpw9sTTmunmv6npLzEDPhtia/A8lVapyzbyilPJOm0XzIfrjxwH6bzYMs3MfV811T++UFvUkdi6z8gZXXRrJlHYkCm4f0hAWSGeXOvmlV+PPzZmfSsH1b0Lt+Q0g7g9XnkwhgT/ynZamBefIArOTusNLUqKak41ho87CesPmRkhrl7BtKaaMzaSihzQ4DIt17P9bAqIVlCH046M3qDDzdjWtKzk+faXAYElepUc6+oZSGnUnjft2A7YcFkPYw+8ZR+21RZ4nJfYRB369ehSV64+++8mfrZCOgNgjMrFYHNfDnjaSUMsp2G/UZ1H6P9mTtlxcQyOv1drX7z2pKZgSX9PUbAXwXSEltdvYNpTTsTBq2s6ZBQR/Ufi/is5s64r1ftwHSugzB3GE30ulg51j+fQsWOizEazOSkno2srHR7g2ltP4gBVfQs736PqT2Y20rJvWRBPoB1JSjaov9hZ/ampLzVv2pyMywixtIKv/N4714kILLRFfQ1x8GxH5c7dfJ7/26DXDohcjMP+z1npJzVf2pyJTUUxGwekmllOLnewLI63lf7em+JGvWMbUT/b1fuu4jS+iN6jUI5ON71ZQMwMdrfgfSSiqCVi+p+LeuPUiB1/M0ZRdAthesPp9g7Spd9pEHzBrUlKPqdltTUmLdQsSeihxkmqak1p59wz/xb/7cZiKv4/W8j/e72m9E3anXqwOlqz7yBhx+Olavz+zJyo37Br8TaOc5SGrtcWKUUneQAj93Bb0rHbarX6BGPVOa7qOdQCYdiWB+1c6TzEq3EcBsXFmzSqWU4t975kNex+xjAFmTblGvlCb7mCrobeoGW1OyFOHpvVcgaO6gBtlLtQcpcFeGn+M6zH0TeAhu6un3ft0GLEaWIzA/Nl9FIPk7gli48ACFyiKRUi5k+HN8jsXRDp6kJbf20Ukw96jD9YPqAfMQCve1s40+o2Aqr0cW4k+zFgU9fo6M3czvyMotfXQq9MOoKTfP+CM3AvTi+UFBv3nGTvz8Yrmkj26A/pZ6rf7kzMfNuQWj1x30hP5Gv/brSvC7nubGQy/Q69Qh8qM++uijjz766KNnodT/A5Q8hrlx2Y9aAAAAAElFTkSuQmCC;" vertex="1" parent="1">
          <mxGeometry x="449.04" y="471" width="50" height="50" as="geometry" />
        </mxCell>
        <mxCell id="JmuAxBopoD4e7R5yBPcm-42" style="edgeStyle=orthogonalEdgeStyle;rounded=0;orthogonalLoop=1;jettySize=auto;html=1;entryX=0;entryY=0.5;entryDx=0;entryDy=0;strokeColor=#4E4634;" edge="1" parent="1" source="JmuAxBopoD4e7R5yBPcm-5" target="JmuAxBopoD4e7R5yBPcm-33">
          <mxGeometry relative="1" as="geometry" />
        </mxCell>
        <mxCell id="JmuAxBopoD4e7R5yBPcm-5" value="" style="shape=image;verticalLabelPosition=bottom;labelBackgroundColor=default;verticalAlign=top;aspect=fixed;imageAspect=0;image=data:image/png,iVBORw0KGgoAAAANSUhEUgAAAQAAAAEACAYAAABccqhmAAAACXBIWXMAAAdhAAAHYQGVw7i2AAAAGXRFWHRTb2Z0d2FyZQB3d3cuaW5rc2NhcGUub3Jnm+48GgAAIABJREFUeJztnXe4HVW1wH/3JiEhAQKBBAgttFAliCBdmoAFRAUBsWBBkKIiiKCgDxSVBxbg2XjyxIKggiDtwVMhAZ6U0CWAiaFDGiWEJNzk5pb3x7rn3ZNzZ03dM3tmzvp93/qS79xz9qzZM7Nml1XAMAzDMAzDMAzDMAzDMAzDMAzDMIyaMcy3AobhmLHAZ4EDgDeB+X7VMQyjKA4AFgD9A7IC+IRXjQzDKISvIA98f4u8Coz0qJdhGDkyBriaoQ9+s2zsTTvDMHJjc+Axwh/++dhal2HUjvcArxH+8K8ADvWloGEY7ukAzgR6CH/4X0EWBQ3DqAmrAdcQ/uD3Aw8Dk/yoaBhGHmwBPE70w38lsKonHQ3DyIH3AQuJnu+f6UtBwzDc05jv9xL+8C8A9vOko9FGrAWM8K1EmzAWuIHoIf+9wAaedKw8w30rUBJGAlsDk4GtBv6/OTABWXgaMyANuoGlyLB0CfAMMBOYBTwF/HPgb0Y6JgG3IdcijDnAN4FFeStk1IvhwB7AOcDtQBfRb5ok0oc4qFyM7EOPLea0akEH0c49rdIDzACuAD4GjCtca6P0DEOcR34HLMbtAx/nBr0TOA4zBlFsR/b+XgFMBU4HNixWfaNsbAt8HxkuFvnQa/IW4rv+XuRtZ6zMlrg3vjcgOwmdBZ6H4ZldgD8jw3HfD70mjwPHYL7qrUwln/5+DvgSMKqwMzEKZ2/gf3B/8/QBrwPLcmj7X0gSC9thEDZBXHnzMrwvAScBqxR1QmWlTkPQDYAfAkem/P2riAvpTGQVfxbyxliErPi/1fTd4cDqwJrITsHWyIr1ZGAHZBibhseBk4G7U/6+ThyA7ARoO1WPAbOBd5De7fd54MvA9Sl/b5SA4cBpSPqnJG+BJcCNyA0wBbfzw4lIJppfAi8m1KsP+BViWNqd09H7qRvYc+B7awOHAf9JurWeG7CcAZVkW5JtGfUCf0UezjEB7eVBJ7AvYgwWJdD1deCjBelYZsKSfcxFjG0zHcDOwCVIH8bt78XAKdRrVFxrPoUMzeNc3IXAt/G/JTQa0ftJ4t+Yl9HewS1jCDfy96Cn/BoFfBzxFozb39chUzujpKyKDPXiXMxXgHMRF94y0Yk4CE0n3nk8geyPtyuTCF8UvCxGG3sB00LaaJbngd0c6m84YiLxhvzLgfORN26Z6UAWLV8i+pzeBA70o2YpOJjwJCCfi9nO+5GF3qj+Xkb6BWUjBzZDtsuiLtw0ZG2gSoxGRirLiTZs7bwu8DX0vulG3vJxGIFEGUa5gPcBX3WnvpGWnVk533uQLAaO9aWgI6YQvT7QC3zRl4Ke6QCuRe+bl4D1ErQ3Gbg/pL2GXIgtDnpjd6K3+B5D9uLrwBjg10TflF/3paBnVkMCf7R+uZtkDlWrAD8i2mP0h27UN5KwLdGZXy+nnqvkn0Kcj8LOPe68t25sSXiGoAtTtHkY0du0/5ZVcSM+GxPuRNMHnO1Nu2LYm/AbvQf4kDft/HIIeqagZaQLCd6RaEeiL2VV3IhmHOFz4R7a5+33NuBl9L7oAt7lTTu/fBO9X9Jum05CkrqEvXg+kEVpI5wO4Gb0C9ANfNibdn6YBDyN3ifzgPV9KeeRDiTis7U/FpAt29U6iO+F1t9vIAuIRg6cQbj1/aQ/1byyBVLmSuubqbRnWPEaSLKVRj8sAg5y0O5Ewo3uDGRB0nDIHsgbXuv0r/hTrRTsRPiOyHn+VPNKJ/B2xLvSZTqwTQmffl3p8Fhtz1jEBVPr7B/4U61UvJvgMtj9yKLYvt40qyfvJDwHhK0HOOJS9E6+F0uW0UyYR9ws9OAYIx2fQO/vOZQv1qRy7ITu5/0K/qP4ykYncCv6TVn37VEfXIbe37/0qFfl6QTuQ1/0e68/1UrNePQgoqVYcUzXjEaPRelDpgpGCo5Dt6yXe9SrChyG3neW5so9+6A7H93hUa/KMgJ4luAOfRXZjzXCuQn9rbSTR73qyo/Rja6NVhPyKfTObBdPv6xsih4zcK1HverKmsjLKai/H8WiBmMzDMm+G9SRD2BFHJJwLvq2YNVyI1SB09BfXAd71KtSHIneiYd51KuKrIm4pwb1pTmruGckkjI+qL9v8adWtZhGcAf+AxtGpeE7BPfncmwtJQ8+hz7qSlsXom2YhJ6AoZ1TXmVhPFLrIKhPT/aoV11ZFX0t4GKPelWCcwjuuBdpz4AWV/yM4H6936dSNeZ7BPf3XGwNKxQtK+sFPpWqAbujr6ts5VGvurIRugdrJXI0ZImZTsvO6LHUv4nZRqMc2GGEJ4F8BQmhfQAp//R4jLZHIhlj34cMq6NYhKxnnDfw/warIqHNByFZfX4w8L04fBz4NDIa+h3iENUf43f3Id5qQXPQo3EXLbgKEnT0HmQbcl2kCMccJDfB3UhOh9cStLkjMjLcnvC4jxXINZ0F/PeALE9wnHWRLEoHIPUkJzC45tQ90PY/kcW82waOp/EicBewX8DfDh/4m9HCWehbf3HRhrpR8hfkRgvjqpRt/52Vpy+tJa1WIOHOUQQtLp0V43cNtCw5/5ugDY1xwEXoOw7N0oMY3bfFaHcrovMfavIccFSMY4wCvkv8alL9iDGN2pE6SfntS9hidiBa6e4zY/5+NOEFIqJkObqT0fgM7fYDuw60M5HgRc6oLaIO4IWA382N+F0z2yi6dZMtgcXnSFZrryG9RJc3+36KdlvlEvR59wSSlQdrlj7EcGish34/1iVTtTNWQbfAu8RsY2vl90klKLnjLhnbbGSi2UL5+zLCH8KdlN8tidMxTWiJLdO4qg4n3P01rkxnaCHPBn9y0H4/Ug2qlVGkf/ibJewFdY/ym8+G/KYt2ZvgjlpI/NV/7Q2XVHoYOnd7Z4b25iHpqUAeGu1t+cGQc3M1fL9SaeeihO0A/FZpK43MRkp5t+LKAPQh91gzFzhquxfJOhSEdgwLE27hKwR31A0J2nBlAPqRRcFmw5PWAMxm6PxeW0sIi3DUqtQkWQMA+IzSTtJFqTOVdrLIHQxd5HNlAPpZ2ViuT/q1hSC5VemnQ5Xvz1S+37b8guCOOiNBG5oBmI3UD2yWXZAKOmHFRY5oalszAI8GtN2QDRQ9j1HamkPw4tB66KGm28fpmCa2UtqZn6CN7Qlfa+lBHtyPI9uPOyIPwqVErxW0Xm/NAJzI0P7eZuCYs0Pa33Sg3VNCvnMj4re/eVPb2yJJZ59TftOLrCe0sjbBaz59SKUnY4C7CO7YQxO0oRmAJ0N+E5bc8eqm72kGII0jzTj03H07B3xfe2s/m+LYw9ELjcZNXxWWmv1Rwo3SWsjwV/v96y16aAYgLP37OuhZko8b+M71yt9vDD91JqIbMW3H4Vnl+ztEHMsrRXsrac4oeQ+VnkX8BoLYJ6djvo4sPgVxSMzPIF1wSQ+S0jqIOA5Bb0fKaAdxD7AnkhZbYyFi0L6j/H0t5O2chVeRaVYQGw38q6WS+4+ItucgRims7VZmK59vHnEsrxRpAMYRPHzqBp4p4Ph/JtipY13ySzh6s/J568M+Esn2m6SNKGYpn8cxAIcrny9E3spLY+rwDWTbN8kxkrBI+XzUwL9actQ3Y7T9kPJ5n/K5ZnC3iHEsbxRpALTKNc8hb6y8WY68lVvpxG0u+Wa0h3cnVt4S2wdYPeB7S4nvPdjKv5TPta24ZjTnl4tIto4QNN9vMIVseQuHoY+a5gz8q/lPxAk3/wtSdq2ZbvSFQM0AbBLjWN4o0gBo+99BD2Ve9Cuf5+Wx9STBo5sOxNW4gXYj/w3xHUiD1q9BhqaZToIdWPoRt+SkPI6EeAeRtn7fWsB/Ae9Q/n5/y7+tfAX4POEjv2eQyNSGwXsVSQ/+lPJ9zTCODTmGd4qMBdBuvKROLj6Ygm7hFyNv6XMRF9lWbgG+EPD5IQxuCWoGIO3wv6FXEFEGYALB98V8xEsxDdMJXgyLGo38lKG+C8OQebj28npx4HgA1yHTkFZGIO7kP2JwtAAyEp2PrEndgsQZrI/s0MxDf4GAfh+XunxYGQyAdqOWiZHINpHGFGQHYW9kq6iZmwk2AO9G5qqbMbht1Uw/2bLLZDEAQSzIoIv2dtSO1WDdFMf6NoPz9EeRFX+tek+j/5uZjFzH45BRwBmIIYmikgagyClAlUcAcdid4O29Owl+GMcgEXXa2/8hksUAtJLWAGgema2GLQnaGo/rF9AdDPW+OxUZvqdhM2Q34AKip4nafVxqP4AyJC0IG1ZVjaD53nLgr8r3DyGf4T+IB1wQpb4hM/AYkmey1VA9i+xcaDsGcTiTaG9MzUCU+v4u0gBUcoiUgPlIPH4Q2sP8YWTkEETW5JJajPwo5fMGeSyU5vlw9CN5JPZCzz9wN9LPj2Q4zvmE11mo5BS3SAOg7R3X4Y00G0kyoe0v30rw/vH6BA+D56LvQ8dF2z0IC8sF2esPIksBTG2bNcsO0AJkJ2BX4Fiip5JPIVO0YxDjmnR3pZPwsOBKGoAiFwE1A1CFEcBj6G6pXUTP1ecBDxK/ftwtZH87Bu1IQLTPQ2O1u/WtPRG5ydPc0Fpc/Bzl8wYnEexItID4a0eHIl6HayDOYD9g0P17Aivff6MQI/EtgvfvD0QWJoMWNc0ARKDNwcJSepWF5WT3VryZ+AYg6/wf9JX3qK235ciD2RrkNAJZr7h6yC/CWRs9P15UnMN8svX7B1g50nQ3ZAux4Ya8gKG7G08i/hczGDrq6UQWbv8QcCzNsJbaABQ5BXhO+XwT8nPFbaYDv1Y67kO9DLkBs7IQ8VxrZTRSSCQMzdvtbJK/NL6GJIJpZS4yssqToO3X44leB0kTC6DluXw54lheKdIALCZ4L3k4xbhL7kbwesMi4vu2Z+FR4t0M03CjTz+60Y0qXKHlZ9gOuDCBDgcSnHmpcQzNr94VQX4GI4gXoaet52jGw1egWyaK3gb0FTAxAviJ8reHcz52g7iOPS6G/w20eICo/AK3oQcTfRnJvxc1ajsCCccNGjH0ol8Pl8xTPg/LygQyYnmf8jfNiGsjADMATWgGIM8y1jshGXu1dE5JshFlJc7D7dIAaDdflAHoQYbuGl9E5sifYeUUX6sgSTZuAa5B3+H5DeHhxK4IiwU4kWAjNgGJedAWLoPaXIvgtaywsOy25MsEJ01IsucdlvX26RbREkY05DVWXujREoIsC2i7IY8ib8SoeTXI/DssRZUWNJMWLSvRPTF+24G40Yb1X0NeQdJgawlQmuVlhj4saRKCxGHHCF26WPlavoBesq4fPenMB5Tvl/rt74NdCe6ohcQfjbjMCXhqS9tZkoLeQ7zEpmGZdr4Xsw/isqVynG7i+V+sgbypXfV3F4Op05vJywCAbP250l/LBnSx8v1fOdC/VoxATwseN3WSKwNwLUP3urMYgH5koTGKE0N+v2fMPohLB/J2DjrWgTHb2BgZmWTt7zfRswzlaQA2Re+DJHIjukej1j+fdKB/7ZhGcGd9M+bvJyi/TyLXIcPxVjbP2O5BQ5scwkbKb18hn8Kof1COd2mCNlZHz68XR/5F+LqDlizWVX29vYlXzUiT+xhM+d7KuujTBi0lWVujVQaOU7evgVaIIUreQMI7NUveQfq33VyiI+0a3Bbw+7wKox4XcKx+ZL6b1L///ch1itsnryP9HbXv/v6A375EsJFOy9aIe3WSa9oL/DxC/5OV39r8XyGssk/cUkqTkPzvcS5iN2LBz0IyyUYxGalTmORGmUW84X+DdYGpDN5kv0LPX5eVDdDTjWuBSGEMA/ZHFj5nIgukzQ/MHGTU8VH0t2YQpyPuvf0M+u27phMpknoT4YuxLyEPfpxp6X1KGz92rHsu+CpeOIPgdFDnE5zBRWNtwlMuvcXgTkBS1iHeDRwnFkBjbcRA5e2JeDcSLdfK5eh1EpMwHtkCnE+2/I7DEZfaLMlHkjCelUdt/cg5aKHUrWyFVBIOYi9k+9kI4FyCreZ88nsTtjNfILi/FxN/2mIM5TsE9+tsrDJwKJPRF04+5U+t2jIevVDIFz3qVWVWQzINBfXpuf7Uqg5BC2H9SNIGs57uuZrg/n6eYoKx6oZW57KPkhcDKQtBK78NcbH/a6zMvuj9/Wl/alWSVZF1n6C+1CIpjRY6kf1hbQvF3krumU5wf79AdKYgY5BT0Y2pa2euWnM8ekee6FGvuvJB9P4+26NeVWI9dKeiqR71qiTDkW2UoM5cgCxeGdkYi7j9fhG4DN0nYAmyTnA+EkQUlTOgXbkS3Yhq9R2NEA5H79A/etSryuyIBBbdj+zLa/0bJfOQ0N2PYFMEgP3Qd6+m+VOr2nSge1P1I4kljGhWR7zpXEbvNcsipJxWWIWkOjMWCRkO6ptuonMsGCG8Az2WfAF6HjZD8hmcj/jd5/Hgt8oKZBjcbjf8teh98n2PetWGC9A7eDrRASXtxjDgBNyEuqaRPiSGIa/S6mXiFPR+eJFqpLYvPaPQFwT7GVrzrZ2ZjL6lV7TMRYqi1JW9WDngqdUIaoVHjRTsQXhaqTMdHms0Eqr6R6TiS5pKtD74LINRc2WSq6hHladmtid8anWxP9Xqi5Y3sCEnOThGJ1Kws7ndZ4gumuGTYUgSD98Pepg8gJQ7qwObIGHB2rlOJ7jegeEAzW+9H9nHzppqaR+l7Wnkk5UnK6syWC6s7PIc1V8g3JDw6ehCJNWYkRNjCM8808Ngeac0HBXS9rcztJsHo5D6eL4f7CTyBjAlj84ogG2QACnt3LqB93jTro3YEHmbhN1o/066yMEN0Bd2eomfMDNvhlOdN3+rvEwxFZ9csjt6iG8/suj3cW/atSFbMlitVpPfky6pxdkhbc6nHOsBP8b/g5xFnqQ624SfRM9Y3ZDTvWnXxuyIzLnCLszMge8loZPwofVU/K4HnKDoVTW5neIrUCVhNHAF0eeRV9JWIwZTkGSTYReoC0l9leRmm4AMVbU2v+VG/cRsg5yP74fXlbQWYCkLU4h2ne4jvEyaURCTCF+ZbchDwC4J2t0HPWCml3i5/l0yHAni8f3QupQuYFuXnZSRMUjaLi1NWkN6cJM01XDEeMIDhxqyAnHSWDu4mSFotQr6kTWIIve2TwvRpcpyD/6nAh1IWvCwUV9DlgCH+lHTCGMkkpM+zk23ZOC7QZVbm4laD5hGMesBayEFS30/rHnJ0e66KhGdyMP8YAwd+5G6BG/zoqkRm6OQenNxLuhixBCEOahMIHydoYj1gB+FHL8O8gTFjgJWR1yn40wdG3IFbisSGTkyGbiLZDfhPchNEVQlaF/C1wPyzPiyFuX08XctWoVdVwwDDkZClqO29ZplIXBszroZOdCBLNQkjYfvQYzB2ciiYcOv+xshv8lzPeDMhPpXVZ5Ayqi59KPfHLkHrmawElRc6QN+S3WCwZxSp/z76wEXAh8j3TCzG3E/fhQ4Et25aCriKdib4hgaHUgw0iSHbZad5UgNiBnIEH0W8vDOQd7cCwe+Nwwp0TYWibufgIz8tkZKc21H+oQxTyDFPe9M+XujhGyHZG/Rcre5kPMc67xbjrqaDJVZwGew1PO1ZifgGuTN7voG6sVtsEvdF//KIo8jGY/LGPFp5MT6yLz+BdzeTD9wqGOSVWqTZLIU+B2yMOjbD8HwyDBk7v5j3BiDSxzpNYF8pyvtKN3A35BCs1b92BhCB5KJ+BzgJpKvHK9A5u0u+HDCY5sMlR7EyedCJFa/bqnJcmO4bwU80Y/EDDzU9Nm2wPXICnMYXcBxiEuyC6qePSctc5Hyb5s3yUaIE85Y5CFubBUuRHwkliDOX88hEaCN3YOZA38zjFRMRrb/ot40M3Gf6ea3MY5bR+nGFuOMEvAxxFU46oa9knzyv98T49h1lUnZu88w0jGKeEFFXcCXctRjZgwd6ipJwrYNwxk+h/ythKWerrvs56D/DCMRvof8rUSlO6uzWLy9URjDgf8k+qZ8i2KzwEQlPa2zFJ1tyWhj4sz3/wnsULBes2PoVVfZ3UH/GUYkqxAdG17UkL+VRyL0qrO0qw9EaWgX3+h+9PLiXcDxSMEHH84kL3s4Zllo53MvBe1iAFYAfwr4fCbi0vuLYtUZokM7soDBmH/DyJ21gRuQUN4u4Cf4GfK3cjz+h+I+5C4XnWdko51iAV4DDkMq7a5AAkjKwMO+FfBEu553qWiXKUAzXZTn4QdZBGzHofDtvhUw2tMAlI1e2m843Avc7VsJo35TgBHAO4GdkYSRmyKhpaOQpBuLkanALKT4w91IaKlvbkKmJ+3CXcAbvpVAkoXsjfh+TEbCkcciz0UfMjJbgNwrTyB6v+ZFU0NlJHAEssCXJq/+00giCZ970mMRD0TfC3NFyafddFsqxiF5CO5G1oKS6N2L5JA4g3KUj29rxiI5/RfgdmX64CJPoomrY+pYdVmKpPkumk2Bn+Ku6nIPcBXmzFQ4ncAJ5FtDbxqSXrxI9nKgdxXkZ646LCarAReRT3bofmSq8EukcK2RM5MoLoFGN5JNuMiF0mmOz6Fs0o28iYviXbjPBq3Ja8DhxZxWe3IIyct/uZC/Er/MeFYOLOicfMkV7roqkrNIPsd3IZdQv8V173wSPxezIU8CG+d+lsKNBZ1T0fImsIHDftIYhkwzfJ7rjViFYWecSDny5j8PbJjzuYIMkeu4I3Cay05S6AB+5eHcguR2ZIfKyMBHkK0X3xezITOQMt55c4an88tLHqCYYfFFns5Pk2swZ7vUbEey+u5FyS3kX1W5g/pMBd4kutaCC47ydH5Rck6eJ11XRiPzbt8XT5PT8zv1/2c88KKn83MlfRSzMr4l8fI8+pAeZDfCSMB38H/hwuQtYLPczn6Q7fGz8+FKznLfJYHcXuA5pZFZ6AlpjBYmA8vxf9Gi5Ma8OqCFd+HOe61IcVU8NYqjCzynLPL1vDqgbvwa/xcrrhRV2OJAyjvEDZJLKWbxqxMJ1PF9vnHkdfy4QFeKSfjd708qf86lF4LZBbdxD3lIH8W+6Y7I6Tzykq/l0w314Vv4v0hJpIdio8I2Q8pg+z7vIFkEHJnfqQfyV0e6FyXPkP8OUmXpAJ7F/0VKKmfk0RkhjAT+w5HuruRhZCW+SDakXD4iccV2BBTejv+Lk0Z8ZbbZB3FM8nnuS4Fz8ePxdlJCXcsi38+jM+rAafi/OGmkG3/ZhVcBvgq8EqGja+lFYuE3yf8UVf4YoFcV5JE8OqMOXIv/i5NWfFe5XQ1xTnqZfM9zORLRV4RnXxR5n2te0ks50tGXDt/D2SxyYg79kYZhwHuRt7MrN+o+4F7gZIoLi45iDfxf8yyyk/suSUdZ4pY7gC18K5GBMrwRQd4utw7IKKT45v7AnsA2wHox2liKVCt6CLgDmArMz0PZDBS94OiayZSkLkJZDMAYqh06Oc63AgEsQx7eqU2fjUV8LcYjw9BRiNF4A0mo+hISf1B2iojIzJPS3C9lMQBVnxNVRf9FwGO+lXDA6r4VyEhp7peyxCqXRY+0DPOtQJtRdWea0twvZXnwfJTldsmbvhVoM5b6ViAjpblfymQAylSvLymLfCvQZpShqlAWSnO/lMUA9CFuwFVltm8F2oyq93dp9C+LAQD4p28FMjDTtwJtxmvAq76VyEBp7pcyGYDpvhVISR8SoWcUy/2+FUjJTEpUDr5MBuAO3wqk5FGq/TaqKlOjv1JKSnWfl8kATEcSXlSNW3wr0Kbc7FuBlNj9EsLF+PfTTipb5dITRhzux//1TyLzgRG59ERKyjQCAPgvpKOqwl2UaEGnDbnctwIJ+TWS8s4I4Sb8W+q4cnBOfWDEYyQSv+D7PogjXRSbPq6y7EI1Uj39Pa8OMBJxCv7vhTjyw7w6oI78Av8XLEx6kBRmhn+GIVl2fN8TYTIPWDOvDqgjawNz8H/hNLG8buViV8qdTv4j+Z16fdkHedP6vnitMh3JxWeUizPxf28Eyc/yPOm6U7ZEoXPwmwjT0OmgfIlC/47VBMxMWWq+L8Lm/WVnFeB/8H+v9ANPUKLMP1WmA8k97/Nivork1zPKzxjgv/F7v/wD2CDvE203voDk4C/6Yj5JtROWtiMjGHQqK1puoUIpy6qWWml34GqKm4f/Fkn5XcUMNJ1IAtDJwNZIRuA1kXx0Ywb+XRM5t4YsbPp3FuLlOBNxYqkixwI/Qc43b1YA3wAuRAyBkROrIdtweW77PA28v6gTcsTWSLms3yOJP5fhpi/6gOeQufV5yO5MlTI4b4JUcc7zrX8XsH1RJ2QIWzHoW+3qQr6ATDWqsHK7DvAZ4EqK95l4C6nM+3VgSt4n6oj9gNtx2w8PAh+keiPpWrERcDbwFOku4jLkDXE45d/fHwl8GNF3OcU+9GHyGFKabP38Tt0Zb0eiTueR7lwXIp6qexeteB7UzXJNQirh7IyMECYhRSRWRx6YJUghzZlICrK7gP9F3mhlZlukNNfRlHtrqRcZGVwOXI9MH8pKB7ADMjLYAZlCbYhMMddCtn2XIqOrmcDjwDTkrd9bvLpGO7ID8BvK6REZJbOB4ylP8RnDqAx74n8v25U8DZxA+adXhuGd9ZE3vu+HNg/5F/Aed11lGPVhOPAlZN7p+0HNW24CNnbTbYZRfXZDVtF9P5hFypvAqZQvJZ1hFEYH8tb34d5cFrkd8VA0jLZiHcRn3PcDWAaZDxyYrTsNozrsTXUSWRYlPcA52JTAqDnH0N5D/ii5jmq4YRtGYk6hGtmOfcvtwBop+9gwSklZ89WVVR4EJqTqacMoER3Az/H/QFVRZmJZdYyK8+/4f5CqLDMod/CTYahUpWJN2eVeisnoYxjOOAZb8HMpN2FRhblQp3wAE5CY7q2QPHjjkDwAY5E3yDLEBXXxwL/zkISfM4BncBfjfQBwKyUrA10Dfo7kZ3TFeOBtSK6FTZF7ZU0G75cu5F5ZisRoPIvkkJiJpEjrcaiLkYLNgOOA3wFzyfZB1RG+AAAGJElEQVSG6UIq/nwXcdRJ+7ZZn/SZZkyi5WPxL8UQNkeSqtwMLMioRxeyXXk2sAc2OimMicAZSHaWPG+0hcAfgPcR3zttGHBHznq1uyxGRnhx2RLJ0jszZ71eA36K1Y7IjXcjw2ofmXGeQfbxx0foeJ4H3dpRHgNWDbkOw4EPAX9BUpIVrd8sJMhrdIiORgw6gEOB+/B/0/UjNQI09scW/YqUy0KuxUEl0K8fCXL6GubVmIopSGFF3xexIV3oxUhGkv8Q02So7KdcDyhPfcB+4HVkRGCBTjEYA1xA+Wq9fzdEZxv6+5En0HdadqB8iVQfAHZR9DWQBZTn8X+hWmUB+jBuS2R04FvHdpWvKtcF4Jcl0K9VViDrSXXafs9MIzNOmQpdNMvZIbpbUg+/shSp/RDEZpRvJNmQv2GZkABZzb0e/xdEk0WIc0gQHyiBfibiB6JxVQn00+RFqlNWLRfWRCrz+L4QYfK9EP2nl0A/E5nra74BO+BnKzCuLEa2uNuOicA/8H8BwqQbvdZdWbaaTESuUK4TiP+Ib/3CpAspMNo2rI2s4Pru+Ci5JuQc7iyBfiaD0o2+FvChEugXR//3KvrXitFIMU7fHR5HDlLOYfcS6GYyVH6iXK/hwMsl0C9KliIl4WrLMKpT7+4ZdMeNP5VAP5Oh0oVU9Q3iuyXQL468QrJYh0pxPv47OK58SzmHcUhYsW/9TILleOW6bVMC3eLK49QwjmA/yueZFSY7Kudxcgl0M9HlbuW6QTXWnRpyech5VI71kcAI350aV54JOZd7S6CfiS59SNx/EFUagfaTLfdBbIoIULiYaqV4vk75fEtg1yIVMRLTAXxC+Zt2XcvKpUSHoGcmbwNwIHBkzsdwzW3K50djPtxVQLvfHkGyNVWFcUhgXGVZBXgK/0OpJLIcPQPttBLoZxJPtHoCfyiBbkmkD9hHORcn5DkCOAFJ0lklHkD2Y1tZFditYF2M9Gi5Au4sVIvsdBDujp6ZvAzACOD0nNrOE+0G2RNJ/GFUA80A3FWoFm7YHck4lQt5GYBj0TPolJn7lM/Dss8Y5eMA5fMnkJTwVSMsJD0TeRiADsITNZSZGcrn+xaphJGZTZBc/630I0agauwPvDOPhvMwAO9CtsyqxmKk4EMQ2xeoh+EG7ZppRr7sfDqPRvMwANo+bNmZgbwhWpmIZXatIppP/eOFauGOo8hhHcq1AVgV+IjjNotipvJ5bYMzao523Z4qVAt3rAUc4rpR1wbgYKr7tnxZ+dwMQDXRtqC161wFjnDdoGsDkNt2RQG8pHxeNV8GQ9AMd5UNwP449kZ1bQCqvF02V/l8o0K1MFwxHhgV8PmbwJKCdXHFBGA7lw26NADr4li5gtEMwGqFamG4RJuOate6CjgdZbs0ADtT7WCZIBdgqO6ahqEb77cK1cItTqsLuTQAVV8s61I+txFAdVld+Vy71lXA6XNmBmCQZcrn2k1klJ+6GgBnI20zAINoBsBGANVFMwBVngKsgV6vIjEuDYAzpTzRq3w+vFAtDJdo1YO1a10VnNUVdGkAbKhsGMXg7FlzaQBsqGyUjaDYDqj2bhU43JlyZQA60FNpVQWtU98oVAvDJa8rn48tVAv3OHvZujIAIxy25QstA2uVXUfbnTnK57ln282ZIA/HVFT9oXWJlkhyWpFKGM54Hng24PNOJMTbwJ0B6BmQKrO38vm1hWphuEK7bjtQ/SmAtmWdGFcGoA940VFbvtDyyD0C/LlIRYzMLAEuUv5W5YjVBkEjG+9civ886llzsG+jnNumwKsl0NEknnw++DIC8GAJ9Msi85BK26VjI8Ty+u6gLPKLkPPbtwbn1w5yiXL9QK6hb/2yyskh5+edDyLVdXx3UlrpAjYLOb8dkeKhvvU0GSrLgVP1S0cHcEcJ9MwiV1IBH4Y9gIfx31lpZSrhnTwKOAMzBGWRxcBvCDfcAMeVQNe0shAptOP84c/Tmuw4IOvmeIy8uIp4i5rbI+sGE3G4N2tE0oeUnH8BKeYSZ1X881Rv9X8pMAupaORs5d8wDMMwDMMwDMMwDMMwDMMwDMMwDMMwDMMwDMMwDMMwDMMwDMMwjAryfyqMuQvKRjr0AAAAAElFTkSuQmCC;" vertex="1" parent="1">
          <mxGeometry x="91.5" y="646" width="65" height="65" as="geometry" />
        </mxCell>
        <mxCell id="JmuAxBopoD4e7R5yBPcm-11" value="&lt;font color=&quot;#4e4634&quot;&gt;- scripts&lt;/font&gt;&lt;div&gt;&lt;font color=&quot;#4e4634&quot;&gt;- templates&lt;/font&gt;&lt;/div&gt;&lt;div&gt;&lt;font color=&quot;#4e4634&quot;&gt;-polices&lt;/font&gt;&lt;/div&gt;" style="text;html=1;align=center;verticalAlign=middle;whiteSpace=wrap;rounded=0;" vertex="1" parent="1">
          <mxGeometry x="14" y="654" width="70" height="60" as="geometry" />
        </mxCell>
        <mxCell id="JmuAxBopoD4e7R5yBPcm-12" value="&lt;font color=&quot;#4e4634&quot;&gt;- program code&lt;/font&gt;" style="text;html=1;align=center;verticalAlign=middle;whiteSpace=wrap;rounded=0;" vertex="1" parent="1">
          <mxGeometry x="154" y="473.5" width="70" height="60" as="geometry" />
        </mxCell>
        <mxCell id="JmuAxBopoD4e7R5yBPcm-13" value="&lt;font style=&quot;font-size: 13px;&quot;&gt;Конфігурація Terraform&lt;/font&gt;" style="swimlane;fontStyle=0;childLayout=stackLayout;horizontal=1;startSize=30;horizontalStack=0;resizeParent=1;resizeParentMax=0;resizeLast=0;collapsible=1;marginBottom=0;whiteSpace=wrap;html=1;strokeColor=#DCD7C3;" vertex="1" parent="1">
          <mxGeometry x="311.23" y="633" width="150" height="90" as="geometry" />
        </mxCell>
        <mxCell id="JmuAxBopoD4e7R5yBPcm-14" value="&lt;font style=&quot;font-size: 13px;&quot;&gt;provider.tf&lt;/font&gt;" style="text;strokeColor=none;fillColor=none;align=left;verticalAlign=middle;spacingLeft=4;spacingRight=4;overflow=hidden;points=[[0,0.5],[1,0.5]];portConstraint=eastwest;rotatable=0;whiteSpace=wrap;html=1;" vertex="1" parent="JmuAxBopoD4e7R5yBPcm-13">
          <mxGeometry y="30" width="150" height="20" as="geometry" />
        </mxCell>
        <mxCell id="JmuAxBopoD4e7R5yBPcm-15" value="&lt;font face=&quot;Helvetica&quot; style=&quot;font-size: 13px;&quot;&gt;main.tf&lt;/font&gt;" style="text;strokeColor=none;fillColor=none;align=left;verticalAlign=middle;spacingLeft=4;spacingRight=4;overflow=hidden;points=[[0,0.5],[1,0.5]];portConstraint=eastwest;rotatable=0;whiteSpace=wrap;html=1;" vertex="1" parent="JmuAxBopoD4e7R5yBPcm-13">
          <mxGeometry y="50" width="150" height="20" as="geometry" />
        </mxCell>
        <mxCell id="JmuAxBopoD4e7R5yBPcm-16" value="&lt;span style=&quot;font-variant-numeric: normal; font-variant-east-asian: normal; font-variant-alternates: normal; font-variant-position: normal;&quot;&gt;&lt;font face=&quot;Helvetica&quot; style=&quot;font-size: 13px;&quot;&gt;credentials.auto.tfars&lt;/font&gt;&lt;/span&gt;" style="text;strokeColor=none;fillColor=none;align=left;verticalAlign=middle;spacingLeft=4;spacingRight=4;overflow=hidden;points=[[0,0.5],[1,0.5]];portConstraint=eastwest;rotatable=0;whiteSpace=wrap;html=1;" vertex="1" parent="JmuAxBopoD4e7R5yBPcm-13">
          <mxGeometry y="70" width="150" height="20" as="geometry" />
        </mxCell>
        <mxCell id="JmuAxBopoD4e7R5yBPcm-21" value="&lt;font style=&quot;font-size: 13px;&quot;&gt;Конфігурація Ansible&lt;/font&gt;" style="swimlane;fontStyle=0;childLayout=stackLayout;horizontal=1;startSize=30;horizontalStack=0;resizeParent=1;resizeParentMax=0;resizeLast=0;collapsible=1;marginBottom=0;whiteSpace=wrap;html=1;strokeColor=#DCD7C3;" vertex="1" parent="1">
          <mxGeometry x="488.73" y="633" width="150" height="90" as="geometry" />
        </mxCell>
        <mxCell id="JmuAxBopoD4e7R5yBPcm-22" value="&lt;span style=&quot;font-size: 13px;&quot;&gt;&amp;nbsp; &amp;nbsp;&lt;/span&gt;" style="text;strokeColor=none;fillColor=none;align=left;verticalAlign=middle;spacingLeft=4;spacingRight=4;overflow=hidden;points=[[0,0.5],[1,0.5]];portConstraint=eastwest;rotatable=0;whiteSpace=wrap;html=1;" vertex="1" parent="JmuAxBopoD4e7R5yBPcm-21">
          <mxGeometry y="30" width="150" height="60" as="geometry" />
        </mxCell>
        <mxCell id="JmuAxBopoD4e7R5yBPcm-25" value="" style="shape=image;verticalLabelPosition=bottom;labelBackgroundColor=default;verticalAlign=top;aspect=fixed;imageAspect=0;image=data:image/png,iVBORw0KGgoAAAANSUhEUgAAAG4AAABuCAMAAADxhdbJAAAAAXNSR0IArs4c6QAAAARnQU1BAACxjwv8YQUAAAHUUExURQAAAAAAAAAAAAAAAAAAAAAAAAAAAAAAAAAAAAAAAAAAAAAAAAAAAAAAAAAAAAAAAAAAAAAAAAAAAAAAAAAAAAAAAAAAAAAAAAAAAAAAAAAAAAAAAAAAAAAAAAAAAAAAAAAAAAAAAAAAAAAAAAAAAAAAAAAAAAAAAAAAAAAAAAAAAAAAAAAAAAAAAAAAAAAAAAAAAAAAAAAAAAAAAAAAAAAAAAAAAAAAAAAAAAAAAAAAAAAAAAAAAAAAAAAAAAAAAAAAAAAAAAAAAAAAAAAAAAAAAAAAAAAAAAAAAAAAAAAAAAAAAAAAAAAAAAAAAAAAAAAAAAAAAAAAAAAAAAAAAAAAAAAAAAAAAAAAAAAAAAAAAAAAAAAAAAAAAAAAAAAAAAAAAAAAAAAAAAAAAAAAAAAAAAAAAAAAAAAAAAAAAAAAAAAAAAAAAAAAAAAAAAAAAAAAAAAAAAAAAAAAAAAAAAAAAAAAAAAAAAAAAAAAAAAAAAAAAAAAAAAAAAAAAAAAAAAAAAAAAAAAAAAAAAAAAAAAAAAAAAAAAAAAAAAAAAAAAAAAAAAAAAAAAAAAAAAAAAAAAAAAAAAAAAAAAAAAAAAAAAAAAAAAAAAAAAAAAAAAAAAAAF0x3AoAAACbdFJOUwABAgMFBwgMDQ4QERQXGRscHiEiIyUmJygpKissLzAxMzQ1Njc5OjtERUZISktPVVdYWVtdYWJjZGhpamxucXV3eHl6fICChIWHjI2PkZOVmJmbnJ2en6ChoqSlpqqrrK2ur7CxsrS1tre5uru8v8DBwsTJy87P0NHV1tfZ2tvc3uDh4uPk5ebn6err7O3u7/Dx8vP09vf6+/z+z//GmwAAAAlwSFlzAAAXEQAAFxEByibzPwAAAwJJREFUaEPtmmdTE1EUhi9BDKBYUEE0FlCUxIZdsfeCDRUpYsACFuyKIEZBjR1F0ADx/lnhnjdjNslmz94sfrrPB8K5e97zzJ7ZCcPMigws2Nn2/Fs8PsFjPDYy9DkaPY+wW2q641KHlnwMcMPsq0i7R8MX6ENWhxYfpnBZ+B5JPZrd3V/RM+R0cec7jZSUsbeR1ywikZgK/FE/ZXMeRjEo/00Z+WZfwO/LZ+HLe6giE0e+qE8Xz8sFFZCydRYOWDygUGn1iPpk79P/TvXLThcLmeQ+papECD5mPKi65Y/5qJl0U6xKiNAv9Rvz/g6oZnkJJZd7FJvUiaCbfeK53IySy12KTelc7bNVtcq1KLncoZjSudlnWHXKSpRcblOMdC72eU01JnJsuqwx7LPJcZ+aus6UWGKfTt/XmrpbqTHss8lhn5q6m2kx3j41dTcolvyEYZ9NWfepqWun2CqUiuCoOsu6T01dA8VCKAnGPjV1xyh2ECVw3qembhvFelIGO+5TU1dK9yH3ok7gtE9NnXhEudhG1Akc9qmrq6WcHD8+Bydg+aA6vzITtRVdne8pBaX8Gj55NIn9+Mt7Co1WdHVi9Rgl7ehCnxVtndhBSTva0WZFXycOU9QGz3Vi608KZ8R7nahotv83bRp0Qqyp77N5ZKZFJ8SMpTVbdiWx/QRNnCZdGoto4v/SVdJEo/MCozM6JkZndEyMzuiYGJ3RMTE6o2NidEbHxOiMjonRGR0TozM6JkZndEyMzuiYZNVpvh6ThZU0sQOlFc2Xf7JQTRPbUFqpp4u1KD1gE008g9IKXtxqQOkBeK3uEEorIbr4fR7qnJk7RBPXobZSGKWr11HnTAfN+1CEOoWLdFk2FuIgJ/yNGHcZB6ksoVctpeyvKyvAmSYFZbtfYthYAGdpnEWHlKMDr3JigN5WmeIchqdT3IMWD3lRjOEZKPuIJs/4VI7RGVmW2LhH9K/AYBtK8EXtDeESjLVn/WP05syTDRiZncV14d5hRDQZ7g3vqcC4fwjxF39zEvENDlLdAAAAAElFTkSuQmCC;" vertex="1" parent="1">
          <mxGeometry x="502.73" y="687" width="30" height="30" as="geometry" />
        </mxCell>
        <mxCell id="JmuAxBopoD4e7R5yBPcm-26" value="&lt;font style=&quot;font-size: 10px;&quot;&gt;Inventory&lt;/font&gt;" style="text;html=1;align=center;verticalAlign=middle;whiteSpace=wrap;rounded=0;" vertex="1" parent="1">
          <mxGeometry x="487.73" y="660" width="60" height="30" as="geometry" />
        </mxCell>
        <mxCell id="JmuAxBopoD4e7R5yBPcm-27" value="" style="shape=image;verticalLabelPosition=bottom;labelBackgroundColor=default;verticalAlign=top;aspect=fixed;imageAspect=0;image=data:image/png,iVBORw0KGgoAAAANSUhEUgAAAN4AAABRCAMAAACKX+iIAAAAAXNSR0IArs4c6QAAAARnQU1BAACxjwv8YQUAAAIuUExURQAAAAAAAAAAAAAAAAAAAAAAAAAAAAAAAAAAAAAAAAAAAAAAAAAAAAAAAAAAAAAAAAAAAAAAAAAAAAAAAAAAAAAAAAAAAAAAAAAAAAAAAAAAAAAAAAAAAAAAAAAAAAAAAAAAAAAAAAAAAAAAAAAAAAAAAAAAAAAAAAAAAAAAAAAAAAAAAAAAAAAAAAAAAAAAAAAAAAAAAAAAAAAAAAAAAAAAAAAAAAAAAAAAAAAAAAAAAAAAAAAAAAAAAAAAAAAAAAAAAAAAAAAAAAAAAAAAAAAAAAAAAAAAAAAAAAAAAAAAAAAAAAAAAAAAAAAAAAAAAAAAAAAAAAAAAAAAAAAAAAAAAAAAAAAAAAAAAAAAAAAAAAAAAAAAAAAAAAAAAAAAAAAAAAAAAAAAAAAAAAAAAAAAAAAAAAAAAAAAAAAAAAAAAAAAAAAAAAAAAAAAAAAAAAAAAAAAAAAAAAAAAAAAAAAAAAAAAAAAAAAAAAAAAAAAAAAAAAAAAAAAAAAAAAAAAAAAAAAAAAAAAAAAAAAAAAAAAAAAAAAAAAAAAAAAAAAAAAAAAAAAAAAAAAAAAAAAAAAAAAAAAAAAAAAAAAAAAAAAAAAAAAAAAAAAAAAAAAAAAAAAAAAAAAAAAAAAAAAAAAAAAAAAAAAAAAAAAAAAAAAAAAAAAAAAAAAAAAAAAAAAAAAAAAAAAAAAAAAAAAAAAAAAAAAAAAAAAAAAAAAAAAAAAAAAAAAAAAAAAAAAAFo0TjgAAAC5dFJOUwACAwQFBwgJCgsMDQ4PEBESFBUWFxgZGhscHR4fICEiIyQlJicpKissLS41Njc4OTs8PUBCRUdMUFFSVVpfZGVpam1ub3FzdXd4eXp7fX6AgoOFiImKjY6PkJGSk5SVlpeanKChoqSlpqeoqaqrrK2ur7CxsrS1tre4ubq7vL2+wMHCw8XGx8jJysvMzc7P0NHT1tfY2drb3N3e3+Dh4uPl5ufo6err7O3u7/Dy8/T19vf4+fr7/P3+3OJbBwAAAAlwSFlzAAAXEQAAFxEByibzPwAABO1JREFUeF7tm4tbFGUUxr8lUyDJEm8QeEsku9rN7F6WdpHuRUkllaUFpKGUhrVqaKRReSmloiKxKxpykWX+u86ZeddmdmaYs/scY/X5fs+zMO985zs77867sPs832eKnOqHdv10LjMez8iZv/58C8UXG9MbhxwJbSWYcFExdz8uP5H/1Z9Soko/x8ULaEth0gVHLVEvuWXjB3fE036cKjJnJd2UUEvUomEu2nk9ZDRPU0nmvp7kbkTd43sHMvGhyowNDf79VS2KY9BL1BNc8klC6J7jovrK77jb5P7mvD3BtUn8vAz10egl6lMqGK2HiONZfrbbTG2iv+VcIaHvWsyIQi9RJcdovAcilmf46W41psb1F3+rZ3/PhSJ+WIw5EeglqrSfhndBxMKvFNvz7l9rbLf3uM45/dl2JChMe5rDe5oevQsxKYxeosp+pdFEe09xK7bn3b/WmBf2Bi5z3qyBjGTBOJU0vkA/jsfVKSZKZq8BrYjJ7l8TlzVDxLD0HNW8aDbRz2+vwbkcFBMls/dkthUR3y31DY0MzISKwbXXZMw79OtoFU4GUUxUHvZWQtTwn+SobhUDPAARx+IxKtpAB1vo95H53skgiomStVrDre6A8Lq1hLvN+4fO85VPxqJRFKVa6ODwXO9sAMVEyVrdy60eg8h2C92/+fwx8RWIOGqz9kzqfTr6utI9G0AxUbJWy/gN01sGFXf/XHtJd69m5HxRyTY67JntHvtRTJSslenmXh1XQhkz6wvudhkUENmr5k8kKJq2nY4PXeWJ/1BMlNDe3dzLOdGw6naPm+/n/8ybg6+WyF4V371sgqd1kOieBZVFMVFCe2YrlQXI0OPMFRj1ENmrHKSiNyDM5R+ROlABBRQTJbU3022Ww0A5Rj1E9qb/SEXdECQ/JtkV9KeYKKk9U9HqdgtQiD3zIRVNrIIwZkYn6X2BGCgmSmzPmNV73O8pPgqy9yDP7L8RiviA9B5/J8VE5WHPmCWrH14H1h4NtRLaK+/jqxhuvgeZWnnXL6Q7Z2CYUExUXvb8tIdaCe3hPeODv0M41RglFBNVsD3+k1eYPe+zfg5nF2CQUEzUVNgza7gwSMH2/IQTNSX2zPJNv1GpHxV74WuaGnvGXH3nA4jUurX7aNolZs/P8zTtErb3Mk2z9pKx9qRYe1KsPRnWnhRrT4q1J8Pak2LtSbH2ZFh7Uqw9KdaeDGtPirUnxdqTYe1JsfakWHsyrD0p1p4Ua0+GtSfF2pNi7clQtneq+O3xqvOdEPnArU4WvT13z8CXEPlwiOYdC64uLAp7OYlK06nROgg5dbwkOg0B1OwpJmo9nXI6IeTwMkynAQJo2dNM1BJe/Ot0JO3YCVK/gyeNLIUErr2klfARNNI0vz3NRLmvneOMHdgmZz9vtQg7Ee1jiICvYMhvTzFRpoyXIBfCwWDKsQulBSIP3qVpp/zrxRUTRZnKYyenj+7QBpnUYTo9EFw+LqD8JE07ElgCrZcoonRD7prPZIabSjHbx2s88jqEmFd51kYID71EuSx8ZHe/aM+ry0T/7kcj9xbe5A43+xbWJlO10Z10CyRQS5Qqbe6TDKYRGAFp3tbgOFvR4DxqidJkDm9SKIC+iI1gSolS5boTeLq86J18j3MRMW8zLjkPtlzYd4wuK9Z3/Y7rFvBHV8MKTCxSjPkX2E73Go+eRL4AAAAASUVORK5CYII=;" vertex="1" parent="1">
          <mxGeometry x="569.73" y="689" width="54.81" height="20" as="geometry" />
        </mxCell>
        <mxCell id="JmuAxBopoD4e7R5yBPcm-28" value="&lt;font style=&quot;font-size: 10px;&quot;&gt;playbooks&lt;/font&gt;" style="text;html=1;align=center;verticalAlign=middle;whiteSpace=wrap;rounded=0;" vertex="1" parent="1">
          <mxGeometry x="566.73" y="662" width="60" height="30" as="geometry" />
        </mxCell>
        <mxCell id="JmuAxBopoD4e7R5yBPcm-29" value="" style="shape=image;verticalLabelPosition=bottom;labelBackgroundColor=default;verticalAlign=top;aspect=fixed;imageAspect=0;image=data:image/png,iVBORw0KGgoAAAANSUhEUgAAAHYAAAB2CAYAAAAdp2cRAAAAAXNSR0IArs4c6QAAAARnQU1BAACxjwv8YQUAAAAJcEhZcwAAFxEAABcRAcom8z8AACFcSURBVHhe7Z0HfE3nG8cjE5HE3nuLLWSKRBIJIovYo5QO/lRRraK7uoyqqqLUKlpabY0KpTWKovbeZO9xV5I78vs/z3vPSSLV1mpzc93n83k+594z3nPO+32f9Z5zEytYxCzFAtZMxQLWTMUC1kzFAtZMxQLWTMUC1kzFAtZMxQLWTMUC1kzFAvZfEoMuA/rcOBQYcqU1/61YwD5GMehV0GmuIj/je2iSPoM25yiBzZe2/rdiAfuIUlCQT5Z5E9rMndAkzIPy+ljSccjP2klQ86S9/nuxgH1IMWgzoFP+jvyU5VDfmgLF1RHIuRwhwOZn76U9Cow7lpJYwD6AMCpDXiLy035Cbuz7UN8cg9TT/ZF6ZgAUVwYQ1KehzdpFOxqMB5SiWMDepxQU6KFNPwD12ZegPj0MOWeicWl3GE5u64cU+qy6MYa2/0g76qQjSlcsYP9BCvJyoE08gNxLK6D6fTxyj0Qg8+AA7F8Xgt0reiHutyiorg1HXso6FOhLJwO+l1jA/oUU5Kugjd0PzeE5UO5+CsqYAdDujUb89ihs/sgPWxcHIGlff6hORUMTt4DKmxzpSNMQC9gSwi5XH38GuQfmQ/ntUOR8EwrV95HIjxmIi2tC8cUrntg+zx/pv0aT9UZBfX4mDJo70tGmIxawknBipM9ORN7h1VCtewqKZX2gWBUKzTdRyNsSjYNzA/HRM50RM68nVLsHIXcPueDDYymuHjc2YGJiActioMTo6iGoN0yFYmFfKD7pDcXnEchd3R/qr6KwfXYPzB7aHvs+CkTutmiod0RCQRacf3sLWXjpZ8D3kicerEGZhfy9a6H8eBAU7wRAMZcsdWE/5BFY5dIIbJzsiRkD2uLI+0HQfkfZ7yaCurkfck/OR4FWIbVievJEg9Un3oRm7dtQzgyBYlZPKN/pDeUHfaH9OAyZc0Ox7Ck3zCaop9/rBf06st41/aBYHwnNobk0IBJLeQri7+UJBVsA/ZUT0CycAsULPaF4KRDKWQT1zb7QvR+GlLd64+P+HfBKcCtceDsI+qXhUH4eCuXaocg9tJigpkjtmK48cWAN+Wrk/7wR6hlDoBznC8XEICimksXO6AP925FImNEbb/Rpg5d7tcLNWUHQLSCgn0ZAteE55P66CPqUqyZtqbI8UWANihzkrf8UyqfJQof5QDUuAKrxQVBNCoZuRj/ceqEXpvdogWkBLXB9egAMH4ZD9dlwqDfNRO73byL/4GoUqDKl1kxbnhiwhox05C2eC2W0P1TR3aEaQVBHB0I1NhCGSX2QML4XXvRujkndm+PmZHK/71H2u/hpqNdOgWrZs1B9OQG626el1kxfngiwhowM5H04B8pgbyhDyVKjqRYdQjqMrHJMEG4N98MU9+aY5tUct8cHQD8rEqo3oqGcMxDK13tD9W4E8k/tpNKmLDhho5g9WMPtO8ib8x5UwWShAV5QhfpBFU5WO8AfuiEBiB/oi2ldmmFSxya4PdIPBS8QyMlUx06huPsiZcrTqXb9aTkKdKYxuX+/YtZg9ReuIHfSVKh7+EPp60tgSYN7QNWHAEb2RHxYd0zt1JS0CW5F+8IwthfUz1DMfS4IygmBUEzwF+WQoYzE1eJilmDZYeqOnoRm1ASovAKg9vKF0pNcsC/F1p6+0Af7IzbQGy+1bYIX2pGlhneHfjjF2+Fk1U+RjqHkaowvNB+Ohz7pprHRMiZmCVa3/yjUfYZC1S0YKp8+UHWi2OpGSnD1PXogrbsPXmreGGOa1sf1IG8URBHM/uSeB3PcJfc72AfqFwdAd+qg1GLZE7MDK6D6DYKqVXeoffpB2Y6s1dUTyo7e0HXtjoxu3ni9aVOMaVAf533cYQghoOSaVWGkUeSyI8myR/ZCfszXFKD1UqtlT8wGrHC/+49D7TkAyppdofKgzLaNH5SNu0HZ0hP5rpQ4dfDBh82aI7puHZzo7IYCPz+o/SnuBlHc7U1gexPUMF/kffEJDBq1seEyKmYDVreHLLUjQbV1hao1uWBSZZ1uUDRwR15TT+QS3EWNmiOiTi3sc+0EfVdfGgQE0ofiLsFV+ncn9YTmrRkoyEyTWi27YhZgdUdOQd2Jak6r1lBVI1gNyFKrkNVWc4Omdjfo6ntiQ51WiKheE1sbu0LfjmJoB2+outC+7qTeFH89ukHz7Djor1yWWi3bUubBas9cJTCjCGpLqGw7QVU/AEoXT6gqdIK6shsM1bohpror+lapgTU1W0HXzAuaVhRzJdes7Ezazg2qfn2gO3hAarXsS5kGa7iTCFXfScghS1VatYeqMrnThuSG7QiUbWcUVOyKY87tEFqlJuZWbQpNHQ/kNiSoTTygbEHLNgS3JVl2Nz/kb/jKZB+aP4yUWbAFmTnQPP0GsglojtCOUNbrBVUjAkvf9eW64Jp9Bwx3qo0pzvWRVrkLdNUp5pJrVtZ3p6SK4DZyg7KVB/LmfYoCjem8Yfg4pGyC1WqheWMJMu3dkEUQs6y7IKdcJygqeUHp5A2tVWekW3fE8471MKRSbdxy6AidI1mxCynFXWUtAlurCym56xdegyGj7M0s/ZOUSbCa1T8ivbo/0qw6IKMcwbV2QzbDJaAaK1pad8a7FRqht1MNHLZzRQFtV9l3gaoiqTN9du5EA6AD1P2fh+76balV85IyB1b7+2mkNo9EslU7pFp3I8vsJuCyKkh1Vl2xyqE5PJyrYot9SxSQS9aQNatYbQksJVjKih2hGTgBunNXpFbNT8oUWH1CKjLCpyGe4mlSuW5ItnFHmg3BJc2w6Yo8WrefLDSQLPUDslgVQc0lS1aSBausCCjHYbsuUEdOhO7MBalV85SyA1anR+bspbhj7YE4q25IsPFEEoFNJagppEprd1wma4xyqoVxjnWRTDBzyYLZLSsEVLJYh65Qdx4I3a9HpUbNV8oMWOVPh3GrdihuWbkh1sYLcTbeiCe4iTYeyCDYDHlKxYbo6VQdf9i1F9abTWCzKe7m2LtDUbUHVM1Dkb9koxgk5i5lAqwuPhWxIVNwhSz1mrUPbtr4INbaiwB7k+V6IdPaE0sdWqIrxdWN5VtBTdabad0VmQzW0ZtKnAAoavghd9IcGDKzpVbNW8oE2NS5G3HB2huXrbxx1dYX12y64wbpbVqXRqB/pnqVk6UZFRoL683g2Etg0+09kOncnUoicsWhE2GITZRaNH8xebCaM9dxucMYnLbywgVbP1whsAyXNdbGF+dtPTG4Ul30q1QT52zdyFK9yC17iMSK428a17lt+kN75IzU4pMhJg22QG9A3Ktf4A/rnjhVzp/A9ST1x0XbHrhBGmvTA7MrtERb5yr41r49lTw+iCOwCQIsKVlqamVyweu2SS0+OWLSYJWnruF069E4YtWDEqJeOGkXiDME97yNP8XZntjk0AUdyQW/XLEZbpNr5oSKY28cxd0EqmeTyB3nvLIIhrzS+cstpSkmC5Zf9bw1ZyMOlOuFQ+WCcNQuGMcJ7gm7IFyyDcIRO1/0Jhcc5FQHx+w8hfVep6TqNsG9Q8nUHbLW9OBJ0MUmSy0+WWKyYNV3UnDMdxr2WgXggG0fHLINwe8E94RtMLnjYMyq4IpmLpWxzKEzwQzANSnu8vImlUQJjcKRu++E1NqTJyYLNv7LXdhTKQq7yvXGL/ah2G9HcO164yRB/treh1xwdTzt2Ey45kvkli9Q7L1CcfdqOS9cr+iH7PlfUStl5wXvxy0mCVZvKMCJEfPxg1Ugdtr1o3Kmn4B72C4UBwjwgEpN0M6lGrbYdye3HIwzZLFnGa51D1yk2JowaDb0Wab729X/QkwSrFaVhysLtmJ3s7HYZhNGcMPxs10YDtmH44OK7mjg4oSXKrqSW+5DMZfdcxBO2QaIkuhq8yFQHz4rtfTkismBNWh1uL5iD46O/BiHgl/DdpfB2GYbgT12UZQF94KXcx14ONXEVvueOGbbl5KoEEqegnGMyqFTDoFiMsMiJghWnZyNn/u9h7VW4fjOZTi2OA3Bj/YDEEM6oWJH1HJxxGvl3SjehpFb7ovfKO4etgmhkoiSp/CZ0KZkSS092WJyYNNO3cY3LSdjpVV/fGU3kBKlgQR2EJaW741WzjXh6VQP39v3xT67SOyluLuPYu5+ypyPNx2F7L0npVYsYjJgDTo9tJp8xMacwcoq47DMaiDWlB+KDaSb7IdgqGMn1KrsgpkVfLCbrHenfQQtw7HbKgS/EujYBd+VqZ85/ttiOmDz9ci6kYyb209h95BPsaLSaCy3G4aN5UdifoUwNHOuAW+nBlhXPgLbyYq32Udih3U//GTVB2dHzYc288nOgkuKSbliQ74OyadjcXH9YXwfNAdLrYdjtf1IDKnkhiouFTG1ohe54aH4zmEgtthGYQtBPdTrNSivJkgtWEQWkwGbp8iFihInTYZSwN3/6iYsrzIeb9tEoKVzbXRybojPykfj6/LDsME2GhspudrrMR3pR8z3vaVHkVIFW2AogCZLjazYTMQfuYHLW0/hyo8ncf6rIzj45o9Y0+l1RDt4oqpzJYx09MEqh6ew2nYwVltF46eu03H728PQPwFvQzyMlBpYPcXUjJtpSL+agqw7Gci8mYrMW2mIO3wNR+bHYNuQ5fis2wy0rtwADZ2r4+0K0VhhMworyg/HNv83cfWbw1Cl5NDgMJ+39x+nlApYg86AzBtpQnUUV8U6AiRUb0D2nXQcmLIZExtGw8mlAvzLt8UCq1H4zPEZ7Ij6GHd2nUFudtn+meO/LaUClq1Vlayg5V//wY7re86jb2tfOFnb4TmqYb+oNw2b+y3AubW/IY/ct0X+XkrHFd9HuXnx0kV07NIOPu3csHfuFiQevI6c2AxkkftOPRsHrbr0/kNGWZBSTZ7+TtatX4uqNV3w/vvvSmuMotfqkX4pEbnpSmnN3cK/mDPo9dDrddBq85CXl4u8XA1ySTUaFTRqUo1afM/PI83PFfvptPniGD0dyyGBJzvK8oSHSYLlDn32uXGoVaca9u3fJ601ZtHKhCxkx6aLOC3W0b4MIpdgKRXZyMlOR0ZGCtLSEpGWkoDUVKOmpMSLZVoqrSdNp+0ZaUm0bxKyMlOQmZFKy1RkZ6UhJycTSmU21GolDQA1wddAmy/DNwg1gheXYJJikmBjY+/ArWtn+Pf0JSD8akuBsCa2xDwFdXIedbJeC5WSIEsg0tITkZR4i/Q2kpNiaXkHycmxdHycUP6clhpPQBkuKYOnpQCcnkTLZILLgI3LLGqXNZsGSk5OhjiHQkHAafCoVApoCLgROl2LTiuujTN02dJLG7pJgt21KwZ16tXE9FemSWsgOlGtpoRLcrPZWelITLiFhPibSEk2gpOhyt8ZaCrBZOXPaQSVQRbBJItNZ5AyVFmNlivAshJYBpydTYOIlgxYQYAViiyhDFqtIusmr5En3HuecSBKoEtDTBLswk8WoG79mti4cYO0xlgOaXJV1Ik5FDPVosMTE24XWilbaArDZKgMtxhUWRkoW6kRKsO9G6j8XcBkZddcaLEMN8NoteQp2FWzMli1Moe8h1H5s5otmuM5geYYLizaQBb9H0I2ObB5NNonvTABrV2b4/jxu/+RAncLW21WVqqAYATLVnpHAktuV1YJbEqqcSmsVY6tEtjilipDleNsof4JbBFUWRkkqwDLUCk2M1hjjFYJbyNb8n8F2eTAZmRkYMDAKPj17I7EpD//JEOtziFo8QImu2JeJifd7YKTU2ILrVQGLOKpBNYIl8H+tbUy4BxaFkE1ApZhCjdMlivDLAQrQZWVgcrKgI1xma24eBb++CGbHNjk5GSERfTFqNEjkEulCotOqxWWynE1lTLdJALJUGWwxWNrShKpZKWyimTprkRJjq13g2WYwmJ5KVtrocUaY2txsCKRKg6WrVUCKmfUJcHy0lhi5UpLoxUXL7Meh5gc2MzMTIwcNQyvvTGbsky96ERhiQSQyxPuTHZ1DJmtkSEnJZKVElij9dJSdsfFEqgiuEWASyoDZjeflWm0WGPCJCVNBNeYNBkTJrZWvjYGKyvDVEtQGa7RQossVQbLUIuD1VIZxVrcTT8qYNOLsVTKvPb6LCxZsggaVRZZaLxwjdwhfNOy8I3zOtHZVIrkUPyTLY6tzWiJZJVUo/L3HBoIvI9CQe6UwKgYimRlxqyWlLyCRkNwGJD4zp95SeCKfTcek0PXx/tJ+5IKayV4MlTZOo1a9NkIU1YjUKPVsmuW3fOjATY5sCxbt/2ImJ3byAVzJ9z7dzd8w+y6eLtcWvCysIN4KT4b3ZzoLFK5s/6uw3hT8f2MbRs7m1VuT1adjs/L55S0EFBxlV2t9LCjhPJ6eVvxc7M+jJgkWIUih1zf3/9AuahT/tsyoqzIfwLW0vH/vTxWsCdPnsCatauxfv06rF23Blu+/5YSF9P/50MPKpwH7N//K9bQPa4j3fjNBty8eUPaahry2MCmpadh2PDBcK7sKCbva9SsjPoN62DdV2ukPcxHsrKy8BSVYy5VnVC1ujMaNamHzZu/kbaahjw2sHv27hE3WM7GCuUr2sKhgg2srKwI9iAqT8zrwXhmpnESxaqclbhflyqV8BV5KVOSxwKWY+jMmTMEUEcnB7LaikLtHMqhZeumOHrsd2lP8xCutQcPHQhbBysxgGvUqooNG9dLW01DHgvYW7duwbu7B2ztrQTQipXsUcm5fOHyo7kfmlUC9cSA5TharYYLKjjawcmlPOo1qC3iLFuvjZ0V+vbrjaSkJGnvItFqtRSvMpGekS5UrVaJ9Tx3ysnIwYMH8Ou+vTh79ixyqAT6J1Eolbh27SoOHzmEX37ZSwnOPpw8dRIJiQmijvwn4dh54cJ5HDiwXxx/4sRxJCbydd89KO8FduPXxidRnFhdunQBv/66V1z/jZvXoaM69u+EB318fByOkWf75Zc9OHz4N3H/Wu3D/xOnRwarpM585tmnhdtlV1ydkqYXp0xCr+AA2Je3FlqnXg3ExPwkHVEknEWPemq4AB8eGYoVK5eT9d/E+x+8Jx4C8BMeduVd3TvjqTEjsGPndjEYSkp2djZ17HraZyS6+3rCtW1LNG3RUBzbxa0jQkIC8drrM3GKIN9Lsqlm/mbT1xg2YjDcPdzQxrUFWrRqgk5d2qFPaDBdzxxcvlz0J+VLgq1Vpzq+++5bXL9+DVOnvQgPLze0bNWUrr8FfHt44/U3ZhOoe///nkuXL2LOnHcQ0jsIHTq5ivO6tmslXjJ4+ZXpoo8eRh4Z7PHjx+DavhWBtRKuuDN15OkzpzH7tZkE2kZYsR2tn/bSlD+93B0Ts1NYNidZPDDCo/phyLBBoi1eJ9Ta2K61rZXIsj/55OO74LInmDx5IipXrSQSGU5oWNlTyJ/5eP7u5t6JkryfpSONwtY8YeJ4ym6dxD6iDfncdCyflwenl487YnbFiGN4IMlgeTDXrV+LILyE0LCQwmO5HT5OXDu1O2zEkD95rZ9+2i5CmJ2DtbjPwvOySvfdqXM7bNnyLfmMBwtljwx23vyPRCx1IIgM55nnxgm3t2PHNtSsXVWMaF7v6e2OKyX+kcLun3ehYeO6YjvH5hq1qlBnsGurgp4BvsJa2Gp5cPA5uJP5Afz3P2wRx/N5Zs1+lTrYRnQCd3JbGmT8PPe9D94l65mMLl07ipDAbXBnDRgYiXQqzVjY9Y7/33PGayxfzuhd6tZAYJA/QsmLtG3fGhWd7EW7fKy7pxsunD8HtUaNwcMILJ2T2+aSp2btapQdO6J9hzYEy11UCBUrcWiqINrlbV98sUycl2X37hi069gGVjQA+P45lPn4eiAsIhTePh7iOx/Hg8u1XUsKSb9IR96fPBJYfnYaGtZbdHgFR1txMWvWrhLb4uJi0cPfp7DDa9SugtVrvhTbZGGw3AEOFawFWLaYFuTClq9YRrHpBhIS4rBnz88ID+8rblKGGxEVJqzm6tWrwm3Ko7xW3Woi3svxlN9B+uHH79GgUR1xDew5OnR0FR6FhSdS2NK5Y8sT+KbNG2LJksUiHCQmJmI/xdrI/mECPCufe+asV5CamorhI4eKe+PkkAdNtZouYtsfFJcvXb5Ernkzea8O4jjeh/d97vlx0JHX4uN79+klBgvfO+ckc957BxcvXkBychIuUox+/Y1Zok0+vhydd+jwwUhLu/9/G/NIYHfs2E4WZwTDUHhEX71q/JGUbE18YQyEb2zU6OEiJstSBNbosivTqF786SfS1iI5cuSwiDsMwIEA129Ym5KTX0R8GjtuNKIHRSKqf7jojOLts8TT4GhHVsTH2pO279Aap06fgkqlQtSAcAGLoTu5VMTHC+f/KXtnS5G9hh2dO5hi4blz5zDm6VGFFmtP1j5i1FAoFHf/lHPuvA/Fdvn+2RpzcnKw+dtNqFLNia7J6K5nUdgqKRqNBqOfHin6hq+dPRW77vuVhwbL2d9L06eJkS6yX/tymP7yVGmrUTjDYyuQL44Tg2PHiv5WsAyWb45v3I3c5qVLl6StRZKXn4/nJzwLexpA7N64vfkL5orBk52dBZV4nMbPO/NEHGdrTiGrYICzXntVhATuXL4Gtthz5E45kWIXx+fmDu7QuS2uSIOyuChpAPy49QcsW/45li9fSh5gC27dvokRI4eJa5bDBL+nVVJ2UsLIQPh6eeD3CgkQ2e5Uyjf4vHw/DHjV6i+RTPGXky/WGzduIC42Fm+/85bwKMLb0P4ffDjnviPtQ4PlLNHDqyvFt3Li5jgbXrT4E3Kf8eLGY8kVHzp0EL5+3oUWyRe4YME8qYW7wXKnR0T2E27qXsIgOV5xO9yhk6dMFE93WHII7l5KihYvXoSpU1/E4CEDERDkh2YtGotzO1KclCdMOlLmefbcGWwlWJyt83ZuL3pQlIi59yO8X/GsmO99/Qb+u1J3y14qmeSBzWD79A2mEuoPDBzUX1wLu+jKVSqJ63Rt25o8Q0uhbUj5e8NG9YTRcL9xMjbu2TEivt+PPDTYNWtWic4yurEKIr5youLn351SfC+Kr96UDHiK5IhvgJVvrl9YHxFHWHbv2S3A8k0y3KGUEf9V5y5d9jlcKkujl/Z/5rmxyCdLZq/AbdanOMXQi2eUnNSwC+dkjM9vBNsWp8mSOb5Wr1lFtMfXNXbsaHJ/99dpJcGyR5Dr2OLC06xNmjcoBNs3NETU2JyXsJfgfjMmV8Y4ymGhuHKfFO87np79p8eZsjwUWI5j7Ir4ZPLFyaNKdKxUZnAHyxfHg4A/N2xSFz/t3CHa+VkCy+ttyZVzzJMz1pKy6NOFog2Gx4BenDpZxF4v727inLJbdPfoghdenCjiJVvl7t27RIzlc8hgz5w9g01UtzIQGeygIQOEW7+XcNjh+MnKLp8feHBZVnyC4l4zTyXBcpb/xx/HMSA6kq6nyNONpzCzcOECUb8X1w8/el94qvnz59Ln90QiyNdyP/JQYHnUcfHNHcWdze7CybmC+OxMkGV1qmxcx9uKj86XpRfBf6EEqHiM7ebe+U8lEQvHUi5dGALHM87A36H48867b4nvvN6BNJpKmUuXLoq3GWTh2pFh8rVy8iTH2AMHD6BJswaF5+5KNe69Hr1xsvPWO28ikjLxCKqzp9CAOnfuLEaPGSmOexCwIX2CxMzY/6hu5nV87spVHWkAfm88gAIo527F8zetTou83FyRTD3ITNRDgeWR5FjJmO3xxbGVcOxctmwJPlvyaaEu+fwzcqGfYfiIweRGHY0uhTqDi31+tfTgbwcFWL5JHr1c6y1dukQ6S5GcJxB8DobDEGvXrYlVq1aKkS6v4/ZXrvxCOqJIDhzcT+eoL87B+3ag2pFjbHJqMgJ7+YsO5+OrchLz5QrpqCLh7JuvUS6peoX0FAnew4ANCu6JNMohVn25Uhrkxpm5lyiZYoAl5fffj4g6e8SoYSL7Z4O6X3lgsBwfgym745uSA/vbNKL/TrhkaNqsobgJzmo5Hn9LdR53epOmfOPGOpYnCdpTx39N8YqTKM5uOXvlUoKtlM/HsYeBcM03cdL/xEDhAeZI+uqrr1BmXPSvzPhVVp4w4XMWxVjXwmm6TxZ9LK6fr6s8dX7Xbp3F5AfX53zuI0ePCEvlfeTBxzNfbMU8k/SgYAOC/EUteuf2LTpXJxG6uO3GNPDmkcvlaUdum/fZQaWNP+UrfBwPKJ4s+asp0XvJA4Pdtn2rSEbkWNe0RSPK/vZIW+8tGZkZCKcajqEwHI4vE2gkcifyhAR3LIPl1N6hAlkkZas8dxpJtWmnzu0FFIbHN8n7rCTL4he/OAvmjJc7jrezZU2cNIFKk6UEYAHCKct2dCpPnWcjLISvl2em2BJY4hMSyH1HiXZ5ULE7b0b3w8lYRGSYmBkyXq+NyBeCewfiTuwd48wTJU88qPjaOQn7K7CNm9UX+/C99wzsgfh441+4WblyuZhO5aSJyx5ug5PN/gMiRJLFmbI81VilWiV8unghhaR/yRVz4sA/b+QRxBfKy7Dwvn+Z8BSXefM+EiNcTrDatG2JN996Qyxla+hG7nZAdJSAxPvIyh3P56tM7vLlGdPF5ALLzRvXRSfIWbB8TYVJHK3nuVbuJHkbD8rtO4r+lPzFi+cxhCA50cCy5uM46ZPOK7flQGD9/H0odBj/DSk/BOAJEXkfHnj3elNkFyVudepVL9yPwcVSfcrCnmXhovlo3LS+8dpKnJeVz83Aed5dVWLi5Z/kgcDyNNsLkycigFwhJwK9QgKNN3Qfz1pPnTol6ksu0kP6BIrMkK2rVZvmwh0xPM4aebqP4zN3JLtpnvhv2bqZeALEU5LsqorLufNnqaadBDdybRxL6zWoRW6/AWXL7qJD/qC6kZ/O8HmDggOENe7cefeTpuSUZDGPy16lbbvWaNCorpiG5POy+3zn3TcpqSuavODs+O233xAhgdvlKc6SDxdYuGYdOmygiK0BgX4i8Spep+dr80Wt+7+Jz4s5gabNG6E+nZc9D09HsrvftPkbOt+DQWV5ILA8yvhpSFxcHLmUePocf9/pN2e2fFNx8XGiDY4jfNGNCR67KgYbFOxP1p8u9uf5Wn4mum37NpFkJd7jea4sXM+eP38eMbt2YtuOrThIsZtnb+QJDH6dlZ938jXz8q9qwZSUFBw9+rsox7bv2I7f6Lz8W92S04zcbkZGemGbiXQ/7M1KCvcNZ+XyeVPTUu/K2GXhX91fvnyJqgTj/e7aHSMGeMkpygeRB46xj1P4RuRyh8GyBSRQ3LPIo0upgi0+pWgB+3ilVMGy6+QMWE4c+DFffEK8tNUijyKlCvbQod+oBPBDO6rRODvmop8TGYs8upQqWE5qeFaJM2Z+6Yyn2zgRssijS6mCtci/JxawZioWsGYqFrBmKhawZioWsGYqFrBmKhawZioWsGYqFrBmKhawZinA/wFvi792mW/gQAAAAABJRU5ErkJggg==;" vertex="1" parent="1">
          <mxGeometry x="538.73" y="687" width="26" height="26" as="geometry" />
        </mxCell>
        <mxCell id="JmuAxBopoD4e7R5yBPcm-30" value="" style="shape=image;verticalLabelPosition=bottom;labelBackgroundColor=default;verticalAlign=top;aspect=fixed;imageAspect=0;image=data:image/png,iVBORw0KGgoAAAANSUhEUgAAAIYAAACGCAYAAAAYefKRAAAAAXNSR0IArs4c6QAAAARnQU1BAACxjwv8YQUAAAAJcEhZcwAAFxEAABcRAcom8z8AABu3SURBVHhe7V0JeBRVtg4JbqCiMuCIjDof4DzFgRFwPr+njDO4zKd+PsXB7XMZFxDDlrDIpuAoPFxA3BV3FEdBUEdQURTFeS4sCiOiDLIk6TV7SEhIOgvnnf9U3e7qyu0lAe3u8f7h0N1Vt27d5a9zzj11b1UWGRhoYIhhoIUhhoEWhhgGWhhiGGhhiGGghSGGgRaGGAZaGGIYaGGIYaCFIYaBFoYYBloYYhhoYYhhoIUhhoEWhhgGWhhiGGhhiGGghSGGgRaGGAZaGGIYaPEfQYyqqiry+XxUXl5ub/npUVFRIWVAWf4TkLHEWL9+PeXn59PAgQPp2GOPpcMPP5x+8YtfUL9+/WjkyJG0Zs0aO+WPh3/+85+Um5sr58S5UYbu3btLmVA2lDFTkXHE8Pv9dO2111JWVlZCGTp0KBUUFNhHHjjs3LmTLrvsMu053YKyosyZhowixtq1a6lbt27aDoglv/zlL+nzzz+3c9h/rF69WrSC7lyxBGVG2TMJGUWMLVu2SEfrGj+edOnShb766is7l/YDpqNTp07ac8QTmDqUPZOQcaYEDdxWrQHp0aMH/fDDD3YubcfmzZupa9eu2rzjCXyPTCMFkJHOJ0zDYYcdpu2IeNKnTx8KBAJ2LsmjqKiITjzxRG2e8QRl/Oyzz+xcMgsZSQxg+fLllJOTo+2QeIIRQ3V1tZ1LYmAY+tvf/labVzzJzs6mt99+284l85ByYuzjv2b5tNC0r4EaS7fR3oLPqH77JxTybqTG2nJqsfcL9lmpFy58UdspiWTIkCEUCoUkj3ior6+nwYMHa/NIJC+++IKdi6oZSR0a68qpwbeR9u74ROqIujbtq7cSMKSekUNShpQTAw0BqfNtoNKlk8k75xQqnNiJikZnkS83i/xjs6hoeg8qefISql7/EjU1N4SPAx6cN0/bMYlk2LBhdg567GPyXXrppdpjE8m8uQ9IHqqMoZYG2r3hJSpe8D9UeGcP8o3juo3JokKuW+Gkw7jO/0WlyybRXm4DcCINeJFKYljVb6qvpNLX86kwryMVjsiiAJMhwI3mH9eB/HkdKDC2AwWZJN5buTGHZ1FwzgDas+1DOVZh2rRp2g5KJCNGjLBzaI2bb75Ze0wimTp1qp2DhZofPqLAfQPIx+X33mbXLS+bfOM7kC8/m4JMEtSviPcX5XekkqX50iYWUkeRlBCjhf/27WuhOv8W8t7dl/w3c4Px1RPI58bjBsMnSOHPt7+z+MbbnyO5AXOzqXKNdVUqDB9+k7ajEom7I4Hbb79dmzaRDB9+s52Dhco1c6loTA75QQiUf4L1GcR31JMF3328Pcjf/XkW+T2z+lJdYLO0Ef5SgdRoDK4wroW6onXkmXgk+aEl8rgBpcEsARGcorbhM8BXGLRL2ccRcqARLx96uXRQhw4dWnVaPJk7d66dC9H999+vTZNIhl52mZRBoYLLVsgkFsJzxwsp7E+ngCgi8r0j+UYx8blNar1r2fdCK8ED++mREmLA4WyxHciawi+5ww8nPzdIwNYQXhDA1hSxBOp3FxNq95fPSD5AQ0M9nXPOH7Udl0iWLFlCixcv1u5LJOecc444qgBqVb32WSrksgWZFFGdrxHfBEtriBaBXzWhM1UXfmHlJURLjTlJufMJ7Pn+bXbE+GpBw+TnWJpBQwYlPvWd7XXR6Byq/eZ1OyfrTmv//v21HRhPMLyE6PbFE9xAq6xUPgFR7ebX2Xx0FKcZHS8aLo7AjPgm5JCX0xexn4W2SAeknBjNtsLcvWER+Ueis1lrsH/hNiFOcZoVkKkwvxPV7PjUypDh9XrppJNO0nbkgRScw+P12Gdl08hlKBrfmXxJmg98h2/hhaPNGqaa2wBt0ZIi8+FE6jUGmxSlLCvXPEyF7J374amz5w6zEtYOMUTMDzt3hVO6Ur1/o51T+0PnyYo71F3v30RFU7tSECaRzYNTK7hFaZEgj0pQx0IuP+oOSFvYZjaVSAtTooDmqHx3KhWxZw6t4WfVKuRAY9qfTonSHNy4vjtPoIaK7VZmDITO23PTK5G4Q90hPqd/5omWE600gkNDODWFIoV//EFc9mwZplZxnVNPhWikDTHQMHC1ICWvj6Wd3GDBcex3oBFt7RBXMNzjkYpv9qkUqg0iS8E777zT5lFKPEFeK1assHMnauRz+eb0JQ+GpAk0hRIxIfkH0Q4+ppjrCsOROjdTj7TSGKppMJgNvngV+W9BpyOekXikAs0C8SBINv+/qTFUI3kBL77YvtC5Tl4Ih7qZFHyO4ENnS/ANpMDIQkcEJV5bc2Ak4kM5F14ldbWQXjojzYhhQbRHUwMVP3YeeW1yOE1IPIGq9vAxxQsuouaWULi5H3zwQW1Ht0XmzZsneeHqbmwOUfCZi8mLDrY7PJFYIxB2NvmY4sfPo2auY3rRIYI0JYbVXAgNB+8fRF72OYptzZGccOMzOcpfulbyUZg2baq2w5ORKVOm2LlYxC15+VrLUZYIZrRmiCXFGIGM5O8PnEGNXDfkE3G90wtpSQwnGnd7KPC33uThBoU20BMhWoIsgbwsKgI53sy3c7KA+yO6jo8nw4cPt4+2SFHGecp9HZzL1fmxJAhNwc6p/+5eFKryWZmlMdKeGOiIvSXfkXfqcVbDciPrTEgrAUl42AvNUfXBLCszgIeCmCSsI4BOkBZ3WuVQlqpVs8UUgIDwGWAenOailXBZYGoQ6vZNO1bqkp46IhrpTww7zlFbtJYd0CPJyw0MjeDWEk4BKSC4ov1jO4i2Kf/8KStDBsLXf/xj4tA50qhQN1D2xVMy+vDhri/Ipzo+nnAa7xhOO/FIqiuyQt3pEKdIhLQnhhM1W1dyI/P4H7euudGhGXTEUIL9QURRx2bRztE5VL1xcfhqRRj79NNP1xICgrC6M9Rds2kJ7RybQx42UcHx2XoSOERpCi9rraJxB0vZMwkZQwx0KKT669ckmIV7EToyuEUio3kd5QaVZ9whVLst0kFYOaYLnWN+J8LqCjjGm3eoEAyBqUASxJCRCibksPmr+XqxnVPmIKM0Rvhq/79HaBebh2LuKF+C0QpMSpCvcomgshnyTDya9hZtsHMi+m7LFglvK1JIqPvbSKgbaT2TjiEvEwsdLmYswUjENyGbipkUBVzGKi5rJiKjiKEAgpStnEmFPIyVyS3cGYmcUvE38nOsG3XTe1Jd2dYw0b744guZWAxRi5OwD2m804+XULdvQkfr1jhrglhxC2yXfZwOQ9mKd2dKXpmIjCSGQtnSUXJfxdIM2VGawi3ikKJjmRxwRn339KFQdeTO6LKly2jZsqX2L6JQjYe8s/qQByOhCTkSmErkaPphYvg8GMqWvpFr55SZyExi2DPA8H9g4TVWjAPawEEEtyhioOOKWYKIqM4dRKG6MitPB0J7y2Qf5mnitrhoClt0hFDiH9/RmtfJZcJYSjSSY1ZXJiFDiYF/kYlvwfkDZRjrNB06UebGCrHnkPcm7sQnzqdQS7OEuSEN/N3/5PkSVof5wLxMZSaUyYglmBuCsqjlELIwQtiRechQU9LEDW5NZqndsYYKpnenYjiHtnZILKwFMPtrZBY7so+HpxkC+F7x2RNUgHkV7L8kG/KGZinhPAunHytlEkgZuawZiIwkRovdj3W+9bTr9m7iUCZLCmiMwLgOcv+lcvV8KyNGqCFEDQ3WmhWg4pOHZFQB51acShcRdCJmh32SgsndqM5rPRtDlTXTkLHO597yH8h3J48YhBTc0VD5GiLoRG6wLb8jSstfcskldPHFF9u/LAtQvuIO6+6phgQ6sSb2sgOK6OiM46WMmYqMIQY6Sqn8xpogeWefRh44h+IvcEckimdwmmLWFIVMiuLFw6NIMWbMmHAcY9SoUfZW65zFS0bYN8x41JNAc8hkIU4DzYHQufd/T+ORT7GdmWX6MgWZQwzuJTiHodAeCswbTAE2BXAgwyaEO0YI4pKIw5lFHj4m+Mwwat4Xsft33XVXmBRKZsyYYe8FGZsp8OwVYlYwGUfIwYJPtyiTg1GMlx1XmVH24FlU75g0lCnIAGJEZiw0tzRRyVPW5BgvD08DeYhdJNAU+OSOElI8PIRaHJ30+OOPtyKFkscee8xOxedtrCH/o0NEQ1kBrPgOqRXP4FEPk0MIteBiampplLys2jj1VXoi7YnRzFes0hYli64nH5YzMhmUpkhoQiZkyzQ6372nU2NtqZUp4+9//7uWEE5BGoXGulLy3D9AlkgGOE8dIZQo4kBzwNSBlMWLrgsPY7FkIt2R9sTA2k00Y9mb44UUIIIsCOZGjydCCnzyVe6b0ZtClbusDBkffPAedezYUUsGpyDN+++/Zx/FZqxqF3nv6m3dxLPNhjIjTlGmBp+4Ne9lE4Q1qWVv5NnkMMTYD1iNhyusfNXfqAhXvdwM40ZOEP6GSAgb4exJ3ag+EFlvsmHDOjriiMO1RNDJ4Ud0pvXrIg9Wqw9uIu/k7rKk0jcxcYxDzIpNZMRNylbNFO1nwQrSpSPSlBjN7PRZzVf+2QIrniC3vK1OTyicDvEEH1ao7VoTvj7/vW0bHXfccVoCxBM8EO7f/94meSCvmoI1rAU6UwBBMGgGmwRxBemY2AVcrvLPF0heqGO6ao80JYZ1HVVtXEKFo7KpBB2QxL0Q+c6dABIVjs2mPZvflHwAXyBAvXr30XZ8MtKrd2/y+iPP79qz5S0qhPM7zu50nNdJBI1gjSoWOu8ak0OVG+31to6oazohfYjB7YM4hbqCqnesJs/Yw2TJnxqBxItuykNI8CgFzNFgv6J63XNhNV1TU0ODBg3SdnhbZJDj+V3QZziH+BtMjiAPnS2zoSeFNWm4A2saTjeGNcf4w6h6+0eSF+osMZo04kjaEANtop4vUef9iu13F3ngCK5Cp1MZS4Q0rKoRjKr6aG64jRsbm+iC88/XdnR75HzOqzGkhp6s1VbPpQJEOlEGCGsP5YTqRO33jOZjJnWRukpe9h3jdEHaEAPNgoZpKN1OwWk9rCV/MhSNPxyVO6V2GkzcKX/79nAD4/Pqq67SdvD+yFVXXhF2IHGOshWTZWKOkFOGsgmcUi4vlhN4WBsGpx/Pdd4h+ak2SAeknBhyk8mORCJ87JvVV5b8KUcz7DvEkEB+R/7Mkfsfxa/eEu4wIHf0KG3HHgjJdYTOcc7ga7fI8khM6sG8DC0hbAn7Iqw5MH8jyHUOVVvrbfdxW6SD25F6YlCTeBWNDbsp8OCZ1poNR5wikSnBowRACt+zl1FzS0OYGDNnztR26IGUGTOsqXs4Jx5D6XlhqJCjGI6ybTJ0osyJOK2IcfCFEOS6NzZUSV5ok1QjZcRAA+yzu7G5pZ6CT54vt8L9ScQoIMUyV4IJgVD3Q2dTqHGP5AU8/Nij2o5MRtq6Mv7hhyOTfVEG/yODZRmiRD1Z3NrCLUijorPF3AYtzfViTtA2iuSpQEqIoa4KNAC+Fy+6Qe56qk6HJnCSwC2WeWF1zaTw3duPGmoj0/Nee+01bQcmEjxHK5lFSDp59dVX7bMzOWrLyXt/fwqyFvBMxFKDBPdVoDXs71bo/AZpE6ttmuR7KpAiYsDJ4ko31cukWUyjk05HQzkIoBOQBnM2JdR9Zy9qqNwZbrz3338/qVC3W37zm9/IMBTD2lNOOUWbJp7gnCv53AA6FOH3or/1ogBMBMyG3fFxxSYINGDpG6OkbeBvpGqskhpTIvEKourv3qNdN3KD8NBNNIA8RccWFyGEFPDm2YTIszCn96S9gU3hZlu3bq28YUjXcfHk+OOPpx07dti5EO3atYt+9atfadPGE5x77bp1kgfKVFu8ibx39LQnFFv3S3R3Za05HNY+P+aYjsmiXTdncdustOqWIk80ZRqjha+G5sa9VLH6XvKPOdiauzAOBLCGn04HU5mWEvbgoV0CcwdRfelWOzeS103gnSC6DtOJ8iOOPPJI7XtM/vWvf9ExxxzT6rhEgjI4X31RX7aV/PMGUQHqZi+rVI6nEnmICnwM1JN9E9+4g6ni43ulbSxT8rMjBm4gWUagtnAt+RdcTJ4x2dY6ETQkglu4CcaNhZEK4gTeO3tS1ao51MQOmkIw4Kc+vXtrOyqeHHzwwfTRR1bkUYdPP/20Xa++6M1lCfgjjzloYpOAMntn9pSHsEGDyGOxR0Xqh7p58nLIt+Ai2lO0TqiAttnHbfTzMiUMq/KWKNR6vqLyVbOo9LlhFJx/FgXnnUmlj51LZYtzqXrjEmqqr7BTWti9u1rC1LoOSiSvvx55Nmgs4LUS7Xl+18ABA6iay+ZEM5cddShZkkulj58rdSt++Gwqe34YlX84W+quoGubnxopI4YbaATlRKrvENVA7pF9KNQo4WldxySSp56KPBIhERYuXKjNI5Gcd955UkYn8EvVC7EbVT/A+T0dkEbEwK0kqM4IGSzA7PBHC/ZEcOWV7Qt1z5rleIhKkmjv87uuvPJKOwcL+7gO1i1Cq3aqnhZRYFojtU410oYYbcFtt92m7YhEkpeXZ+fQdkyfPl2bZyJBWTMRGUUMPF2nvaHu6667zs6l/WgvIVFm9bimTEFGEWPlypXahk8keHluU9OBuf9wzTXXaM+RSN57LzJ3NBOQUcRAdBIqvS0jBZiPFpd/sr+YMGGC9lyxBGVuywv60gEZ6WPg4SbQAoceeqi2IxCi/vOf/xw3TrG/+PDDD2VUFOtNjigbyngg3xL9UyIjiaGwfft2eumll+iOO+6g0aNHy2usnnvuOfr+++/tFD8+vvvuO3r22Wfl3CgDyvLyyy9L2TIZGU0Mgx8PhhgGWhhiGGhhiGGghSGGgRaGGAZaGGIYaGGIYaCFIYaBFoYYBloYYhhoYYhhoIUhhoEWhhgGWrSJGB9//DE98sgj9Oijj8YU7F+0aBEFg5HXaAOBQICefPLJuMdjH9J8+eWX9lHRKCgooBdeeIEeeugh7bH4XLZsGe3du9c+wgImybz55pv0zDPP0DfffGNv1QMv8kc65FNVVRWekrdp06bweZ544omod7u7gWPefffdqPQeT+TdKADa55VXXonZHtiOdbgVFdFLJlA3zAZ7+umn5QU88aDaC2tri4vtJxQniaSJgaV72dnZ2kkpOsGqLExmUbjiiiu06WIJHuPsnCe5ZMkS6tKlizatW/r16yflBZqbm+miiy4K78MkHsz61gGdcdBBB4XTDhkyRGZ/4U2KJ5xwQni7kpEjR9pHRoD1r1g64E6LMihgMVOPHj1apdEJ3s+2YUPkVV2Y8+Hcj9lkOoDYzvbC+lyULVkkTYx169ZFFSgZQeV3794tx5911lnaNPFErSLHi+vauirswgsvlGOBNWvWyHJE5/4FC6wn5yk8//zzUfs7depEq1atkn2lpaV0xBFHRO1XgivSiXHjxmnTDRgwQPbX1dVpX9AXT0499dTwaz6h0dwkxdRBJz744IMogkMwoaktE5KTJgbWeDpPhJfKYUEwHo+oBL/d0+3U9Lo//elP4W1odN2xzpfWQa6++mo5FgRxbncfDwJCnNPsOnfuHKU+ob3cjbV0qfWqq3/84x9R80ihGd955x3ZB4AYRx99dHj/IYccEv6OKxFaCfD7/VEEdqb7/e9/L2lgJtU2lcbdFqgLllA602E9rcLmzZupa9euUfuVFkQ/uUnclgVWCu0mBmxsbW2tqCcl+A22Ok0OlvkBTmLcdNNNcuW4j4U9dWqWSy+9VI7F1Dm1DavKv/7666hz79mzR37Pnz8/nA4NDhvrBMyR2g8BwebMmdNKm2D1mRNuYsDk/O53vwv/BrEA59IGkHrSpEnh34oYuFDUNpARvoiuHUFalQ7i9ifQ/ii/Mw0WU/36179uta09aDcxwFodcNU4r8wVK1bIdicx4D/Ewl//+tdwOkymBZxqHg9jdb5wxgk8H0Olg+YqLCy090SAq0el0YnO/3ATA9rHSdYLLrhAiI4rX23DFT579uzwb0UMOPBqGy6goqIi2e7G1q1bw+kgOod8+fLlcWfM788Cq3YTw7nc3wk0opMYKDzgJAaW7m3bti1KkB9GDM4rUWkMJzG6d+8e9lvcgHZS6WIRA7jvvvtaqWqU+e6777ZTRMNNDFzNsPlHHXWU/Ib5uMrxdEDlTziXGcQiBuquA0ZBKh0k1kgNIxu36QBZbr31VjtF+9BuYuCVDrhycJUqwW80rpPFylY7iYEGwegAn0p00/CnTZsmxx5oYmD46n6eBmx2WVnrNyoCbmJgOA7k5+dH5RFv/49FDOC0006LSgvSw9zuD9pNjGQEV6EavzuJkYzgqTZ4xTaQLDGgnVS6WMSAyo81QjrjjDO0ebuJgasUwBIBt0OL4aUaQewPMWCKVDpILGIMGzYsKp0S+BpuH6st+FGJMW/ePPvoaGLg6oS6heDF++hstQ+Ndcstt4TjEICbGLGGXRheqnQ6YmD0gPeeqTQQjF6cvxG7CIVC9hEWYmkMwGlCIA888IC9JzExoCUR+NMBpFPpIDpiuNfSuof0ffv2jakFE6HdxEBHI2j1l7/8JSyXX345DR06lIYPHy7rTJ1wEgP7ncCiHfX8LJghRD+dcDp6MEEYSbz11lsSxIG88cYbIvBdVDrdqOT6668P74cMHDiQvv3221YaBPVywk0MxAQUnPEdPJ6pvLzc3hMd01DEWL16dXgbZOLEiRKVRflVXfAb72ZzpnOvaMPCJud+OL7QMhgNObejbtCSbUW7iAH1iXBxW+Akxj333GNvjQBhaLUfnb9+vfV6SqA9i5mhWTD0U3D7A1C1yswhPH3yySdH7Xc+vsBNjE8++cTeY+EPf/iDbMc5nHA+V0MRwz3aSEZwsezcuVOOB5zDcgginMqngBlT5VGCN0SqWEuySJoYCMuqE40YMcLemjwGDx4sx6KBYzmFzrB5nz59pEMAVBb2X+1LRvASPAAh7cmTJ0ft69atm2gpJ6C63WFqFZaHFlAxg7PPPruVqQFRzj333FYaCj6SMpMwmQrQrs7zJJIbbrjBPrL1e9xwkcI8OYF4UP/+/aPSYYSnfJ9k0CaNgYYbO3ZszDhCPCBEfeaZZ4rqjQWovNzcXGlM2EtoEQU0MoiD6Cj8Apget2A7nD/n8yhwpeB3z5495crCQ17h8esAsuA+B9JBNU+ZMkWIBWIgX5y/pKTETp0cMAQHmfCAWVUmaDIMJzEyilUXEBHtjXsjTlOAG3K9evWSISpeteG8H+UE4kkgIC5EtOeNN97YJpOSNDFAhvYu5UeDVFZW2r8SA2YK2sJ9ZQK4GnDvBBV3CogDcVdedQaio+47vrGAUDrSK+DZGm01nW6g/qosChgBxaoLtjtNIaCOR7vEclrdQDu2p+xJE8Pg5wVDDAMtDDEMtDDEMNDCEMNAC0MMAy0MMQy0MMQw0MIQw0ALQwwDLQwxDLQwxDDQwhDDQAtDDAMtDDEMtDDEMNDCEMNAC0MMAy0MMQy0MMQw0MIQw0ADov8HWPtdXRZXjQsAAAAASUVORK5CYII=;" vertex="1" parent="1">
          <mxGeometry x="438.73" y="665" width="22" height="22" as="geometry" />
        </mxCell>
        <mxCell id="JmuAxBopoD4e7R5yBPcm-31" value="" style="shape=image;verticalLabelPosition=bottom;labelBackgroundColor=default;verticalAlign=top;aspect=fixed;imageAspect=0;image=data:image/png,iVBORw0KGgoAAAANSUhEUgAAAgAAAAEACAYAAADFkM5nAAA1dElEQVR42u3deXgb1bk/8O87kpfsJCHRaCQgQFiKgQJJ2OEGCEsIYQ0EQkISoJSttPS20Av30uVeKBRKLy1bf2UnCwFCQsK+lXLZWtYAYQ1gEns0irNA4iy2pXl/fziBYMv2yJZ0JPv7eR7aB83R8XsGW3M08573AERERERERERERERERERERERERERERERERERERERERERERERERERERERERERERERERERERERERERERERERERERERERERERERERERERERERERERERERERERERERERERERERERERERERERERERERERERERERERERERERERERERERERERERERERERERERERERERERERERERERERERERERERERERERERERERERERERERERERERERERERERERERERERERERERERERERERERES0iZgOoDtzHKc3gMEiMhhIDVaFiC8Dt2zji6RE/LWqVqOqrqxIpVb1jURWLl68uNF0/ERE1H1xAtBFtm0PsSz9oai1h4ruCGAYFNsDGAagdxe6XgWgWoBqH6gG5JOQ7y9q8P3FdXV19abHTUREpY0TgCzE4/Fe6XR6FOAfJCIHQjESgF3gMHwovoDoP6HyqhX2X66pWb4YQNr0+SEiotLBCUAHIpHI7iGRsbBwDBQHAyg3HVNr+jVEngX0qVAo/dSyZStc0xEREVFx4wQgg2g0OkJEJ0JxKppv5ZcSVeANS/GgWtZDrusuNR0QEREVH04ANonH4zFNp6er6lQIhpuOJ0cU0FchuCudxpxkMrnOdEBERFQcevoEQGzbPsYCzodgHICQ6YDyaI1CZ4dCemtNzfL3TAdDRERm9cgJQFVVVfnXK1eeroLLAFSZjqfw9BUIrnPd5GMA1HQ0RERUeD1qAhCPx3tpOn2+Qi8HEDEdj3myCOL/2nWTC8CJABFRj9IjJgBVVVXlq1eu/BGAKyBwTMdThN70FVd5nvek6UCIiKgwuv0EwHEiY6ByE4DdTMdS9AQvWJZ/KXMEiIi6v247AYhGoz8Q4CZAjzQdS4lJQfDXcLj8v5YuXbradDBERJQf3S7rfQRQJo79SwEeALCz6XhKkAVgX99PT+vft+/ytfX1i0wHREREudet7gDEbXtfFdypwO6mY+k+dH5Tyr+grq7OMx0JERHljmU6gBwJOY59uS/4P178c01OLAuH3nOcyPGmIyEiotwp+TsAtm0Ps0RnAHKQ6Vi6OwVuD4XCP6+pqdlgOhYiIuqakp4AxGz7MBU8AGCo6Vh6DlmU9v2Tk8nkF6YjISKizivVRwDiOPblKngWvPgXmP4wZMk7jhM5wXQkRETUeSW3CmDYsGGVvXtXzoLipyjdCUypqwDktP79+q1dW1//uulgiIgoeyU1AYjH44NSTY2PAxhrOhaCADi6X78+sbX1654E4JsOiIiIgiuZHIBIJLJDSOTpbrRVb/ehWGCFw6czOZCIqHSUxATAcZxdoP5zAOKmY6E2vdTYlDpuxYoVa00HQkREHSv6CYBt27tZFp6DImo6FmqfAG/ACo2tra1daToWIiJqX1FPACKRyO4hS14EMNh0LBSMAv9qakqN4Z0AIqLiVrQTgHh8yHDfD73Eb/6lSF5N+/5RyWRynelIiIgos6JcRuc4zrZ+OvQCL/6lSg8MWfLwCKDMdCRERJRZ0S0DHDRoUP+wZT0L4U5+JW54fb9+w9fW1z9iOhAiImqtqCYAI4CyjVtt9SgEB5qOhXJij359+/pr6+v/YToQIiL6vqKaAEg0+ldATzUdB+WQYHS//n0+Xbt23QemQyEiou8UTRJgLBo9X6G3mY6D8mIDxDrYdd23TQdCRETNimICEI9E9vMt+QeACtOxFFLfvn2xbt06qKrpUAqhWqzQSNYIICIqDsZXAcTj8UG+JQ+hh1z8HcfBdX+4Hh9+9DE++fQzfP7Fl5g1+wGMHDnKdGj5Nkx9/07TQRARUTPjOQB9e/e+u6ck/e2yyy6YN28+DjjwQFRWVgIAwuEwhg0bhgkTJuCTTz7GkiVLTIeZT7v27dfPq6+vf8t0IEREPZ3RRwCOY0+H4i7TJ6EQLMvCwoWPYa+9926zzTfffIODDzoQq1atMh1uPq2HWCNc1/3YdCBERD2ZsUcA0Wh0OyhuMn0CCmXs2LHtXvwBYMCAAfjReeeZDjXfekP9+wGETQdCRNSTGZsAiOpfAPQzfQIKZdq06YHanXnmZFRUdPt0iJGObf/MdBBERD2ZkQlANBqdDMF404MvlJ122gkHHBgszWHw4MEYN26c6ZDzT/DbbYYO3dF0GEREPVXBJwDxeHyQQP9keuCFNHXaNIgET7eYOm2a6ZALoXc6ZN1iOggiop6q4BMAP5X6DYCtTQ+8UPr06YMJp0zI6j0jR47CHnvsYTr0QjjacSLHmw6CiKgnKugEIBqN/gAWzjc96EI6+ZRT0K9//6zfN3nKWaZDLxC5cfjw4d0+6YGIqNgUdAJgQf8I7VlbxE6dOrVT7zvllFMwYMAA0+Hnn2LHDfX1F5sOg4iopynYBMBxnIMUGGt6wIW033774Qc/2K1T7+3VqxdOPfU000MoCBX8x6BBg7K/TUJERJ1WsAmAqv8/pgdbaF1N5ps2PbvkwRI2uFdFxSWmgyAi6kkKMgGIxSJHCDDa9GALafDgwRg79tgu9bH99jvgoIMONj2UglDoz4cNG7aV6TiIiHqKgkwAVOUK0wMttMlTpqC8vLzL/fSQJYEAMLChYcMFpoMgIuop8n5/OR4fuqeftt4txM8qFqFQCK++9jri8XiX+0qn0zjwgP1RU1NjeliFkCyvqBxWXV290XQgRETdXd7vAGhafokedPEHgKOOOionF3+geTJxxhmTTA+pUCKNjRvPMB0EEVFPkNcJwJAhQ2wVmWh6kIV2VsClf4sWLQrUbtKZZ6KsrIesnvTxM9MhEBH1BHmdAITD1vSetu5/++13wCGHHBqo7WW//AU++eSTDtsNHTq0ywmFJUOwZ9y29zUdBhFRd5fPCYCIytmmB1hoQZfuvf3WW/jggw8we9bMQP32oGRA+CI/Mh0DEVF3l7cJQCwSOQyC4aYHWEjZFO+ZObP5wj9nzhxs2LChw/b7778/dv3BD0wPsUD09CFDhvQ1HQURUXeWtwmAikw2PbhCC1q+d+2aNViw4FEAwJo1a7BwwYJA/U89q3NlhUtQ37Iyi5sEERHlUV4mACOAMghOMD24Qgu6gc8jjzyC9evXf/vv98+4P9D7TpkwAf369TM9zMLwe17yKBF1DyOAslK4ixnOR6deJHI0gEGmB1dI2WzhO6vFc//N+QC77757u+/r06cPTpkwAffcfbfp4eaf4Jhtt9124NKlS1ebDoWIaEuxWCzu+/6/Af6uIrIzVHeGylAIegEYkACsMgBO1G5+g+AbKNYCqAOQFKBOBV+Ijy98kS9DodDimpqaVYUeR14mACpycqEHYlrQJL133n4bH3zwQavXZ86cgd///toO3z9t2nTce889UFXTQ8638qampmMBBMuSJACwYrHYnpJOlyMcfr+mpqbj5JISFolEhoaBHXzLigEYZAEhFd30DE43qFobLdXVavlf+75Vm0qllq1YsWKt6bi7attttx2YSjUcqmpFOtuHiP+NqvW15fvfSFnZp4W8+DjR6B2AtrpGiGJKrec9Xqg4shWLxXb2/dRZAoxTP71Xc6q3ALrp/9vL/VYMADAAQLz5X5v/RwUQKPx0Ck7UXgbBIt/HDZ7n/aMQY8rHBEAAHF2I4IvF4MGDMW7cuEBtNyf/tTT34Ydx5ZX/ib59279rtNNOO2H/Aw7Aa6++anrYeWfBPwZFPAGIRqM/EOifAOwG6JuhcPriZctWuCZiicVigzWdXqh++gAVAH4qYdv2GM/zPszzOThZoK1KfYuvv6lNJh/L5c9yHGcfIH0UfBkDwX4A+iqaP0CB7z5UN0UAgUIFgFqwBCgvC8OJ2muh+BLARwIsBvCRhNPv1tTULeniedhOoO+0OiD4xHW9A3J1DmzbHpVqalwISETQhS8Buun8WAJNp+BEo58J/H/Cx5zaZPJJAOlcxdz6Z2sfCAa2fNkX6Xrt9DywbXuYZeEP6qdPEUg+V85tA8U2ISDYM+EcyPkEwHGcvaC+U6gBFIMzz5yMioqKDtvV19dj4cLMCX/r1q3D/PnzMXlyx7mT06ZO6xETAIUcg+Y8Fd90LC3F4/Fefjr1NIBtml+RbdKpsgiAg4wE5Keugch3FxpF1BLMGzRo0KhVq1atyeNPHgJgRKtXRQbnqH8rGo2eAOivoP6+HX7T6lg/CPYEsOfmy6emQ3AcOwEfL6nIQ4lEYm62nfq+b4UsaXVRgyKn21xbwB0AOv3Nv226k0J2goXJTtSugej1rpu8BfmcCJQAx4lMguJ2KAqWfOWLfFGon5Xz2Yxq+phCBV8MQqEQJp15ZqC2j8ydi/r6+jaP33vPPYH6OWbsWNi2bXrohbB13LZHmg4iE02lTsW3F/9vXz0wGo0eYiQeyOgML+9cWVl+h4l4csFxnG2cqP2iQB8RIL/FoRRRCCZa8I8yPe62DBo0qD8EwRKNuiYOlZscx34lFovtbHrcpjhO5BKozAAKd/EHgFAoVLoTAIF1WKGCLwZjxhyJbbbZJlDbWR0U/fnww8V49513OuwnHA4HnnSUOt9CUf4+qeh5mV4X4HwzAaFvG6+f6jiRnxiJqQts2x4G9V8FUNgJlcq7psfelnA43AuF3FdFsZ/66X84jrOr6bEXWjQaPQYqf0JHT/YF70NxM0QvEV/HW4r9FDIylPaHK2Q3hYxUyEhRHK6QCQo5TyD/qdC/AngawKcAGrbo8utC5mPk+hFACKL7duXRVKkJWvf/3Xfewfvvv99hu/vvvx977b13h+2mTJ6CP//5z0g1NZk+BfnlG7ql3g7btqvQ5q1+PcW27Z95nldnOs7vQpIb4rb9zxrP+5fpUIIYAZQlROcBEnRHrQ0AlkPxDQSb/iAkLNB+KugFxVYAegU6VZYfbIOO4rIOgieyeYMq+ohi4KY7Cu0lHtmA/4LjOHu6rrvC9EALYdiwYZWNDRtvR9tfkNdCcauEQjfX1tbmYptWKxaLOb7vby+iA7veXXA5nQDEYrE91E93XAmnm9hu2DAcemiwuv9tJf+1NH/+PFz16193WFBoaCSCo48+Go8/ltM8q+IjOBDNs/CimVaGRH6kbYdTYVk4G8B1puPcQrkveDAej+9jYqlRtjzbPhfAXu00WSyQ2VB9VcLhRUHGtMPAgQM2VFY6lqrtiwwX0Z3hYxcRVCmww6ZmflOTvmd6/J1Q57pesBKkrYUcZ+h+onKBQs5Epm+8iijUvw7AOaYHWgiNjRsmAbJd5qOyyAqlJnQ1abQFf9NEouB7vuf2DoDv71/oAZg0beo0WFbHT1HWrVv3beW/jmzcuBFz5z6Ms8/u+G9t2tRp3X8CAAx2HGcX13U/Nh0I8O23gynttRHFeQCuR3ElL27n+6l7ARyPIppMZaIWLmgjwjUQvcB1k7Oy7fOL1au/AfANgI8A/H3LY47jbG35/r6+pcPr6urqs+27xKVdd/mrAF6N2/advmAuMtVwEUy3bfuP+V5VUhTUOqONPxGvKZU6pi5R55kOMVdynAPgd3zvupuorKzEaRODFavrKPmvpfvuvTfQOv8DDzoIu+7aEx7PpfcyHcFmDQ0Np6CDIlcK7GDbdvEthVUc5zj2ZabDaM+QIUNsaOZEN1FM6szFvyOu666o8bwnXDf5Z9PjN6nG814Uyz8OmTP/xbLQ2bsMpSQE6MGZDijkqrq67nPxB3I8AVCRPU0PqFBOOulkbLXVVoHazpw5I6u+P/vsM7zxxhuB2p4ZYNlgqRO1CpH5HCwWZEz+a/VN3zKVDNgRxf9Eo9Fgz60MqLCsNm+9FnORmO6itnb5a4DelfGgotvvz7HN0KHDAFS2OiBoamhomGM6vlzL5QTAgmL3rndTGqacFazu/6JFiwIl/7U04/77ArU77bSJ3X5/AFUtigmA4zi7IFNWuuC/M7w2znGcYMtDCissqrOHDh2ah7XkXZe2rIw1RAR+9n9E1DkSauvDZ0fToeVbKhTKnISncPNcT8OInE0AbNveFu1nk3Yb+4wYgR/+8IeB2s4MuNFPSwsXLsTKlSs7bNe3b1+ceNJJpk9JXomgynQMzfwfoWWSlOB91/V+B6C6RePQpvYmrcP3lhh9G7MTtqyZzTEWFxE/YzU4LeTytx6uvLz8TWR+CN6/FDa46YqQahvXRO2We5LkbAIQUt2h672UhqlTpwVqt27dOjz6aLDkv5YaGxvx8EMPBWo7ffrZpk9JXimwLfK0b0VQw4cPr4Aiw5pPvQOAL5A7M7zt3BFAmcGw60RxacYjgiMcx77KYGwZWb4kMx+RvUzH1lNUV1dvRPPksZVevXqZ/H3OuybVNpY6StR0bPmQswmAhjDM9GAKYdCgQRg/fnygto888khWyX8t3XtfsGTAXXbZBfvum99CaYaFbdsOuiY8L9avX3sSgK1bvLzRsspmAIAVbroLQOp7RxVRz7ZPNBl3refdBkjmxDnFfzqOU1SV70Kp1CfI/O2zqthi7a7i8XgvZL6bu3Hp0qXfmI4vn5LJZDUEmcYYiUciRfEoMpdymAPQ1rrJ7uWMMyYFqvsPALOyTP5r6avqarzyysuB2gbdjbBUhWF6gikZbufr3M1r0Js3AdJWazIV+LHZuIGmVOrHaF7+1pIF9WfEYjGjk6stfbViRUKBNjJg/Xt6YlW6QvN9f0TmI/oWimtpa16GDx9PZjwQkp+bDi7XcjcB8FE0HyL5YlkWJk+ZEqjthx8uxnvvdb2myP33B8shOG7ccYhEuu/+AGkRYwl18fiQ4dDWJYktlTta/PvfWr1ZcPim5EFj6urq6n3Fqch8W3eI+qkHDD+qaEFuzvhyc0Gal23bHms6wu5MNJ35Q05lvunYCsEHbs88fkx1HOdE0/HlUi5XAQwxPZh8O/yII7DtttsGaht0Y5+OPPXUU0gmO156Gi4rw+lnnG7y9OSV1fr2e8H4qVDr5D/g05oWe3bXeN5TAL5q0U5U08bvAniet1gUF2Y+KgclHPsa0zFulkgkZgDS1naXgy3BE45t32Xbdrf/zCk0x3H2UUimpKJ6H7jXdHyF4HnePyDItORUoP4DjhMJVgCmBORuApC77T+LViGS/1pKNTVhzpxgy08nT56CcNhorlze+PCN/H5VVVWVQzIk/wnuROtn1b4o7mzdVKZteq5qVK3n3Qfo3zIeVPy740ROMB3j5misUOg0tJ5MfUcw3RIscZzIr4rh3HYHkUhkB2h6ATIk3Ark2qLa3yLPQqHUeQAyJaRWQOWBaNR+KBaL7WU6zq7K4dVCu/UEYLvttsPo0aMDtf3ggw+wbt26QG2DmDVzJi6++Ccdlh12HAdjxozBU089ZfJU5YmZCebXK1ceD2mx/7qgKZXyM34bknD4Lk2nrsL3/7YGaio1EcA9JsawpfKKXpc0NmwYlSGrXqBydyQSGZFMJr80HWdNTU2t4zhHQ/2n0Hb+R3+o/N5Pp37mOPaNjY2p21asWLHWdOwlKBSz7ckq+r+AbJXh+Eu1iUQx7W2Rd8uWrXAdxzkWmn4+0zkRYIL66QmOY78Plb8r8CWAFZZqQ5D+1fJrXXf5azBcljt3EwBFv+68Uvess6YGqvsPAPvttx/uu38GLr7oQnz99ddd/tnLli3Diy++iMMPP7zDtlOnTeuWEwCB9Dfxc1XkvJZ/o6JYsHz58ozL1WpqamqdaPRxQL/3bVotnI8imABUV1dvjMeHnOr7oTehaLnj1MCQJQ8NHz78oCVLlgT6IMsn13U/cRxnFOA/mCkHYwsRKK4rLwtf7tj2TeWVlX+urq7+2nT8BRSORCJZLcMuA4b4IdiAHCyKk5s3RMrwAa54zwqHT0LLFS49gOu6b9u2fbAlWAhg+4yNFHsAusfmM6dBr4FqwbHtBa7nnQSDiZU5fASAYKnxJaiyshITT8/u+fphhx2GZ559DnvttVdOYpgRMBnwkEMOxY47dr+CXQIt+O9X84eqHtHydR/fT/5rFatmuM2u2M9xnH0KPYZMamrqlqjKOcj87WPE+vX1N5qOcTPXdVe4rncUFL8EsL6D5oMg+G1jw8avYtHo1T0oRyAesuTzbP7xLXkdKvOh+MUWuyF+jwBPVjY0HFoKO0jmi+d5i8srKvcR4IOcdy44PhqNHmlyfLlMAizvehfF6fgTTsDAgdlv0xyLxfDIvPk4/fQzuhzDc889i5qajneLFBFMOWtqgB5LixqYYIYt6xy0/hv5KpFIPNPe+2qbkwGXth5Eumj2B0gkEnMFelPGg4oLHSfS9V/a3Em5nndD2tc9FIH2ve+v0CsswZfRaOTGeDweMz2AEvRxWvGLTbso9liOM/TIpoaN/6fIW5l7Y8nNACcAgQRN/sukoqICf7zxRlz3h+tRVtb5lVbpdBpz5jwQqO3EiRPRu3fvQp+m/FIt9O9XWEWnt44Dd6HjW3ZpZEgGBGTSDgMHDkCR2GrQ1pdD8HrGgyp/LbY198lk8otEwhsnvh4B4M0Ab+kjkEv9dOrzWDTy12xvk/dwu1qCxU40+kw8PrTHbPK2Bctx7Bug1tN5vPivTqfTzxkdZA776pYZALvvvntObuNPnjwZDz08F0Mjnd+DZcaMGUg1NXXYrn///jjxxG62P4BKQevWR6PR8VC0Kv8prWv+ZyShUOvKgECfjb0qghWSKIDFixc3AtZEAJk2negn6j/kOE7RzSRrk8kX3IS3ryhOhSJIsY0KhZwXCsnHjmPfMmTIkO5bMCPn9Eg/bb0djUb+A930Mz4DiUbtu6H49wBjXgfB5wDeyuKfNwGZZfn6b23lEhVKLteMNaAb3gU455xzc9bXqFGj8Nxzz+P883+MV195Jev3L08m8dzzz+OYY47psO30s6dj1qyZBT1X+aSCgialWdAfZXpAroK7otFILJFIXot2Mnhra2trHNt+AtJiC1XF+QBuRpFwXXepbdtTLMFjaPGFoPmbj38rgGmm48xAaz3vYQBzHSdyPFT+C8CI9t+BMgAXloVDZzmOfaNlha+tqanZYHogOZCSTI+cAlJBLwBbbzo/mYQEco3j2Du7rnc2DGeu55vj2JdB0d52rx9BcVda9alkMvkRgLTpmDsrl3cAGk0PJtcGDBiA8cfndgvswYMHY/bsB3DRRRd36v1BtwnebbcqjBgxMu/nqFAEwZbX5EI0Gt1OgaPbOBwSyDXRqP1gRzujZUwGBKqi0eihhRpLEJ7nPSmQazMeVEx1nMg5pmNsh7pu8lE34Y20FOOgeC3Ae/pCcZWfSr3nOJExpgeQAzW1CW/Hzv7jup5TXl7ZX3w9AoJ7IMh8m1ExzbHta7OMraTE40N2guJ3bRxeB8XFbsLb3fW8G5LJ5Aco4Ys/kMsJgBb2G1ohnDFpEnr1yn2NkXA4jCuuvBI333JL1v2/+OKLqK4Otky7W+0PoFKw3y8RzZT89/02wITycOi1eHzI8Lba1CaTTwJYluG9RZMM+G2sicRVCryY8aDKX0rhOXCN5z3het6BYumYNseyJcFwqDwTi0b/F4Z3mzSturp6Y20y+YLretN9H3sj894RgOAXtm3/m+l488VPW79G5jvZ9RDrGNfzbkE32g8hl8sA15geTC5ZloUpAev+19fXY/78eVn/jJNOOhmPLlgYuLwwAKgqZs+aHajt+PHjMXhw96jPpKKFykYOQzXQ/soK7O6nQ/+KRqNtPZNpIxlQT45EIkMLNJ6g0qlU+gwAmepO9/LT1kODBg0yUoshW7W1yecTCe8wiHUIgKc7aC4K/anj2M8UU4KmSZ7nLRYrdAiATzMctizBDaZjzIfm//5ySsaDistd1w22M1sJyeEjAF3Z9T6Kx+jRozFs2PaB2s6bNw8XXXghLr/sl4GS9LZUVVWFJ596Gocddljg98yePQuNjR0/cSkvL8cZZ0wq7InLEwtWQX6/HCcyFpCWy8ZUID9H5s10Bgr0sbaSpCQUuhOtbxNWhEIINMkopLq6Os9SnIHMtzV3rqwsvyPbPk1yXfdlN+EdA7EObmdvgWaKwzb2qnikqqqq2+UxdUZtbe1KhZyJzM/7RzqOc7DpGHNtY6/yQwFUtjqgcF3Puz37HotfDh8BSLeaAGSz9G/ztr8zZszA6adPxMqV2Z2KrbbaCvfPmIkrrrwyULXBlStX4umA1f7OmjoVoVBBE+jzpUC/X3Jeq5cUL9QmEn8Syz8ImVcBtJkXUFtbWwPJsL2oynnIbQ5OTtR43osKvSrjQcWpjhP5iekYs+W67ituInGQKCZCkGizoeLw1StX/rfpeItFIpF4E9JG3QXfP850fDnny96ZXlbBAnSj2/5byuUH0ArTg8mVWCyGwwKU3QWAxYu/v+3va6+9hvHjj8PHH30U6P2biQguuuhi3HPPvejfv+M7rffPCFYZMBaL4fDDjwjUtqhp/u8wxWKxOBStt5q1mpP5amuXL/IV+wJ4KdP7284L0P+Xofn2tm23lWhoVCKRvFaQeU90qNwQt+19TcfYGbWe92B5eeVuEDzUZiPBJY7jGNt6utioSuZdzQQHmo4tDzJWjhSB8b0x8iV3EwALHZepKxFTp00L/K35vnvvafXaV9XVOP748Xj8scey/tlHjBmDJ558Ervu2n4NlldefhmffvppoD67RTKg6rKud9LBj0inzwbQ8j/8it69+83f/C+e59UNHDT4SMl8Uf82L2DLPetdN/kE0PrvwyrCZMBNfFihKci8tKzcF8yJx+ODTAfZGdXV1V+7rjcRgj+20aRSVCeYjrOIfJLx1Qw1MkqdSs9LBM1lDsBXXe/DvPLyckycGKzuf3vb/q5btw4//vF5uObqq+H72d092n77HbBg4WMdLkGcPXtWoP5Gjx6NHXYo7SJoqYAFeLogBEGr5W4Kvb/lxjiLFy9urE0kfwzFxci8ScpAS7BlXkB60/bB3ycY5zhO8AzQAqqtrV0pvk5sY0nYMN9P3YvSLQyjrutdBsELGQ+qjjYdYBHJvK2pZHhWXuJE20xk3850bPmSswmApPP+AV0Qxx9/PLbeOlh55nnz5mHt2rZ3H1VV3HLLzZg69SysWZPdIok+ffrg9tv/iuv+cD3CbZQQfmD2bGzY0HEdExHBmWdOLuBZzLl0PJnM6x2AePPt+FYXY9W2N/5xPe8W8fVoZM5PsL6fF2BlSgYMqaZ/VIDz1ym1yeTrqnJZxoOK4xzHvizLLouJL2n9U8YjAsd0cMXCUs1YNVEB13RsuaYin2d6XRSjTMeWLzmbAKRFvjA9mFzoTPJfR154/nkcO3YsPvvss6zjmTx5MubMeRBDh7ZeNbZmzRo8/vjjgfrJV02DAln2FpDd8oos+aIZLsT6iud5H7b3vtpk8oW0r/u2tVvY5rwAy2qqgOCp1sfl3BFA5zeJyLNEInGTAHMzHlT8j8A/xHSMnWWptpWoUxLLHQtBLeyX6XUL3eeR7xbeyngOgFGlmvfSkZxNADzP+woo7VoAVVVV2GfEiEBtP/xwMRYtWhS47y+//ALHjTsWTz8dLHt/S/vvvz+efOrpjLEFrQw4YMAAHH/8CYHaFh3Jw1acW9hmm60dQFplNYtKoGVvyWTyi4am1IFQLMh0fHNegCoy3cWwPds+MZ/j6yKt2NhwDhRLMhwLo3mpWElKhUJtbfFZ0p9jORSC4tRMB1Twd9PB5VoikXinrVUiacFf4vF4yX6DaksuVwEoFItND6grpp8dfGn2vffem3X/9fX1OOfss3HN1VdDNbty2rZtY+7cR3Duud//ovrGG29g8eJgp/3sc4q5omvbROX9fPbvp8qmo2UlOME3alkPBu1jxYoVa13PO0kg1yDz2umBbVUAVKtokwEBAF+sXv2NhEKnAthoOpZcstoq95x5stPjOE5kGoBM2ci+ZYWzr3xW/HwAGSf9Auzrp9Ozt956636mg8ylnK5DVtEgO3MVpf79++OEE04M1HbdunV4dP78Tv2czXkBF1xwPtavX5/Ve8vLy/Hb3/0ON/35L6is/C4HZ/asYMmAudrZsNBU/HxOACyFZpoZzXJdN7v/QIBfm0hcCdFJAIJvMqM4rNi23m2ptrb2XYVcYjqOXHEcZxuF/rSNw92u4lu24pHIflD5c+ajsrCmpqbWdIz5IBK6CW3WHNETysvCi2KRyHHIUw0Px3GCJaDlSE4HYcF6t5DB59LpZ5yB3r2D7Xw6f/78dpP/gli4YAGOHz8eS5dmv4nXhAkT8OiChdhmm+blyg/PfTjwZCKbHIdi4fsS/FlLlqLR6JEAMpR8tDpd9c51kw8o5BAEf04qoukf52uMuZJIJP6mQLBnTp0UjUZPcmx7djQanZyvD8N4fMhwqP8kMq/7bmhKp+dm22c3Eo7Z9gW+JX8HkOkDsdEKpX5hOsh8qa2tXQnR9nZq214tWeg49qeOY//Gtu1/68yjgUgkMjQWG3pANBo903Hs3zm2vcCJRmqg/vJC3mXI6TKeeHzonn7aytuHdd5Ogghe+r+XAy+VG3fsWLz77rs5+dkDBw7EbbffjkMOyX6DuNWrV+PCCy7ASy/9A9ffcAMmTer4cWxjYyNGjtgn62qFBq12E97WyFMlrljUfliBlvW/33YTXrBkkHYMGTLELguFHoHggCDjtELhWGe3p3VsuzZD9nq1m/CC1bMOKBKJ9AlZ8k8AVe21E8W0Ws/L+jmZE43M2CKvIA3FvwC8BEtfS6X09a7snx6LxQZrOn0xBD9HW4l+gltd17uoE+dl+5CVMRH6QzfhVWXbXyZDhw6NhENWpr0aatK+dnqDnjKgD0S28UUOAXQiMk6Imyn0ikQi+fuujMOx7dkQBFtrnUOhtD982fLlnwdp6zj2b6D4dcCuUwBqAXwFQRLAetHm3Ut9SKUIeqmijwBD0fzPEABtThrE8g+srV0eZFfLLstp4YOamuUfOI79DRQltanGoYceGvji/+GHi3N28QeaL+JnTpqEy3/1q6y3CB44cCBmzJyJ6669FjNnzAg0ASgvL8dpEyfitltvzek5zBvFy8jTxX/o0KERFRzf8om9KHJS876urs4bPnz4YevX198OxbQOmg/0/dTpAO7Ox1hzJZlMrotGo6cK9F8A+na5w++zANnyuXxo0+TpAKggHBI4UftLCBar6meisgSW/xkQXplOp78WkbWVlZVr16xZUx4KhXqHw+GBIv7OqthNVI5QP30IBO3V+q+u3NBwhelz3AnxkCWBLmyZfPfH1VFektyRSHhduviXCtf1fhOz7bUquBYdXyfDaK4VsN3mU6ibvltL879k9U3b90N7AIG2te6yXD/H8KF4vRCB51I2lfLuuy/3d0DT6TSuufpqXHzRRdi4Mbs8q1AohCuuvBI//dnPAm8TPGXKWYH2HCgKFl7JV9fhsEyHtlqCt76ioSFYUkUAS5YsaXBdb/qmzYTa3TtctbiTATdLJBIfQTTnjyzikcgoAB3d9t8eiuMEcikEt0CtZ6D+WyFLPrcEyxsbNm6orCj/piwcSgj0Q6jMF8g1EBwBtHvxr0v7Ov6L1asLtetkaVH8xU0kLshJX1ZpbB1f63l/hFijIchrEnJLorp7oX5W7q8Coi8WKvhciMViGDPmyEBt169fj/nz8pf8Om/eI5gw4RR4npf1e4866ujAuxdut912GD16dN7GkUtWOm+/TwLIuRlefTAfF4HaROJPChkHYHU7Ae1brJUBW3Ld5CwIbmunSXbLXAD4Iqb2RnhHIaOSyWRel5t21fLly1cim+TS3KhTyCmu512CzFUvs6YqBfl2mwuu677iut4+CjkLwNsF+JHrRTTd9W6CyfkEQCSc/UJ3gyZPmRK47v/8+fO6nPzXkXfefhtHHTkGr72W37+REkkGXFGTTL6Rj45jscjhUOzY+kjnk/86kkgknhYrtD+Aj9tpVhITAAAoL6/8Odr+UMy6cuPAwYOvtRTjoLgbwKoCDKEekGsh1sGJRKIUSpmnBBpsF7CuEiRE8Yu0r9snEolHctl1IpG4E8DTBRlHbqQSicT9bsIbEUr7w6H4JZpXinR1MrYRwDsCnSGQn1u+7h9NeFvVJpKXFmpg+ajlLY5t15RCOc2ysjK88eZbGDJkSKD248Ydi3ffeadgsV3z+98Heq7fGb7v46ADD+jUKoTCkVluIpGXE+A49hwoTmvxcs4Sttqzw8CBAxoqK2YrWu08uKqxKTVsxYoVWc8yC5UE2FIkEtkhZMmbAL4rqiN4f+DAwSMXL17c2Nl+RwBlCcc5DL5/OJqT00ai/Vv42VgGxey06h+TyeTyHJ2HvCcBAkA8Hu/lp1K/AXAyBINz1G29AgkRLBeV10X12RrPewsdPLLqInGcoWPEt/ZUK3gumqg0+m3tT9CBhoaGB1atWpXLIk9WJBIZFgZ2g2XtrMAQqPYF0AfWpvwYlTUKbRLFNwLU+SKeqtaEw+nampq6L/N8jjs+n/no1LHtOyEIXlXHkJNPPhl/ufmWQG0/+uhDjDmi8NvqTp48Gf9z9TUoK8t9tdhbbrkZ11x9dcHHFJRCpiQSiWD1lrNg2/YQS1CD719QFIJLXNe7uUDDC8Wi0V8p9L8AVKD5VuuURCLRqW9G0WjkClH5fma7hdWu612X74E4jrO3qH+lAtsp8Kbv669zdWHdLB6P90qlUvuGREb40J1EsRMEOwHYBu1/jimAaig+gIV3fR8LPc97E514RNGeHQYOHLCxV0WGHA5d4brJO7PvkSj/8jIBsG17rCV4wvTgOvLoggUYOTLYPg//8R+/wn2dqP6XC6NGjcL/+9sdGfcD6IpVq1Zh5Ih90NBQlDk5jeGycnvp0qWru97V98Wi0Z8r9FxA3xZYb6dV32psbHwnx98OAhkyZEhfy7KGbb311p925RtzTzUCKKvbdtu+DQ0NA8vKtK/vN3/zstKyNiWyNhwOJzu7tJKou8vLBGAEUJaI2gkgZ7eocm633arw7HPPBWq7YcMG7LP3Xlnv6JdLtm3jzrvuznklv59e8hM8/PDDxsbVJsUC1/PytXlBCIZvvRERmZaXtWDNO7fJfNODa082S//mz59n9OIPAJ7n4eSTTsSDc+bk9jwUaTKgigSuw98JvPgTUY+Xt8XgojrT9ODa0q9/f5x88smB28+cWRxDaWhowKWX/gyXX/ZLpFI5WZGDfUaMwJ577ml6aC3VNzU1Leh6N0RE1Ja8TQBqPe9FQD4zPcBMJp42MXDd/48++hDvvF2I5Z/BzZgxA6dPPC1n5XzPmjrV9JBakDmdyYQnIqLg8lkOTiH+XaYH2JKIYMpZZwVuf//9hVl2m63XXnsN48cfh48//rjLfZ100snYaqutTA/pW+L7eVuLT0REzfJaD7apyb8HQFFlNh988CEYPnx4oLYbN27EvEdyWgMjp76qrsbx44/D448/3qV+Kisrceppp3Wpj1wR4IPaZLLkykkTEZWavE4A6urqPAFym7XWRdnc7n700fnGk/86sm7dOvz4vB/hhhuuh2rnlzaffvoZpocCAFDRP5mOgYioJ8j7jjDi6/XIcdGNzopGozjqqKMCt58xI+c1aPJCVfGnG2/EOWefjfr6+k71seuuuyIWi5keSrK8vFfONuIhIqK25X0CUJNMvg/I86YHCgCTJ09BOBys6uRHH32It996y3TIWXn66acw/rhx+PLLLzr1/mHb57VqbIcU+ufq6urstkMkIqJOKciesKJ6jemBhsvKMGnSpMDtS+Xbf0uffvopjh07Fn//+9+zfu+qlYXYf6Ut+nVZWcVtXe+HiIiCKMgEoNbz/g5B9lekHDp27LEYGokEarthwwY8MneuyXC7ZM2aNZh61hTccsvNgfMCkkkPn3zS9RUFnSUqN+aj7C8REWVWkAlAM/8/TQ40m8p/CxcsKPrkv46k02lcc/XVuOjCC7FhQ8el0G+4/gb4vm8q3JUbGhtvMvXDiYh6ooJNAFx3+asQdG29Wiftuuuu2H///QO3L9Xb/5k8+uh8jD/uOCxZsqTNNrfdeitmzTJY7VBxnYmNeIiIerK8bAbUFsdxdgX896DI/d627dhttyrss8/egdo2NjXlvN5+MaioqMDZ55yDCRNOxY477oj6+nq88ca/cMcdd+CVl182F5jg8969+1YtWbKkKLckJCLqrgo6AQCAWDT6vwr9qemBU5EQPcF1k6z7T0RUYAXMAWgWKiv7LYA60wOnYqDP8OJPRGRGwScAS5cuXa2QS00PnIzbEErrhaaDICLqqQo+AQCARCIxE4qFpgdPBil+vWz58s9Nh0FE1FMVPAdgM8dxtoX6HwDoZ/okUMG97Sa8/QCkTAdCRNRTGbkDAACu6y4VxSWmTwAV3EbL12ngxZ+IyKiQyR++tr7+3X59++4Kwe6mTwQVhkB+Uut5T5iOg4iopzN2B2CzcHn5hQCWmo6DCkEerU0k/mo6CiIiKoIJwNKlS1dDrBMBdFyvlkpZtVjWOSiSraGJiHo6o48ANlu7dq3Xt1+/5QKMNx0L5cUGiHWM67qd26eYiIhyrigmAABQX1//dr9+fWKAjDAdC+WUQnSa63rPmA6EiIi+Y/wRwJaiieRFgDxrOg7KIcVvXTc5y3QYRET0fcbqALRl0KBB/SvLy/8Pgj1Nx0JdJbPdROJM8Lk/EVHRKao7AACwatWqNbCs48CVASVOnxk4aNA08OJPRFSUiu4OwGbx+JDhvh96CYqo6VgoS4rXmtLpo+rq6upNh0JERJkV3R2AzWpq6pak03oUgJWmY6Fs6Lvh8vJxvPgTERW3op0AAEAymfzAVxwKhWs6FgrkTbHCY5YuXbradCBERNS+on0EsCXHcXaB+s8BiJuOhdr00saGxvGrVq1aYzoQIiLqWFHfAdjMdd1P0r4eCshnpmOhDBQLrVD4GF78iYhKR0ncAdgsHo8P8tOpeQAONR0LbaZ/cxPJC8Hd/YiISkpJ3AHYrKamZlV5ReXREDxoOhaCL5B/dxPJ88CLPxFRySmaUsBBff3116m1a+vn9uvfdwOAw1Bik5huYg3EOsNNJO42HQgREXVOST0CaClu26N9wQMAIqZj6Tn03bSPU5LJJDf2ISIqYSX97bnG816EWPsCeMl0LD2AQnCbFSo7kBd/IqLSV9J3ALZgRaORnwjkDwDKTQfTDdVB9FzXTS4wHQgREeVGd5kAAABs2x5lWbgTij1Mx9J96PymlH9BXV2dZzoSIiLKnW41Adgk7Dj2v0PxGwCVpoMpYZ4oLq/1vPtMB0JERLlXcqsAAvDXrq1/pV///g8DuhOA4aYDKjEpKG4pr6ycsKym5p+mgyEiovzojncAvsdxImOg8r8AqkzHUvQUz1uql9Ykk++bDoWIiPKr208AAKCqqqp89cqV50L0CkBipuMpNgK84UOuSiQST5mOhYiICqNHTAA2GzZsWGVDQ8P5Ar0cgG06HvP0XQh+7brJhQDUdDRERFQ4PWoCsFlVVVX51ytXnq6Cy9AjHw3oKxBc57rJx8ALPxFRj9QjJwBbjj9u22N94HwIjkX3TIrcbI1AH4Clt9bWLl9kOhgiIjKrp08AvhWPx2OaTk9X1amQbrNyQAF9FYK70mnMSSaT60wHRERExYETgAwcx9kHvj8RglMBbG86niypAm9YkDkq8pDrustMB0RERMWHE4AO2LZdFQKOUWAsBAcDqDAdUwaroHhWgKca0+mnWLWPiIg6wglAFjatIhgl4h8EyEFQjEThVxP4UHwhoq9D5VVRfbkmmVwMwDd9foiIqHRwAtBFjuNsLZL+oe9jd1EZDgvDoNgezY8Oeneh61UAvlTgSxFUA/qJ5ct7TaqL+SyfiIi6ihOAPHIcpzeAwSIyGEgNVg2FxPcHbDosANQX8UX8b1StRlVdWZFKreobiaxcvHhxo+n4iYiIiIiIiIiIiIiIiIiIiIiIiIiIiIiIiIiIiIiIiIiIiIiIiIiIiIiIiIiIiIiIiIiIiIiIiIiIiIiIiIiIiIiIiIiIiIiIiIiIiIiIiIiIiIiIiIiIiIiIiIiIiIiIiIiIiIiIiIiIiIiIiIiIiIiIiIiIiIiIiIiIiIiIiIiIiIiIiIiIiIiIiIiIiIiIiIiIiIiIiIiIiIiIiIiIiIiIiIiIiIiIiIiIiIiIiIiIiIiIiIiIiIiIiIiIiIiIiIiIiIiIiIiIiIiIiHqA/w9T6UDxWwSUQwAAAABJRU5ErkJggg==;clipPath=inset(16% 65.33% 17.33% 3.33%);" vertex="1" parent="1">
          <mxGeometry x="479.73" y="623" width="26.31" height="28" as="geometry" />
        </mxCell>
        <mxCell id="JmuAxBopoD4e7R5yBPcm-32" value="" style="shape=image;verticalLabelPosition=bottom;labelBackgroundColor=default;verticalAlign=top;aspect=fixed;imageAspect=0;image=data:image/png,iVBORw0KGgoAAAANSUhEUgAACgAAAAJmCAYAAACQFtn4AAAABGdBTUEAALGPC/xhBQAAACBjSFJNAAB6JgAAgIQAAPoAAACA6AAAdTAAAOpgAAA6mAAAF3CculE8AAAABmJLR0QA/wD/AP+gvaeTAAAAB3RJTUUH4gwEER8nqH4YzQAAgABJREFUeNrs3Xl8HHX9+PHXbJKmNy3laNOW+77vS6Ap95UU1HrQpOAFnhRP8KdC8URFbVG/CCoCbUGpCk1QQFDwQEXlkKvcZ5Jy30fTNpnfH5+plNIj2d3szu68no/HPJJsdnbn8/589piZ97w/EZIkSZIklc4fgU2Ae4C7gYeT3+8EXjI8kiRJkiRJkiRJfRet+Mf05s5dL2kbf5thkSRJklLhAOCiAtY/BHikDNu9E3BFAeu/E/iv3V+1/grsv5r/PQncB9y/wnJvMo6XVni7NwWuz3PdfwPvK+O21xKSNrcENgTWB8YCw5P/j05+xsCLye+vAUuAV4GnkuXZ5OeTyf8lSZIkSZIkSVKBalf8oxd+Pq2587lcT82n5/xu7F2GR5IkSSqrocBmBaxfV6btri9wuwfb9Zk1NlkmrXT7UuBR4GDgiQptW10Br4vOEm/rFsCBhETNvQiJf4OK/BxPAw8QkjwfTH6/m5Dw2etLQZIkSZIkSZKkvqld+YYIDolrem5rae64sCfOfemy9oZnDZMkSZIkqYzqCEloQwzFgNkGmEaowLldCZ5vg2R5x0q3vwLcCvwnWf4CdNk9kiRJkiRJkiStWm41t9dCdFIt8X0tzV0zpk6NawyVJEmSJElV51DgGuAe4MuUJvlvTUYQKkB+FrgM+IhdJEmSJEmSJEnS6uXW9M84Yl2IZ9Uv7rqzdUrX4YZLkiRJkqSqsANwLfAH4HAgSul2PmRXSZIkSZIkSZK0erk+3Sti2ziOr2lt7mw//uinNjNskiRJkiRVpAiYAdwCHFYB22sCoCRJkiRJkiRJa5Drz51jOCZXs2zhtKbO2dOOfG6k4ZMkSZIkqWIMAa4AZgGDKmSbH7bbJEmSJEmSJElavVwe6wyKIk6J6rrvbW3uOmnmzDhnGCVJkiRJSrWRwDXAlAra5leBp+w6SZIkSZIkSZJWr4DkvXhcTHz+g7d23TytufMdhlKSJEmSpNTu+88DDqyw7Xb6X0mSJEmSJEmS1qIY1fv2iOCvLc1dlx9/VNfGhlSSJEmSpFT5JnBMBW63CYCSJEmSJEmSJK1FsabvjSCemquN72lp7px5YuMjgw2tJEmSJElltyfwuQrddhMAJUmSJEmSJElai1yRH28ocOaykYMeaJnSMR3iyBBLkiRJklQWEXAeUFOh2/+wXShJkiRJkiRJ0prlBuhxJxBHF7c0d95w/LEduxhmSZIkSZJK7khg9wrefisASpIkSZIkSZK0FrUD+/DRpFwvt0yb0jGvN677/GVtGz5lyCVJkiRJKonPDOBjPwXcB7wKvAa8RKg4OBIYAgwG1gFGABsA6+bxHFYAlCRJkiRJkiRpLWpL8By5KI5aa1jW1NLUefboZa/P+uHVW3YbekmSJElShjwFnJz8/jLQk/z+OrB8H3kpIaEOIAZeTH5fnMfzjQMmF3H7nwfmA78BbgOe7ef6dcB6yTIB2HiFZRNgK2DMCvdfBjzmsJEkSZIkSZIkac1qS/hco4g4+4W6oR+a1tTxmXntE64y/JIkSZKkjHgJuKCEz/dOIFeEx3kDOBOYDSwp4HGWAouS5c7V3GcDYHtgW2AsIQlQkiRJkiRJkiStQW0ZnnPLKIrapzV3Xl8b5069uH3c3XaDJEmSJElFNakIj/EgcDRwf4m2+elkucHukyRJkiRJkiSpb3LleuIIDumJ4ttamjvOf39T13p2hSRJkiRJRbNvges/DxxC6ZL/JEmSJEmSJElSHnLlffq4DqKTaonva2numjF1alxjl0iSJEmSVJCRwIQCH+NM4DFDKUmSJEmSJElSuuXSsBFxxLoQz6pf3HVn65Suw+0WSZIkSZLytkmB6z8F/NwwSpIkSZIkSZKUfrlUbU3EtnEcX9Pa3Nl+/NFPbWb3SJIkSdKAGAHUGwYABlVhLMYXuP584A2HhiRJkiRJkiRJ6Vebxo2K4ZhczbLDpjV1/qQ+GvTlC9vWf8WukiRJkpSHiFANbWtgHCExasMVftYD6xAujhqx0j7SS8AS4LlkeRJ4GHgIuBO4N+y+pMoYYE9gV2CzZBmdtHEYMDRp54q6gdeT5emknc8QqsA9AjyYLI8DPRU4BuqA7YHdgB2Sfm8ANkiW9ZL79QAdwH3AX4ErgLsrdNwPK3D9mzL0HjEqeb3skrxXTFhhfCz/f5T8/mLymn8WWJS8Jp4AbgduTd4nqtF6wHuBaUBj8r6YJpsmy0bJ63sIMDjpqxeT/nocuCvpN0mSJEmSJEmqKrUp3rZBUcQpS1jy7tbmrrM2323cz2bOjHrtMkmSJEmrMYyQ/LYPIeFr22QZmufjjV7L/18C/g5cBbQRksfKYTtCYs5RhCSm/qpPltGsuXLcEkJy3C0rLP8lJA6mybpJLPYDdgd2IiQDrU0NsHGyHAZ8jZAI+EWKkxC3EfDbPNe9DfhIP+4/tMBt/XcVv0/UAgcCRyfjZJs83hNWN2PBw8A1QDtwAyG5dqDsBlzQz3W+Bizo431zwDHAh4AjCYm0EJIjH+3D+psn29hXdwEL+7hduwOHE5IRd+vDe/WKOpM++g1wLeBxJkmSJEmSJEkVL1rxj5bmzlsJV76n0X+ImDF3wfi/222SJEnKiMMJiQr52hq4vwzbvSfwrwLW3we4uY/33R94NyHZa1fKd5FTL/B7YBbwxxI9ZyMwE5hUxjH6VeDMfq7z16TfijmmNwWagSnAAUUeB73At4EvUVjFx60ICZT5+Cshaa2vPgT8rIBtHQlUWyX+BuAk4MMUPkVyXzwDXAj8hL4lzPXXJODGfq7zbeD0tdxnOPAB4BRgi9W85/YlIfajwHn92LYrgePW8P8dgBOA9xex/x4Czk76yURASZIkSZIkSRUrV0Hbugcxf2tp7rp8elPXRnadJEmSJOAQYAYh6bCcFc6XV8u6npAIuOUAPtdo4HJChbFJZY7/o2V87mGEJKPbCJXXZgGTB2Ac5AhVAH+SkddUD/BqFbVnJPBNwjTWZ1Ka5D+A9YHTCAmr5/LmVNPltO0a/jeKUCGwI9neLVZzvwkD+F5ev4rbDwOuI0y7/rki99/mwE8JCetb+XEqSZIkSZIkqVLlKmx7I4in9kbxwpbmzpknNj4y2C6UJEmSMu32FG7TkYTpcd89AI+9RfLYU1PS1kfL8JybAucQEpXOI79pj/NxEvCpDLymXqGwSodpcjBhWtkvAkPKtA11ybi5D3hnmeOx3SpuGw58mZBE+2VgnbU8xkAlUA4nJPAutyehwuG1hOTAgbQ78B/gCD9SJUmSJEmSJFWiXIVu91DgzJ6Rg+5vmdIx3W6UJEmSMuv2lG7XCEKVvo8U8TEnAn8hJMClxSMlfr6fESq5fZZQsazUvgVUe0X6akn+OwP4A2Hq3zRYF/gNobpeuY7FbAosv5AyB5xMSPz7GqGyaF9MGMDtO4ZQsfF8wjTwpaxwOgJYABzlx6okSZIkSZKkSpOr5I2PYSJxdHFLU9cNLcd07Gx3SpIkSZnzGPBCSrctIkwb21SEx6ohJBSOS1H7lhGq8JXSAWXejx0GnO7LLtUiQpLdWaTzmMengHmEyoClVkOY6nZP4J/J+9P6/XyMgZxC+d2EqX5PSvqx1AYBl7HmqZIlSZIkSZIkKXVyVdGKKG4kF906bUrHJa3HPbmB3SpJkiRlRkx6qwAu3+e6kMKrkJ0E7JOytnUQkgCzpgWo96WXWmeS/qma3wf8uEzPfT4h+W/PPNcfyAqAG1L+CpsjgYsJyZKSJEmSJEmSVBFy1dSWKI5a456e+1qaOk/71JEPeEJGkiRJyobbU7596wFfLWD9WuD/pbBdj2Z0vI0ADvFll0rHEab+rQQfAT5Rhufdh8KOBY3PwDjaE/iwLydJkiRJkiRJlSJXhW0aRcTZL9QNvWNaU8cxdrEkSZJU9W6vgG08Adgsz3WPYmCrbuXr0QyPuSm+7FJnDHAe5Zk6Nl/fKeB9oVwaqM5jSSv7f5RnmmZJkiRJkiRJ6rdqPmi7VRRF7dOaO687oWnR9na1JEmSVLVur4BtrAU+kOe6aU02ezTDY24vX3ap81XCFLKVZCgwq8K2uQ7YIAPjaSOg2ZeVJEmSJEmSpEpQW+0NjOCQnii+bVpT53l1NUvOvOjKTV+02yVJkqSqshDoBur7sc5LwCvAEuANYHFy+4hkP2kDYHiRt/N44Ct5rNdYhOfuBboISXuLgdeAIUnMhgPDgHWA9fuxn/hIhsfcVoQL6np9+aXCBOBDFbrtxwC7A7dUWLyfTNH2LAVeSN7P1ini404HfuPLS5IkSZIkSVLa1WajmXFdFHFKT8+glpbmrq9214/70fz5UY/dL0mSpCr3C+D1MjzvyBI/31LgbmC35O/XgHuAh5PlEeAxQsLKs8mypA+PuwGwJXAIcBywc4HbuRmwKf1LnBuZrJOvx4CZQDvwXB/XWZeQCDiOUAVr4+TnZsC2ye2Q7QqAQ5KYPOrbTCp8nP4lAK/JsuT94z+EpNlXgPuBFwkJwhsk7zV7AXsU4fki4DPAtAqK9/gkPuWwBLgBuBH4F3AX8PQK/69L+qcJ+Fjyfpavg4FBffy8kCRJkiRJkqSyqc1SY+OIdSGeVb+46+TWKV2fnrOg4VqHgCRJkqrYfhlq61eT/Zv/EpL+ilGZ7elkuSl5/GnAD4FRBTzmAfQvAXACIUEoH4uAfeh/pa7nk+W+1fx/FLA1IUkqyyZiAmAa5ICWIjzOQ8nr+2JCst+a/Dz5uS0wAzipgNcpwLGEZN+XKyDe163hvWEgLUz651fJ+9PqLAVuTpb/A9oIFRbzMQzYG/irLzNJkiRJkiRJaVabyVZHbBvH8TWtzZ1XEdecMqd97CMOBUmSJKmiLRjgx4+BuUAncC2hylQ+dujn/UcVsM0/YWCm6XyRkFyTdg8SKkM+mCyPEpK0tiFMx1xo9bZhvuxSYU9CMmYhLgQ+Rf8rpi4EPkqYJvZXwOg8n38ocGTyGGm0FPgl8D1CknUpPQD8vyTGcT/X7SIkV95ZwHvpbpgAKEmSJEmSJCnlcllufAzHxFHPvdOaOmd/sPmZEQ4HSZIkSWtxAyERJl/b9PP+owp4rlsz1jcPECp+vY8wTfGWhOSfzxGSIa8BrgZ+QKjq9cMCn2+4L4dUOKTA9X8BfIjCpku/DngPYfrgcrVjIHQnr6nNgemUNvlvGfANYEfg1/Q/+W+5Dt6s2JiPHX2JSZIkSZIkSUq7nCFgUBRxyhKW3Nva3HXSzJmxMZEkSZK0JhcWsO64ft5/nQKe69UM9MUTwDmEKT63Aj5BqKK2tsqHvYTEwEIqJFoBMB32LWDdh4CPF2k7rgd+WsD6aZqyfQlwHiGJ9hPJ66yUngIOBr5MSEIsVHsB627kS0ySJEmSJElS2pns9qaGmPj8B2/turllSud+hkOSJEnSatxK/tWoNujn/aMCtnNoFffBnwhTpm4CfJ78qh0uSR4nX7W+FFJhhwLWnQUsLuK2nENILs3HVkB9mWPZC8xJtuXjlD7xb7mZwF+K+Hh3FbBugy8xSZIkSZIkSWlnAuDb7UHM31qauy6f3tTlld6SJEmSVvYy8Eye647o5/0LqX41qgpjvwDYi1Ad7BryT7ZarsvhXNHqyL9CWwzMK/L2PAzck+e6tYSE1nK5HtiDMNXvY2Xu17jIj/dCAe8V6/gykyRJkiRJkpR2JgCuWgTx1N4oXtjS3DnzxMZHBhsSSZIkSSt4Jc/1+lvha0kB2zipCuP+BeDfRXy8JQ7lirYO+VfJvI+QGFZs/yhg3XXLEMMHgKOBQ4HbqnSc9JJ/MvUQX2aSJEmSJEmS0s4EwDUbCpzZM3LQ/S1TOqYbDkmSJEmJN/Jcb1CJngfgg8ARdpWq2KgC1r1rgLapo0zt6a/Xga8AOwK/dygV7T1bkiRJkiRJkkrOBMA+iGEicXRxS1PXDS3HdOxsRCRJkiR3E0r0PJ0FrFsLXAX8ABhnl6kKjS5g3RcHaJteKFN7+uNuYHvg6xQ2zbgkSZIkSZIkKQVMAOyPKG4kF906bUrHJa3HPbmBAZEkSZLUT739vP9jFJZsWAOcCjwC/BZ4L2HaVKkajCxg3ZcHaJsWl6k9/XEP8KjDR5IkSZIkSZKqgwmAecQsiqPWuKfnvpamztOmTr3b6WAkSZIk9VV/k/leB54uwvPWA8cBvwSeBW4CZgL7EyoFShW5f17Auj0pbE+NXSpJkiRJkiRJ6i8TAPM3ioiz67tH3dnS3HG04ZAkSZLUB715rPOvIm9DLbAfcCbwV8JUqNcBpwG7A5HdJEmSJEmSJEmSVBms9FC4rSC6alpz5/W1ce7Ui9vH3W1IJEmSlALXA98u03N/E9jTLlilfKbz/R3QNIDbNAw4JFkgTBc8H7gcuMUukyRJkiRJkiRJSi8TAIskgkN6ovi2aU2d5y0ZvPiM+fM3f8moSJIkqYwWEZIAy+GzKY3JGGBUsgxLluF5PtY6ea6XTwLgr4DvACNLFKdNgS8ky8PAPOBHFGcqYkmSJEmSJEmSJBWRCYBFFddFEafUdw+e1tLc9bXu+nE/mj8/6jEukiRJUsnVAZOBg4CdkmV8CrYrnymAXyRUc/xGGbZ3M+ArwOeAnwPnAI85vCRJkiRJkiRJktIhZwgGxBiIZ9V3d/37+OauAw2HJEmSVDLrAl8HuoBrgdOAI0lH8h/kVwEQQgXAv5Zxu4cAnwTuS2LqvqQkSZIkSZIkSVIKeNJmYO2aI/5za3Nne2vTk5saDkmSJGlAvQ+4H/gSsF5Kt7E3z/WWAc3AP8q8/fXA2cBlhCqLkiRJkiRJkiRJKiMTAEsghmPiqOfulimdZ3+w+ZkRRkSSJEkquq8SktLGpH/3IG8vEqY1Ppf8EwmL5T3ALIedJEmSJEmSJElSeZkAWDpDiDltCUvubW3uOmnmzNjYS5IkScXxaeArFbKtcYHrdwMzgL2Bq8vclo8BBzj8JEmSJEmSJEmSyscktNJriInPf/DWzn+2TOncz3BIkiRJBdmZMCVtpShW5b7/AEcBOwLnAF1laEsEnOYQlCRJkiRJkiRJKh8TAMsm2pOYv7U0d10+valrI+MhSZIk5eW7wKAK2t64yI93F/B5YCPgCOAnwIMlbM8RwCiHoSRJkiRJkiRJUnmYAFheEcRTe6P4npbmzpknNj4y2JBIkiRJfbYjcGiFbXPvAD1uD3AtYVreLYFNgQ8DvwSeHsD21ADvcChWlTpDIEmSJEmSJElS5TABMB2GAWf2jBx0f8uUjumGQ5IkSeqTlgrc5rhEz/Mo8HPg/cBYYCfg08BVwMtFfq7NHYpVt39aYxgkSZIkSZIkSaoMtYYgPWKYSBxd3NrcdWJEz6mXtE28w6hIkiRJq3VEER7jKeB+oBt4oR/rHQask9/X/nLsanBnssxK9gP3BU4E3ktI+CrEJg7FNO5e5i0CRvbz9SBJkiRJkiRJksrEBMAUioknx+RumzalY14uV/u5OVeMfdqoSJIkSW8xHNihgPWvBL4C3JXn+ncQpiDur94UxG4Z8Ndk+QrwY+DYAh5vI4dj6iwucP1NqYwEwKUFrBulsD3LHLqSJEmSJEmSpP5yCuAU900UR61xT899LU2dp02devcgQyJJkiT9z7YF7M9cC7yL/JP/ChGnLI5dwLuBqwt4jGEOx9R5o8D1966Qdr5YwLpDBmibCnncboeuJEmSJEmSJKm/TABMv1FEnF3fPerOluaOow2HJEmSBMAGBaz7HcpXia83hbHsAb5WwPr1DsfUebHA9SdloJ2jBmwfPn+vOHQHTL4VH+tJZ7VISZIkSZIkSfofEwArx1YQXTWtufO6E5oWbW84JEmSlHGj8lyvF7i5jNsdpzSetxISAfNhtfL0eazA9d8JTKiAdr5YwLoTB2ibGgpY9ymH7oCoAwYX8P42xhBKkiRJkiRJSjMTACtMBIf0RPFt05o6Z0+d+tA6RkSSJEkZle934deSpVzSmgDYTf7Vx+ocjqnTASwrYP064LQKaOfLwNI8191jgMbungWs+4RDd0CsX+D66xlCSZIkSZIkSWlmAmBFiuuiiFPquwc/1NLcNWPq1LjGmEiSJCljRua53pIyb3dvimOabwXAxQ7H1FkC3FXgY3ycUAkwzXqB+/Jcdygwucjbsz6wU57rvgI87tAdEDtX8fu2JEmSJEmSJJkAWOHGQDyrvrvr38c3dx1oOCRJkpQh+SadDSvzdscpjmm+sXnV4ZhK/yxw/RxwGSERMCrD9vf1Qrc7C3iOTxd5mz8O1Oa57h0pf3+oZFMKXP8NQyhJkiRJkiQpzUwArA675oj/3Nrc2d7a9OSmhkOSJEkZ8GKe6w0GGsq43WmtJNWQxCYfJgCm0x+K8BiDgB8DNwHvA4YMwHauT5iO9/3A14FfAwvp+3S4fy7guY9I2lUMmwGnFrD+jQ7ZAbEp0FLA+kuBLsMoSZIkSZIkKc1qDUH1iOEYop6DW6Z0njsoHvSNC9vWf8WoSJIkqUq9VMC6RwAX5rnutsDngW3y/9rebw3AocDfgIcGKJ7NBazrfkc6XZ30zYgiPNa+yfIyIbHwTuDuZDy+nCyvES4yHAysQ0gWHAKst9KyYTKmN0mWoWt43pHJY6/JdQW27afAkxSWgLcB8FtgVAGP8QeH7P9sA0yk70mga3rv/A2FVX59iPynR5ckSZIkSZKkkjABsPoMIea0JSxpbZnS8cW5C8bPgchphCRJklRtOgtY90zgd8BTfbz/SKCJUCnsKAqrpJ7Pd/P9gYuS37uAvwI382YS1qICY7kL8I0C1n/C4ZhKi4FfAh8p4mOOBN6dLKWwOXDbWu7zcPJ62DvP5xhOSCL8OvAD1p5wuKIoeW84HxhbQDsfJyT4Kjg1WZ5L+v8B4MFkeTx5734GWLaa9bdKxuiphAqThbBfJEmSJEmSJKWeCYDVq4E4urilufOTud6OGZdcNeEfhkSSJElV5A5gCWGK0v7aCLgd+B5wPSG55DWgDhiTLNsAuwN7AgcA9UXa7nymAN7lLd/z4b3JstxzwD3AY4QEwU6gA3iBkMz0OtCd/D0yaWcDIUnmcODYAvcNH3A4ptY5wIcoLGm1nPqSAAghQXbvAp6nFpgJfAaYR5hW+ObkNbVy0u5owpTF+wCtwJZFaOcvSO/04OU0BjgkWVYWE6aCf4mQ7Poaodrl+kkfFYuVGSVJkiRJkiSlngmAVS/aszfHTS3NXb9eFsWf/eWC8VbnkCRJUjVYTKiAt3ue648FvluG7c6nAuDOa/n/GEKS4gFl6ot/OxxT637gEuDECt3+zft4v4uAM4BxBT7fSOBjybLcS7yZPDuS4h9HeRX4oUO13yJCot/oAXyOF4B2Qy1JkiRJkiQp7XKGIBMiiKfWxixsae6ceWLjI4MNiSRJkqpAJU7NmE8C4C4pbk8XYVpOpdfngWcrdNs36+P9FlPYNNZrsg6wCbAuA3MR5fcIVTyVPhcmY0uSJEmSJEmSUs0EwGwZBpzZM3LQ/S1TOqYbDkmSJFW4iypwm/s7zecGhOl60+o35JfUqNJ5FvgAlTnF7Ob9uO95wD8rrH33At9yiKbSa8B3DIMkSZIkSZKkSmACYAbFMJE4uri1uetP05uf2MmISJIkqULdDvyr8r6O98vOKW/L+Q7DinAV8MUK3O7+JAD2AicQpm2tBK8DxwPdDs9U+hrwtGGQJEmSJEmSVAlMAMywmHhyL7nbpk3puKT1uCc3MCKSJEmqQLMrbHv7W4VtlxS35dfA3Q7BivEdKi8JcCIwqB/3vx94L7A05e3qAU4EbnNYptI/gXMMgyRJkiRJkqRKYQKgclEctcY9Pfe2NHWeNnXq3YMMiSRJkirIZcBNFbS9/a0AuEtK2/E8MMPhV3HOJiSevVYh21sDbNzPda4DjgPeSGmblgLTgPkOx1TqBN5NSNKUJEmSJEmSpIpgAqCWG03E2fXdo+5onfLEUYZDkiRJFSIGWij9tJ8PEhKN8tne/kjjFMDdwDuBRQ6/inQxsAfw7wrZ3s3zWOd3wCHAEylry5PAEcCvHIap9AxwDCEJUJIkSZIkSZIqhgmAWtnWcZz73bTmzuumTVm0neGQJElSBXgUaKI0Vc2eB04HdiBMqdpf/ZkCeAiwdcpi/TxwFPBnh11FuxfYBzgB6Ej5tm6e53p/J1TQvIz+J94OhCuT7fmTwy+1nyMHALcbCkmSJEmSJEmVxgRArVIEh0RxfPu0ps7ZU6c+tI4RkSRJUsrdBDQycMlMTwJnAJsB3yZUwfsr8Go/H6c/iUj1wPnA/SmJcTuwGyYwVYte4BJCgt3xwD9SuI3P0r+k2ZU9n7TtHcDfytSGfwEHEaYlfsphl0q/Sd7b7jMUkiRJkiRJkiqRCYBag7guijilvnvwQy3NXTOmTo1rjIkkSZJS7D/ATsDPgGVFeLylwNWEBKKNga8BL63w/27gj/18zP4kM70IfJJQBXBT4CRgPqWd1nQZ0AZMApqBxxxmVWcJoUrefoQE188RKjy+UeLteCp5PX0HeE8y5tcHzivCY/+DUN1td+DnK72OB8IrwDxgX2Bv4AaHWSrdDxwLvJvSTyMvSZIkSZIkSUUTrfhHS3PnrcCuhkWrcVsv0amXtjX8xVBIkiSVxJgCvp8vAu4u03bvmmx7vv5N4Qk6WwAfIyQSTejHeg8RKvtdD1wDPLeW+2+WLH31UtK+Qq1PqFi1exLvbYBNgOFFeOwHgX8CNxKmLX2uyONjD2BUnuv+HXi9iNtyODA5eczu5LYlvDmddExIxFzuZaAn+f0eoKsfz7UeIbluGSFBbLkVE49eJSSeAizmzSS8FwkJrqVUl4yv3YFtga0I1QLHAkP7+ViLCdX8nkqWZ5Jx9sAKP18ucdv2B44kJOjtCowo4PFeJ0wd+2/g94QEyu4BbsP6hKqn+ehg4Cs+fpT8kze/C/wK2JEw3fr2hITQTQiVUQuxLHlvOw9YsMLrWZIkSZIkSZIqlgmAymfQXEVcc8qc9rGPGA1JkiRVgK0JSWdbAuOAYYRKfC8RktseTZbbeWuyVyUaQ6hWuAmwAbBOsgwnJDgN483EsqWEpKznCElZyxOxXnHIaC2GEhLQRgKDgNpkfL1CSLBaPsZ6k/GV9jGVIyQ3bgKMBzZK2jOSkCw4nDeTRF8hJGo+AXQSqmLej4lkKyskAfAsYOaqD0cwLumnMYSk2vWBdZMxWZ/8HExIMh5JSCx9Lumj2wjVGF+0eyRJkiRJkiRVk1pDoP6K4RiinoNbpnSeOyge9I0L29b3BKEkSZLS7L5kyYLnkuVWu10D6HWqazroXkLy6wN2barFhKqbXYZCkiRJkiRJkt6UMwTK0xBiTlvCkoUtUzqmQxwZEkmSJEmSJEmSJEmSJEkqHRMAVajxxNHFLc2dN08/pmNfwyFJkiRJkiRJkiRJkiRJpWECoIok2rM3F900bUrHJSce9fRY4yFJkiRJkiRJkiRJkiRJA8sEQBVTFMVR67LapQ+2NHfOPLHxkcGGRJIkSZIkSZIkSZIkSZIGhgmAGgjDgDOXjay/q7W5Y6rhkCRJkiRJkiRJkiRJkqTiMwFQAyjePCa6vKW584/Tm5/YyXhIkiRJkiRJkiRJkiRJUvGYAKhSOKiX3G3TpnRc8oEjF61vOCRJkiRJkiRJkiRJkiSpcCYAqmRjLYqj1qV1vfe1NHWeNnXq3YMMiSRJkiRJkiRJkiRJkiTlzwRAldpoIs6u7x51R+uUJ44yHJIkSZIkSZIkSZIkSZKUHxMAVS5bx3Hud9OaO6+bNmXRdoZDkiRJkiRJkiRJkiRJkvrHBECVVQSHRHF8+7SmztlTpz60jhGRJEmSJEmSJEmSJEmSpL4xAVApENdFEafUdw9+qKW5a8bUqXGNMZEkSZIkSZIkSZIkSZKkNTMBUGkyBuJZ9d1d/2qZ0nWA4ZAkSZIkSZIkSZIkSZKk1TMBUGm0G3H8l9bmzvYTj120ieGQJEmSJEmSJEmSJEmSpLczAVCpFcMxy3p772mZ0nn21KlPDzcikiRJkiRJkiRJkiRJkvQmEwCVdkOIOW1Q95KLDYUkSZIkSZIkSZIkSZIkvckEQFWEKM4NNgqSJEmSJEmSJEmSJEmS9CYTACVJkiRJkiRJkiRJkiRJqkAmAEqSJEmSJEmSJEmSJEmSVIFMAJQkSZIkSZIkSZIkSZIkqQLVGgJJkiRJkiSV2FLgUeC+ZLk/We4wNJIkSZIkSZLUdyYASpIkSZIkaaC8ADwM3APcnfy+/O83DI8kSZIkSZIkFcYEQEmSJEmSJBXTtcBehIp+LxkOSZIkSZIkSRo4JgBKkiRJkiSpmB5JFkmSJEmSJEnSAMsZAkmSJEmSJEmSJEmSJEmSKo8JgJIkSZIkSZIkSZIkSZIkVSATAJU5rVO6DjcKklR6jY1XjJo8+cq9jYQkSZIkSZIkSZIkScVhAqAyJ47ji1qau/7ZOuUJk1AkqSRm5iZPbp8exzX3xXF0jPGQJEmSJEmSJEmSJKk4ag2BsineO45zf582pWNeb1z3+cvaNnzKmEhS8TU2tjdCPCuO452jyHhIkiRJkiRJkiRJklRMJgAqy3JRHLXWsOy4lubO741e+vq3fnj1lt2GRZIK19j4+wlRtOybcRy3AKb+SZIkSZIkSZIkSZI0AJwCWILhwJkv1A29s7W5Y6rhkKT8NTW1D21sXDATlj0Qx7Ri8p8kSZIkSZIkSZIkSQPGBEDpTVvGRJdPa+68rvXoJ3cwHJLUH3E0adKCqa+8Et8D0ZnAYGMiSZIkSZIkSZIkSdLAcgpgaSURHBLX9NzW0txxYU+c+9Jl7Q3PGhVJWr3Jk6/aPY7bZ0P0DqMhSZIkSZIkSZIkSVLpWAFQWrVaiE6qJb6vpblrxtSpcY0hkaS3OuCA34ybNKnt/N7e3n8BJv9JkiRJkiRJkiRJklRiJgBKaxBHrAvxrPrFXXe2Tuk63IhIEkydevmgxsYFM3K5unujiJOiyO8TkiRJkiRJkiRJkiSVgyfspb6I2DaO42tamzvbjz/6qc0MiKSsmjSpvenppwcvhGhWFDHSiEiSJEmSJEmSJEmSVD61hkDquxiOydUsO2xaU+dP6qNBX76wbf1XjIqkLGhsbN8G4h9AfITRkCRJkiRJkiRJkiQpHawAKPXfoCjilCUsube1ueukmTNjX0eSqtbhh1+z7qRJbbMhvhMw+U+SJEmSJEmSJEmSpBQxcUnKX0NMfP6Dt3bd3DKlcz/DIamaNDbeUDt5cttJ3d1L7o0iTsGqwZIkSZIkSZIkSZIkpY4JgFLh9iDmby3NXZdPb+rayHBIqnSTJ7cfDK/eGsecD6xvRCRJkiRJkiRJkiRJSier+UjFEUE8tTfiqJbmznNqX15y9kU3brrYsEiqJI2NC7aIotw34zieajQkSZIkSZIkSZIkSUo/KwBKxTUMOLNn5KD7W6Z0TDcckirBYYddO6yxccFMiO4y+U+SJEmSJEmSJEmSpMphBUBpAMQwkTi6uLW568SInlMvaZt4h1GRlMJ3q2jy5Ktalyzp/jZEY42HJEmSJEmSVDLrEAp1DAXqgUGEIgMRMBh4YxXrvAD0AC8DrwDLDKMkSZIkEwClARQTT47J3TZtSse8XK72c3OuGPu0UZGUBgcd1L5Xb2/77DhmH6MhSZIkSZIkFWw0sDEwEdgk+TkWWC9ZNgBGERL/iqUbeJ2QGPgK8BTwDPBssjwDPAl0AE8AnqOQJEmSqpAJgNLAy0Vx1Br39BzT0tT57e7BL/5g/vztlxgWSeVw0EHt4+M4/lZvb9xCuJpYkiRJkiRJUt+tA+yaLNsCWyU/NyjDttQny+g+3n8x8BghGfAJ4EHgPuD+ZOm2eyVJkqTKYwKgVDqjiTi7vnvUB1qnPPGZOQsm/t6QSCqVffe9fEh9/eBTenvjLwPDjYgkSZIkSZK0VjlgO2ASsD+wB7A5lXth7WBg62RZWS8hOfB+YCHw32S5G7CogSRJkpRiJgBKpbd1HOd+N62583qi3Ix5C8bdY0gkDaRJk9qboig+lzD1iCRJkiRJkqTVGwcclSyNwLoZaXcO2DRZDl/h9qXAPcDtyXIzcCtWC5QkSZJSwwRAqUwiOIQ4vn1aU+d5SwYvPmP+/M1fMiqSiunAAxfsmssxG+IDjIYkSZIkSZK0WpsB7wPeCexG5Vb4Gwh1wM7JckJyWzchCfCfwD+SpcNQSZIkSeVhAqBUVnFdFHFKfffgaS3NXV/rrh/3o/nzox7jIqkQBx/82zHLltWeEUV8AqgxIpIkSZIkSdLbjAZageOBvQ1Hv9QD+ybLp5PbHgb+BNyQ/HzSMEmSJEmlkTMEUiqMgXhWfXfXv1qmdFmpS1Jedt/9/LrGxgUzenrqHooiTsHkP0mSJEmSJGllewO/ADqB2Zj8VyybAR8G5gGLgLuBc4F1DI0kSZI0sEwAlNJlN+L4L63Nne0nHrtoE8Mhqa8aG688ZPjwcbdDNAtiD6pJkiRJkiRJb7U/cD1h2toTgSGGZEBtB3wKcNYjSZIkaYA5BbCUQjEcs6y39+CWKZ3ndg+q+/r8+Ru8alQkrcrBB/9uq56e3u9DfHQUGQ9JkiRJkiRpJVOAs4CdDUXJPQV4fkOSJEkaYFYAlNJrCDGn1XcvvbdlSsd0iE3tkfQ/jY1XjGpsbDt72bKeOyE+2ohIkiRJkiRJb7EncCNwJSb/lctDhkCSJEkaeCYASuk3nji6uLVp0T+nNXXsYzikrJuZmzy5fXoc19wHnBZFDDImkiRJkiRJ0v+sB1wE3AxMMhxl9bAhkCRJkgaeUwBLFSKO4r0iopumTemY1xvXff6ytg2fMipStjQ2tjdCPCuO452d7leSJEmSJEl6mxOBc4AxhiIVrAAoSZIklYAJgFJlyUVx1FrDsne2NHeeM3rp69/64dVbdhsWqbodeOCVE2tqct+I47jVaEiSJEmSJElvsx7wc6DZUKSKCYCSJElSCTgFsFSZhgFnvlA39K7W5o6phkOqTk1N7UMbGxfMzOVy98cxJv9JkiRJkiRJb3cw8F9M/ksjpwCWJEmSSsAEQKmybRETXd4ypfP61qOf3MFwSNUijiZNWjD15ZfjhRCdCQw2JpIkSZIkSdLbnARcAzQYilR60BBIkiRJA88pgKVqEHNwXNNzW0tzx4U9ce5Ll7U3PGtQpMrU2Lhgjzi+anYURfsZDUmSJEmSJGmV6oELgOmGIrVeA542DJIkSdLAswKgVD1qITqplvi+luauGY2NsQm+UgU59NAFDZMmtZ0fx9HNURSb/CdJkiRJkiSt2jCgDZP/0u4hIDYMkiRJ0sAzAVCqMnHEuhDPmjiy686W5q4jjIiUblOnXj6osXHBjCVLooVRxElR5GezJEmSJEmStBqjgeuAwwxF6j1sCCRJkqTSMMlAqlIxbAPx1a3Nne3HH/3UZkZESp9Jk9qbnn568EKIZkURI42IJEmSJEmStFqjgT8B+xqKivCQIZAkSZJKwylCpSoXwzG5mmWHTWvq/AnLBn9l3tVjXjYqUnk1NrZvA/EPILZKp6S12QP4lmGQKt4rwDsNgyRJkpS3oYRpf3cxFBXDBEBJkiSpREwAlLJhUBRxCnXdU1ubu2Zuvtu4n82cGfUaFqm0Dj/8mnUXL15yJsQf9zNYUh+NAQ4xDFLFe94QSJIkSXmrIyT/7W8oKopTAEuSJEkl4hTAUqbE42Li8x+8tevmac2d7zAeUmk0Nt5QO3ly20nd3UvuiyJOweQ/SZIkSZIkqa/OBQ42DBXHCoCSJElSiZgAKGXTHhH8taW56/LpTV0bGQ5p4Eye3H4wvHJbHHM+sJ4RkSRJkiRJkvrsFOCjhqHi9ACPGwZJkiSpNKxAJGVXBPHU3oijW5o7v1v78pKzL7px08WGRSqOAw9s37Kmhm/EcTzVaEiSJEmSJEn9tidwjmGoSI8DSwyDJEmSVBpWAJQ0FDizZ+Sg+1umdEw3HFJhDjvs2mGNjQtm5nLxnSb/SZIkSZIkSXlZB/gVUGcoKpLT/0qSJEklZAKgJABimEgcXdzS1HVDyzEdOxsRqb9m5iZPbp++ZEn3QxCdCdQbE0mSJEmSJCkv5wGbGoaK9bAhkCRJkkrHKYAlvVUUNxJFt06b0jEvl6v93Jwrxj5tUKQ1O+ig9r16e+PZcRzvYzQkSZIkSZKkghwFvN8wVDQrAEqSJEklZAKgpFXJRXHUGvf0NLU0dZ7dPfjFH8yfv/0SwyK91UEHtY+P4/hbvb1xCxAZEUmSJEmSJKkgI4CfGIaKZwKgJEmSVEJOASxpTUYRcXZ996g7W5o7jjYcUtDU1D60sbHttN7e+N44phWT/yRJkiRJkqRi+Cow0TBUPKcAliRJkkrIBEBJfbEVRFdNa+68btqURdsZDmXZpEntTa+8Et8NnA0MNyKSJEmSJElSUWwGfNwwVAUrAEqSJEkl5BTAkvosgkOI49unNXWet2Tw4jPmz9/8JaOirDjooPbdent7Z0F8gNGQJEmSJEmSiu67wCDDUPGeAV42DJIkSVLpWAFQUj/FdVHEKfXdgx9qae6aMXVqXGNMVM0OPvi3YyZNapvd2xv/CyKT/yRJkiRJkqTi2wc4zjBUBaf/lSRJkkrMBEBJ+RoD8az67q5/H9/cdaDhULXZfffz6xobF8zo6al7KIo4BTDZVZIkSZIkSRoYXwIiw1AVnP5XkiRJKjETACUVatcc8Z9bmzvbTzx20SaGQ9WgsfHKQ4YPH3c7RLMgXseISJIkSZIkSQNmZ+Bow1A1TACUJEmSSqzWEEgqhhiOWdbbe3DLlM5zuwfVfX3+/A1eNSqqNJMnL9i6tzf6PnBU5PXGkiRJkiRJUimchtX/qolTAEuSJEklZgVAScU0hJjT6ruX3tsypWM6xB60UUXYf/+rRjc2tp3d2xvdEUUcZUQkSZIkSZKkkhgLvNswVJUHDYEkSZJUWiYAShoI44mji1ubFv1z+jEd+xoOpdfM3OTJ7dNranrvBU6LIgYZE0mSJEmSJKlkPgzUGYaqYgVASZIkqcScAljSgImjeK84im6aNqVjbt3SQV+46PcbPGlUlBaTJi2YDNGsOI53crpfSZIkSZIkqeRqgI8YhqryBrDIMEiSJEmlZQKgpIEWRXHUuqx26TtbmjvPGb309W/98Ootuw2LyuXAA6+cWFOT+0Yc02o0JEmSJEmSpLJpBDYyDFXlYSA2DJIkSVJpOQWwpFIZBpz5Qt3Qu1qbO6YaDpXaYYddO6yxccHMXC53v8l/kiRJkiRJUtm93xBUnYcMgSRJklR6JgBKKrUtYqLLW5o7/zhtyhM7Gg4NvDiaNGnB1O7u7nsgOhMYbEwkSZIkSZKkshoEHGcYqo4JgJIkSVIZOAWwpHI5KIpzt7Y0d1xYt7Tmy7+4etwzhkTF1ti4YI84vmp2FEX7GQ1JkiRJkiQpNQ4B1jUMVedhQyBJkiSVnhUAJZVTLUQnLavtvbeluWtGY2NsUrKK4tBDFzRMmtR2fhxHN0dRbPKfJEmSJEmSlC7HGIKqZAVASZIkqQxMAJRUdnHEuhDPmjiy685pTYuONCLK19Splw9qbFwwY+nS6N4o4qQo8nNOkiRJkiRJSqGjDEFVMgFQkiRJKgMTIySlRgzbRFHv71ubO9tPOPbxzY2I+mPSpPamp58evBCiWcAIIyJJkiRJkiSl0o7Axoah6vQAjxkGSZIkqfScblNS6sRwTE9v7eHTmjrPY9ngr8y7eszLRkWrc+CBV22by/X8AOLDjYYkSZIkSZKUegcZgqrUAXQbBkmSJKn0rAAoKaXiuijilKiu+97W5q6TZs6Mfb/SWxx++DXrTprUNjuX670TIpP/JEmSJEmSpMowyRBUJaf/lSRJksrEhBpJKRePi4nPf+jWrn9Na+58h/HQ7rufXzd5cttJ3d1L7osiTgFqjIokSZIkSZJUESLgAMNQlR42BJIkSVJ5OAWwpIoQw+4R/LWluevXvcv4/KW/b3jMqGRPY+OVh0DuB3HMDkZDkiRJkiRJqjjbAOsZhn55A1iULE8DS4EXk/+9CgwD6oARwGBgCDA8uW1U8vf6yd8DyQqAkiRJUpmYACipkkQQT83VcnRLc+d3u+t7vz1//sQ3DEv1O/DA9i1ravhGHMdTjYYkSZIkSZJUsfYwBGu0CLgOuA24E7gDeKZIj70esAEhGXDcSr9PBDYHNib/c4dWAJQkSZLKxARASZVoKHBmfXfuQy1TOr40d8H4ORDFhqX6NDZePhzqPwfx6XFMvRGRJEmSJEmSKtruhuBtngB+DiwA/gsM1LHuZ5NlTeoISYCbJ8sWyc+tgC2BmjWsawVASZIkqUxMAJRUySYQRxe3NHd+kN6OGXOvmvBfQ1ItZuYmT969JY7j7wAbGg9JkiRJkiSpKpgA+KbbgZnAVUBPSrZpKfBgsqxsKLADsGuy7ALsmNwOJgBKkiRJZWMCoKQqEE0ix63TpnTMy+VqPzfnirFPG5PKNXnylXvHcc3sOI73NhqSJEmSJElSVdnJEPACcDqh6l9PBW3368C/kmW5GkJ1wB2AF+1aSZIkqTxMAJRULXJRHLXGPT1NLU2dZ49e9vqsH169ZbdhqRyNjb+fEEXLvhnHtEAcGRFJkiRJkiSpqjQAIzMeg3uB45Kf1aAHWJgskiRJksokZwgkVZlRRJz9Qt3QO6Y1dRxjONKvqal9aGNj22mwbGEc0wqY/CdJkiRJkiRVn60z3v6bgD2pnuQ/SZIkSSlhAqCkarVVFEXt05o7rzuhadH2hiOdJk1qb3rllfge4GxguBGRJEmSJEmSqtY2GW77XUAT8KrDQJIkSVKxOQWwpKoWwSE9UXzbtKbO85YMXnzG/Pmbv2RUyu+gg9p36+2NZ0O8v9GQJEmSJEmSMmHzjLb7deDdwAsOAUmSJEkDwQqAkjIgrosiTqnvHvxQS3PXjKlT4xpjUh6Nje3rTZrUNru3N/4XYPKfJEmSJEmSlB0bZbTd/w+4z+6XJEmSNFBMAJSUJWMgnlXf3fXv45u7DjQcpbP77ufXNTYumBHH8UNRxCmASZiSJEmSJElStmycwTY/DPzYrpckSZI0kEwAlJRFu+aI/9za3Nne2vTkpoZjYDU2XnnIiBHj/gvRrChipBGRJEmSJEmSMmliBtt8NrDMrpckSZI0kGoNgaSsiuEYop6DW6Z0njsoHvSNC9vWf8WoFM/kyQu27u2Nvg8cZTQkSZIkSZKkTKsFNsxYm18B5tr1kiRJkgaaFQAlZd0QYk5bwpJ7W6Z0TIc4MiSF2X//q0Y3Nrad3dsb3RFFJv9JkiRJkiRJYgzZOyf1W+ANu16SJEnSQDMBUJKCBuLo4pbmzpunH9Oxr+HIx8zc5Mnt02tre+8DTosiBhkTSZIkSZIkScB6GWzzlXa7JEmSpFJwCmBJeotoz94cN02b0jG3bumgL1z0+w2eNCZrN2nSgskQzYrjeCejIUmSJEmSJGkl62esvTHwV7tdkiRJUimYAChJbxdFcdS6rHbpO1uaO8+pfXnJ2RfduOliw/J2Bx545cSamtw34phWoyFJkiRJkiRpNdbNWHvvAZ6z2yVJkiSVglMAS9LqDQPOXDZy0J2tzR1TDcebDjvs2mGNjQtm5nK5+03+kyRJkiRJkrQWQzPW3tvtckmSJEmlYgKgJK3dFjHR5S3NnX+c3vxExqe4jaNJkxZMXbKkeyFEZwKDHR6SJEmSJEmS1qI+Y+1daJdLkiRJKhWnAJakvjuol9wtLc0dF9YtrfnyL64e90yWGj9pUtueUdQ+G6J9HQqSJEmSJEmS+iFrCYD32+WSJEmSSmWlCoDxMkMiSWtUC9FJS+t672tp7prR2BhXfSL1oYcuaJg0qe184J+AyX+SJEmSJEmS+mtIxtrbaZdLkiRJKpW3JAD2xLmj4phzgR5DI0lrNBriWRNGdt01rWnRkdXYwH33vXxIY2PbaUuXRvdGESdFkdPGS5IkSZIkScpL1ioALrLLJUmSJJXKW5I5LmtveHZe+/gZxNFewN8MjySt1dZR1Pv71ubO9hOOfXzzamnUpEntTfX1g+8GzgZG2M2SJEmSJEmSCpC1BMBn7XJJkiRJpbLKak5z2xtunds2/oAoojmGRw2TJK1ZDMf09NYunNbUOXvakc+NrNR2NDb+bpfGxrYboyhuAza1ZyVJkiRJkiQVweCMtfd1u1ySJElSqaxxOsc5C8a3D4uj7Yk5HXjVcEnSmsR1UcQpUV33va3NXSdNnRrXVMqWH374NetOmtQ2G3r+A0yyLyVJkiRJkiQVUZYqAC4DeuxySZIkSaVSu7Y7XNDe8Drw7Wnv7JhHD9+M4qgFiAydJK1OPC6G8+u7u06e3tQ145L2htROqb777ufXjRgx9uPd3UtmRhGj7DtJSp37gdMNQ0k0AkdksN1fwhNTpbDYEEiSJCnjspQA6Pd/SZIkSSVV29c7zvvthA5g+vHHPvGjXG9uNrCP4ZOkNdqtN4r/0tLc9eveZXz+0t83PJamjWtsvPIQyM0CtrerJCm1HgG+bRhKIiKbCYDnAEvsfkmSJEkqGhMAJUmSJJVUrr8rXHrlxH9tsVvDO4jiE4CnDKEkrVEE8dRcbXxPS3PnzKlTnxhS7g068MD2LRsb29ohdx0m/0mSJEmSJElSMXUbAkmSJEmllMtnpZkzo965CyZcEi2u2Rw4y50ZSVqrocCZ9d25+1umdEyHuORTqTc2XjGqsbHt7FwuvhM4xi6RJEmSJEmSpKLznJkkSZKkksoVsvKcP4x9bW7b+JnQuwNE8w2nJK3VBOLo4pbmRf9onfLE3qV5ypm5yZPbp0PNvcBpQL3dIEmSJEmSJEkDoscQSJIkSSqlXDEeZG7bxAfntjW8J+6ND4HoTsMqSWsT7x3Hub9Pm9Jxyfubn9pwoJ5l8uS2SY2Nu94Sx/HFwIbGXZKk1X84GwJJkiRJkiRJkiRVmlwxH2zeVRP+2PHyuN0iopOBZwyvJK35PTiKo9Yalj3Y0tw581NHPlC0ynyNjb+fMHly2yVxzA0Q7WKoJUmSJEmSJEmSJEmSqk+u2A94443RsjltDRd01/duE8ecCywzzJK0RsOBM5+vG/q94j3ksvvjmFYgMrySJEmSJEmSJEmSJEnVKTdQDzx//sTn57WPn9ETRztCfLWhlqQ1i2BwER9uiBGVJEmSJEmSJEmSJEmqbrmBfoLL2hvunds24agoohmihwy5JEmSJEmSJEmSJEmSJEmFy5XqieYsGN8+dGzXthCdCrxs6CVJkiSlSGwIJEmSJEmSJEmSVGlypXyyCy7YY+nctobZ1C7dBuILgB67QJIkSZIkSZIkSZIkSZKk/suV40nn/naTRXPbJpzcm4v2Bv5mN0iSJEmSJEmSJEmSJEmS1D+5cj75pVc23DK3reHAiPg9RDxmd0iSJEmSJEmSJEmSJEmS1De58m9CFM9pmzB/aG+0HTGnA6/aLZIkSZIkSZIkSZIkSZIkrVkuLRtyQXvD63Pbx387ro23jaN4DhDbPZIkSZIkSZIkSZIkSZIkrVoubRs077cTOuYtmDA9inr3hehmu0iSJElSCXgBkiRJkiRJkiRJkipOLq0bNmfBxJu32G3cfkTxCcBTdpUkSZIkSZIkSZIkSZIkSW/KpXnjZs6MeucumHBJd33dFsBZQLddJkmSJEmSJEmSJEmSJElSyhMAl5s/f4NX57aNn9nb27sjRPPtNkmSJEmSJEmSJEmSJElS1uUqaWMvvWriA3PbGt4T98aHEMV32X2SJEmSJEmSJEmSJEmSpKzKVeJGz7tqwh87Xhq/a0R0MvCs3ShJkiSpQLEhkCRJkiRJkiRJUqXJVeqG33hjtGxOW8MF3fW9W8cx5wLL7E5JkiRJkiRJkiRJkiRJUlbkKr0B8+dPfH5e+/gZPXG0I3CNXSpJkiRJkiRJkiRJkiRJyoJctTTksvaGe+e2jT8yimiG+GG7VpIkSZIkSZIkSZIkSZJUzXLV1qA5C8a3d9e/tC1EpwIv28WSJEmSJEmSJEmSJEmSpGqUq8ZGzZ+//ZK5bQ2zqV26DcQXAL12tSRJkqQ1iA2BJEmSJEmSJEmSKk2umhs397ebLJrbNuHk3ly0F3CT3S1JkiRJkiRJkiRJkiRJqha1WWjkpVc23ALxAa3Nne+Oo+i7xGxs10uSJEmS9BaDgSEr/D0SqFnNfV9Y4fclwGuGT6o4GwLPAj2GQgVoALoMQ9kNST7HI2DUCrcPB+qS3+uSv1f0WvI5vlwv8BKwDHjFz3hJqkp1wIgVPi9G8NbzxSv//RJvnWntRcIsCq8DLyc/JVWmDYDnk+9+UiUYtdKyDuH45chkX2f5/ksMPJUsncCTjvNMGrrCGFn+M06+yyzfH34heR9cWg0Nrs1O30bxnDbmn9TU9bvXo/gLwBd464kNSZIkSZKqxTrAeMLB3Ibk5zhgLDCGcFJnRHK/dZLfBxXwfD2EE0MvJj9fXuHv5QfauoBFK/xcbDdJJTcUmAK0AIcBmwFPGBb100bAtGQcPQ8cYEiK9tk9Flg/WcYmn98jeTNRY8RKy/LbBvo4/xsrfbYv/7x/AXgGeJpwcm1R8vui5P+SpIG3fJ+vIfn8GLfC58m45HNk+efFSELCeDH1JJ8RLxKSx18hXGTStcLnQ1fyedGZLCZhSOUzZIV9wsOBLYFHDYvKJJd8Zm2cfI6NSz7XxhIuWtwg+Tmat17o1F/dwN3AncB/gT8Dt/PWBHelX5SMjQnJ0rDC/vO45Od6yc91+rmf/DLh+NhjwOPAvcBdyZh5ulICVJu1EXFBe8PrwMxp7+z4GT18M4qjlmSgSJIkSZJUSdYBdiAcrN18pWVMibelBlg3WfrqCeAB4MHk5wOEgysPYkUyqZhyQCPQCryLcPJ3uQmYAKi+f+a8KxlHBybjCjxZ2BeDCUmTGyc/l/++PuFk1obJ7/UpbsOQZNmwH+u8Sjh58kgyTh5Lft6XLEscGpLUZ+OA7YEtCBdwLN/v22yl73blUENIzBjdx/svTT4THgYeSpaHk33B+90XlAZsn3DSCvuEI1faJ/Q7vQbSmOTza0tgK2DTZH9oIuHi5boSbEM9sFuyLPc8IRFwAXAlXsCUpvGyeTJmtkh+34Q3k/4GDdDzjky+a22/iv89AfwN+DvwJ+CetAavNqujZt5vJ3QA01unPPHjOK6ZDfHevpYkSZKkzIoNgVJuM8JBqp2BnYAdCQfMKtnEZDlopdtfA+4AbgVuS37eRZVMxSCV0LbAicDxhIOkq3sd/sNQaTVqgCMIJwqbWfVsKg2EE4pZrpyQI5zA2opwUmt5ot/yn+MyGpfhrP4ESg8h2eMeQsLHf4FbCBcD+L1cUpYNSvb1dk5+Lv99vSpqYx1vntRf2WJChaY7CBV3lu8XvuDQkPKyDXACoXr3xNXcZ7xhUpFsAmxHuFh5+2T8bUH/LhYupXWB45KlG7gWuAhow2T0gRYl+8vbJWNlu2TZkr5fUFBKE4H3JwuEi9x+D/wa+AspOh5Sm/WRNWfBxJtnzoz3e/C2zhbi6Dv07ypGSZIkSZIGYl99N2A/YP/kZ5aSB4YB+ybLcq8TrrL8C3Aj8C/CwTlJbzUYeDdwEn2blnWiIdMqTAA+lCxrGyODCNXrnspAXEYAWxMS/bZd4fetKf50itWuhnByZ0vCFHTLvURI9LgF+Gfyuf+M4ZJUxcYk+3v7Ae8A9mDVCfdZ+i67e7IsFwMLk/3BmwgXr9zn0JFWq55Q5e8kQuXutc2EOMGQKY/36p14s6Lezsn+0YgKf900J8tjwHnATwlVAlV4bHdcYbzsSkj2G17BbdoU+ESyPAHMAy4gJAaWVa3jDWbOjHqBS6ZOffq39d1LPwecTrqnXJAkSZIkVZctCFWWjiRMyzLMkLzFUOCQZAF4g3AC6CrClbkPG6KS2JNwRXele4KQWFJNtiWc4JlO/66uL8fJnncSkn8q3d+BzioaQ8ur/Z0MHNXPPppAdSUA1hAS+3YmnJzYhVCVwOooA28dYHKyQEj6uIcwNddfgD8CzxqmtXoHoTpn2myeoT4YDkzN2Li7lTCVq9a+XzMp+cw9lFAdKTIsaxTxZmWgDye3PQPcQKjWdA3QZZhKZnfCDAWVrjP5Pl9Ntk72CU8gJBeneZ/wWEoz7WsxPQDcnsHXfA0heWs/3kzQ3q4C+68/NgbOBr4IfB/4AfCKb/99Hi/bJeNlb0LCX7WPl4mE/LLPE6aT/gFhuuCyMAFwBfPnb/AqMPP4Y56Yl8vVfAPiqUZFkiRJkjQAaggnfo4jnPzZwpD0yxDg4GT5AWGaqDbgSkJ1QA2MjwEfqIJ2/JVQCaHSDSZUdjiZvlX7W5VyVACcS3VUtvkE8H9V0I7xhEp/Hy5gPEwgVGyrREMJJ7R24c1kvx2T21V+EW9OI/xxwlRcNwO/S5b/GqJV+gKheonKZxxwecbaPB0TAFdnS6AJODz5DmrV2MKtD7wnWSBMFXwtYTq+v+LUjQPpZOAjVdCOfxASVCpdPeECq5PpW7W/1e0PlNrFwMgKi/WfgcYMvMbXTV4b+yQ/96SyK7UVYh3gLOBTwFeT/X8/X95qJOHio+UzuexVga/tYqlJ3o/fCVwHnEEZLj42AXAVLr1q4gPAe6Yd03FwVMMs4mgHoyJJkiRJKlBEOHj2XkJFkLGGpGiWJwd8kXBV9iXAHMK0HdLKtqzw7R9HSIQ5mXDysxBO95S/rSp8+/cFTiUcnC70GHGlVMaLCJVR9l1h2ZbqqEiZFTW8OVXmN5LP+V8Bl2IyoFRuTpH3VpsSktPeS0gw18DaKVk+T6hK/GtCEu7fgF7DoyrcJ9ww2Sf8KLCB+4QlsR8hIeylKmvXaMIFhcurcO8I5Ozut1gPOBc4MXnN/TvDsRiejJfGZNnd/elVOjRZfgl8lhJWKjYBcA3mXTXhj42N8a4TRy76YEz8jeTFLUmSJKn6xIZAA2gjwhXyJ1CealtZsyXwNcJVun8BLiQkBywxNEqMJVyR/HKFbfduhISt9wKDivSYvicV9l5TaWoJVSM/TZiOp1jSetJwBKECwfJkv33o3xTZSr+NCdXuvkCYKvhS4CKqa3puqVKYABim3GwF3p98/qg8NiRUav4E4YT7/GSf8A5DoxWsl3wvrLT3rl2AGcn7TH2RHnO8w6FP6oBDgN9UeDvqCQlchwMHATtjAldf7Uao6HYO8GVgaQbaXJscOzickNC2B+aY9cf7gKOBLwE/ogTnoOyctbjxxmgZcMHUqU/8etDi3JlRxCd8E5QkSZIkrUVNsoN/EnAkXj1bDjnevCL1O8B5wE+Apw2NCNXb/lMh47iZkPg3aQAefyzhRMZSh0ReY6hSjCYkon+SgUn6TMtJwzHJe/5kYH9gBzyOmyXbAV8HZgILks/9P+GFPlKpPJfRdkeEaTdPIlTVdXrfdGkgJEvNICRt/JRwcdhrhkbJ9/l/VsB25oBjkn3CyQPw+OOS78xObbp2R1CZCYBbExK4Dk/2l4balQW9Hr+QvBbfDzxUhW3caIXxcjAwym4vyAhCBclm4ANAx0APUPXB/PkTn5/XPn5GVBPtCFxjRCRJkiRJqzCMcFD2YcLJ56Pd906FsYSKgI8BP6fyp/tR4dI+BoYCnyJMaX0FA5P8R/L+1OBwyMsmFK8S40DZFPgx8ATwbQau4mO5KgAOB44iVGC4lZDg/WtCxR8rWWTX8kqX1xOqAn64Al6rUjXIWgXA4YSksoXAjcDxmPyXdvsk+4KdhCo8WxgS9wlTvn1Dku+19xGOL00eoOepI1TO1NodSUj8roTvw5OBHxAS1O4FZif7Tib/FceeyT7oUVXQlogwle9XgdsJx04vSPapRtnVRXNIEt+DB/JJPAnRT3OuaFg4t238kVFEM8QPGxFJkiRJEqHq0JmEgyQ/IFwtqfQZDHyQkBDwc0ICj7IprdXbRgKnA48QrhDerATPOcHhkJdaQoJdGm0LXALcD3yckJxeDWNoMOFE1teAm4AXgN8BnwV2xWPderttCNWeHiRUwDQ5RxoYcfKenAXrE06QPwbMIlRVUmVZh5BUdS+hGuDuhsR9wpQZQagw9gilS1Z1GuC+x2nHlG7bcODdwBzgKUIl7FNLdEwhq0YCbYQLAipNLWFK3x8l32n+A3yFcCGdBs4YQrG5Tw/UE3hQJE9zFoxv765/aVuITgVeNiKSJEmSlEkjgW8AjxKmnBtjSCpCLSER8D5CdayxhiRz0lbtYT3ePJn8LWCDEj73RIdD3tJ20nA3QgW8u4DW5L2uFEp1wvAdhBNZXwb2K2H7VPkmAj8kVGj+CFaHlIrtJap/6sjxyfvIo4QT5Ova7RWvBngPIenhOgau4rbcJ+yrdQnHlR4lVO8uZVU+LwrruyNStC3DgPcSpiV+GpgPtPgZVfLPklnJElXAth5CqO73JPAHQkK8x4RKqxb4frIUfcyYAFiA+fO3XzK3rWE2tUu3gfgCoNeoSJIkSVImDAJOIUyl8f8IV9qqMvvx44TqDzMwmSRL0pK41QB8jzdPJo8qwzZ4sDd/aTlpuD/we+AWwjQ9pT7mOwwYXYLnucchpwKNI5zwupUBnnpJyphqnv53NHA28AChkqhTJ1anQwhTOf8eqx+5T1h6Y4HvEi4GO5PyJG+ZANh3R5b5+YcAUwnJfk8DvwTemdyu8plBuMA4bUmAOaAROA9YREh4/whewJ4GnwZ+QZEvTjMBsAjm/naTRXPbJpzcm4v2Ikw/IUmSJKmyxIZA/XAssBCYTajapcq3DuFq3VuAAwxHJpQ7cauBMNXKw8BnGPgpWtfEkz35K/dJwwMIJ6v/SvlPRJViHC0CXnTYqQh2Aq4nVEsZZzikglVjAuAQ4POEKcRPw8SKrDiSkCQ+B9jEcGRin7CcyTpjgXMJU/1+jvJeWOoUwH33DsJsIKW0PInrQkLltssJ0/2alJ4uHyMk2qUhCXBr3pyx5gbgo8D6dlHqnACcX8wxYwJgEV16ZcMtc9saDoiI30PEY0ZEkiRJkqrKROBK4ApgM8NRlXYC/gz8H+VNyNLAG0Vpp9ldbj1CdYcHCFOt1KfkvU35KVcC4B7ANcBfSM90daU6abjQYacieidwN+HEi6T8VVsC4BHAXcB3cBrFLMoRptBcCJyRku/rGhjDKc+FAOsSKos+BHwKGJyCWHhRWN/VEaqGlsLWwNcJSaI3AB+g9MmH6p+Tga+W6bnXJSQh/oMw08n/w+M9leBDhOmAi/YlRkUVxXPaJswf2httB5wFvGFMJEmSJKmi1RCmcrgbmGI4qn/HnnDA7DZgH8NR1UqZvDUSmEk4yfM50nWlvid78lfqSpLbA78F/gUcnrJYlGocmQCoYhsNXAT8DqtiSPl6rkraMQ74FXA1XvClkJR1FvBfYLLhcJ+wCEYQkkofJlQWTdM+oRUA++eIAXzsocCJwN8ISVxfAjYy5BXly4SkrlKICBcFzgU6CRc0eyyz8pxKuEi4YCYADpAL2hten9s2fmZcG28VR/EcnFJMkiRJkirRxsCfCNPDjjAcmbIlYVrNrxKSQFWdfTzQhgJfIJzkOZN0Xq3vFeH5G09pqoVuTpiK7g7gONIxpdCqYlEK9zjsNECOIiT/728opH6r9AqAEaFiz0LgPXanVrI18EdCsvgow+E+YR6GEC4Ce5iQVLpOCuPgRWH9c+QAPOauwI+BLuAXhKmGVbnOY2Cr9a8HfDb57nIjMI10VBNV/mYBhxb6ICYADrB5v53QMW/BhOlRnJsM3G5EJEmSJKlivC/ZjzvQUGRWLfAV4Pc4/Vc1GshqDzXAScCDwLeBMSmOwwbAIIdDXiJgiwHum/MIB/VbSPexXCsAqhqMJ0yv9jlDIfVLJScAbgC0AT8hnUk5Ss93vhMI1QAnGQ73CfuxT/jhZJ/wu4SEnTR/B4ocDv3a99mxCI8zmFDt79/ArcDH/SyqGnXApRS/wvjewDygAziHkKSu6lCb9G1DIQ9iAmCJzGkf9+ctdmvYnSg+AXjKiEiSJEmpYsVurWgI4er+y/AKfwWHEQ7I7mwoqspWAzhebgfOJ0wll3Y5nPIpbeNoMHA68ADwUcLJg7QzAVDVopZwkv7nFfLak9KgUhMAjyZU1z3GLlQfbUSoBvgtPyP8Lr8WhxASun5KgckcJTIEL3rsr0KmAZ4IfBN4glDtbw/DWZUagEsoPCdrEHA88M9kOR6oN7xVaX1CEmDeM9GYAFhCM2dGvXMXTLikNrdkGyK+DXQbFUmSJElKlYnA3whX90sr2gz4OzDFUFSNYk/3tB2hWuS1wA4VFgunfMpfMU8aRsB7CUlu3yKdU0avTqmSSB8DXnfYqQQ+CLQDIwyFtFaVlgBYC3wveY1vaPepn2oIF2r8ze/Q7hOuwjbJe8t1wE7uE1a1fKYBPhCYT5gO+oukuyqkiuMIQmXHfKwPnAE8SkgK29twZkIjMCPflU0ALIOLrtz0xbkLxp/e29u7I0TzjYgkSZIkpcL+hCpvuxkKrcZQ4DeEaXxU+bagOMfG1gd+TJgS7MgKjcVEh0PeinXScB/gJuCXwCYVGIdSnTDsBe512KlEDgduJN3TuEtpUEkJgGOAq4HP4HSXKsxewH+S4wiqXJtTQKWlFawH/JDKripqVfj+eQd9u1CkBng3cDPw5+T3WsOXKd/o5/7y5sD/ES5+O4vKmFlCxfW1ZBz0mwmAZXTpVRMfmNvW8J5cxKFE8V1GRJIkSZLKpoUwlY8VILQ2NcAFwP8zFBVvCIUlLdUBnydM0/pxKvsgvgmA+duqCLG/jFBhdN8KjsNoYFiJnstpgFVKuxGq+Iw2FNJqVUoC4E7AvwhTc0rFsGFyHOFkQ1GxBgEbF7hP+Jlkn/CTVPbU0FYA7P/YWdPnydDkOMF9hKp/exmyzBoJ/KgP99sd+FUyZj5GOGalbBpKSALtNxMAU+CSBeOvH7rhk7tFRCcDzxoRSZIkSSqpU4BLCAfvpL6ICFfwfstQVLx8k7cmEyr+fQdYpwri4Mme/OVbAXB5AulC4H1URxWiUlUNMQFQpbYr8AdglKGQVum5CtjGQwmVdjezu1Rkg4CfAN/HqpJZ2yc8ELiNMKV4NXxHcJ+w/45YxW3rAF8hVG/7MXlW8VLVmQIctpr/TQKuJ1SVfQ/FqUqqyncY0NTflUwATIkLLthj6Zy2hgu663u3jmPOBXqMiiRJklQysSHIrLOA2XigXvk5HTjDMFS0/p7sGQvMJVT62LaK4mAFwPytB6zbz3UmEU4WfofSVc0rhVKdNLzHYacy2ANYANQbCult0l4B8L3AVcBwu0oD6NPAxVR2BTj3CftmQ8JFpDcC21dRHJwCuP+OXOH3dQnHGB8FvprsJ0or+gZvPf7cmLyP3AgcbHi0Cuf093uFCYApM3/+xOfntY+fEdVEO8ZwrRGRJEmSpAHdiTZ5S4U6C/icYahYfa3eVkOoFnovMI3qSxq22kNh+nrScCwwB7iB6jpZuJwVAFXtDgR+iheOSCuKgRdSvH0fBy7Fau8qjVbgCsLUfarOfcJPJPuEre4TinAhXSPwTULi3xlYMVqrtwfwbuAg4M/JcYFJhkVrsBVwQn9WMAEwpeZc0bBwXtv4I6KIZogfNiKSJEmSVFRnAZ81DCqS7wAfMAwVqS+JW/sSpmKZTXVM97sqVgAszNpOGtYAnyQkrrVQvclDpTpp+BCwxGGnMmkFvmQYpP95GViW0m37DGH6Rc+FqpSOBn6HSYDVtk+4F/Av4EdUb4KXCYD5+RPwRWCEoVAfzCHMKHGgoVAffYl+XMjil960vwMsGN/eXf/SthCdmuxISZIkSZIK8zms/KfiioCf4JW7lWhNiVsjgfOAvwG7VHkc1gcGOxzytqaThjsDNwM/pPqrQZSqAuBS4EGHncroLOBwwyAB6Z3+92OEiu9SOTQCv8Vp46thn3AEIenvH8BufpfXKlgZWv3h54L6axPCRWh9YgJgBZg/f/slc9saZi+jZ1uILwB6jYokSZIk5eVDhGptUrENAn4DbG4oKsqmQN0qbj8SuAv4KNk4fhbhCZ9CbLma94SvAv8Gds9IHEpZNeQeh53KKAdcAowzFFIqEwBPJCTsmJShcjocuHw1+xpKl41YdVLO4cCdhGl/s7BPuA5WsZOkNPp0X7/XmgBYQX7ZtlHX3LYJJ0dEewM3GRFJkiSpaGJDkAmTCdW8PBGkgTIGaAeGG4qKUQtstsLf6wIXA78ne9PiOg1w/lauALg3cCvwFbJ10reUCYALHXYqsw0IU3h5jkVZ91zKtudY4Ge+NpUSzcBFeAwi7WqALVb4ezTwC+AaYOOMxcKLwiQpfbYHDuvLHf0CXIHmtDX8Z25bwwER8XuAx42IJEmSJK3VVsCv8ep7Dbxtgf8zDBVlefW2dwF3A9MzGocJDoWCxlAEDCVMN3gT4QBt1pTyhKEJgEqDgwlVgaQsS1MFwD2AeYRkHiktjgdmGoaK2Sc8NtknPNF9QklSipzclzuZAFixonhO24T5Q+NoW+AsYLExkSRJkqRVGgVcRajsJZVCK3CCYagYBwDzCUnCYzMcBysA5m848D7gv8BnyW7iwQaEqY9LwSmAlRbf8P1TGZeWBMCJQBshGV9Km68A0wxDqu0P/BK4AhiX4TiYAChJ6XQUfTi3YQJghbugveH1uW3jZy6L2CqO4jk4dZkkSZIkrexnvHk1t1QqPwK2NgwV4QvAuw2DJ3sKdClvnTosi3JAQ4me636gx2GnFBiRfOZLWZWGBMBhQDvZTtpRukXAz4F9DUVqfRZ4r2FwCmBJSql6YOra7mQCYJX45YLxT8xbMGE6ud6DCFcbS5IkSZLCtGzvMgwqg+HAhXjsRZXDClYqhlKdNHwDeNRwKyWagSbDoIxKQwLgj4Gd7QqlXD3wK2A9Q6EU86IwSUqvtVYT9iB0lZl75cQbt9itYTei+ATgaSMiSZIk9YmVtKvTrsA5hkFltB8hCVWqBCYAqhhKedJwoeFWipxNdqf/VraVOwHwROAEu0EV9H37YkJFQCmNrAAoSem1P7DJmu5gAmAVmjkz6p27YMIltbklWxPxbaDbqEiSJEnKmHpgDjDYUKjMvglsbBhUAaz2oGIo5UnDewy3UmQ7QiKSlDXlTADcnlD9T6okRwGfNwxyn1CS1E8RcPya7mACYBW76MpNX5y7YPzpuZp4pwiuMiKSJEmSMuRLhBNCUrkNB35oGFQBxgBDDIMKZAVAZdlMvPhE2fNcmZ63DpgHDLULVIG+TpixQMryd3lJUv81remfJgBmwCVXTLh/Ttv4plzEoTHcbUQkSZIkVbmdgNMNg1KkCTjMMCjlIjzho8KVsgKgCYBKmwk4Famyp1wJgF8Cdjb8qlB1wEXAIEOhlFkPL2aQpDTbExi9un+aAJghlywYf/2wsYt2hehU4EUjIkmSJKkK5YALCQfUpTT5LlBjGJRyEw2BClTqCoCxIVfKfNbPe2XMC2V4zp2ALxp6VTgvXFQaRUCDYZCk1KoBGlf3TxMAM+aCC/ZYOretYXZ3fe/mccy5QI9RkSRJklRFPgjsbhiUQjsl41NKMysAqpLG0MtApyFXymwJHGcYlBExpU8ArCFc8GXlNFWDLwE7GAa5TyhJ6odDVvcPEwAzav78ic/Pax8/I6qJdozhWiMiSZKkjLN6THUYCXzdMCjFzgDqDYNSzAqAKtQ4SnvM2WmAlUafNgTKiFeApSV+zo/gBV+qHoOAcw2DUma8IZCkVDMBUKs254qGhfPaxh8RRTRD/LARkSRJklTBvgxsaBiUYhOADxgGpXyMSoWoK/FnsQmASqP9gO0NgzLguRI/32jga4ZdVWYy8C7DIPcJJUl9tBWwyar+YQKgAJizYHx7d/1L20J0KuGqLUmSJEmqJBOBUwyDKsDpOGWZ0v1eKhWqlCcN7zHcSqkPGQJlQKmn/z0TWM+wqwp9FxhsGJQSVgCUpPTbb1U3mgCo/5k/f/slc9saZi+jZxuILwB6jYokSZKkCvFFnFpVlWFjoNUwKKVMAFQxlPKkoRUAlVatfjdVBpSyAuBWwMcNuarUpsCphkEpYQVASUq/XVd1owmAeptftm3UNbdtwskR0d7A342IJEmSpJTbCKusqLKcCkSGQSnkyR5V2jgyAVBptR5wpGFQlXu+hM91BmGaealafQ4YaRjkPqEkqQ9MAFT/zGlr+M/ctob9I+L3AI8bEUmSJFWx2BBUtP+HU6qqsuwATDYMSqF1gWGGQQUq5UnDZ4BnDblS6l2GQFWuVAmA2wLvM9yqcmOAGYZBKeAUwJKUfrus6kYTALUWUTynbcL8oXG0LXAWsNiYSJIkSUqRDYATDIMq0KcMgVLKig8qVKlPGloFUGk1BRhsGFTFSjUF8JlAjeFWBnwGGG0YVGbjgFrDIEmpNgaYuPKNJgCqTy5ob3h9btv4mcsitoqjeI4RkSRJkpQSH8MTq6pMTYTpq6W0mWgIVKBSJ5HeY8iVUiOAQwyDqtgLJXiOrYCphloZMYpwjEMqpxpgrGGQpNR72zTAJgCqX365YPwT8xZMmE6udzLwXyMiSZIkqYzqgY8aBlWoGmC6YVAKWQFQhbICoPSmJkOgKlaKKYBn4LlMZcsngEGGQRn7Pi9J6r9dVr7B8q3Ky9wrJ944c2a824O3dbYQR98lTLslSZIkSaX0XrwquZgWAx1AF/AM0Au8tNLPEYRjCSMJCWzrEA4MT0xuU/+0Al83DEoZKwCqUKVOIjUBUGl2qCFQFRvoKYBHAycYZmVMA/AeYK6hUJm/z99sGCQp1bZY+QYTAJW3mTOjXuCSE499pG1ZPOh0Yj6NV6VIkiSpMsWGoCKdZAjy8iJw6wrLQqCTkPRXiJGExKGtgd2BPYA9CSfutGpbAfsA/zQUShETAFWoIcAYBj4xZLlKnQK4J4nR88nP5b+/BryafF6/nvz9crK8BryRrP8asCT5/RVg2SqeYxAwbIW/Ryef1yOSnyMJyfwbEhL6G5L3gLFAnUO5KDYlnJh50FCoCg10BcCTVnoPk7LiVEwAVHlZAVCS0m+TlW8wAVAFu+jKTV8ETp9+XMeFcU/0vRiOMSqSJEmSBthWwH6GoU+WAX8DrgJ+B9w7QM/zMnB3svx2hdu3BZqB44C9gMgueYtWTABUujgFsIphPKVLAOxMPoPSUIl2GfAUoZruk8m2PZn8vQh4OonLs4TqumkVERIBtwN2BLYHdkiWeod3vx2KCYCqTgOZAJgDPmqIB0Rv8nn0dPI59TTQnXyGvZLc50XChZLDCQnh9cDQpF/WJ8wK1kBIIB9sSItud7xQTO4TSpLWbJOVbzABUEVzyRUT7geapk/pPKQnZlYUDgxJkiRJ0kA4ERPJ1uZm4DygDXihjNuxMFm+TUgImQacgleUL3cc8CnCiTgpDawAqGKYANxRoueKCcnte5Xgud4AHgUeW+Hn8t8fJST/VcP7eQw8nizXrHD7UMIFGAcBkwnVfj3HsHaTk+9kUrV5foBfN5sY4oI8m3wW3wPclfx8gFD5vaeIz7NO0lfbEpLGtyMkjG9GSBhUfj6ACYAq73d5SVK6NRCq/i+fGcCdcxXfJQvGX3/SSf/Z9fUnGz4OnAXxOkZFkiRJUhHVANMNwyp1A/OA/wNuSeH2dQLfAX4AvA/4HLBTxvtsHLA38A+Hr1LCkz2qxHG0kOIlAC4BHiYkFd5PSJa4H7iPkOCXZa8D1ycLwHrA8cn3st0d9qu1T4mfb0pK43Ae2ano9hqhcpry90FD0G8vAH8G/pgsC0v0vC8B/02WX65w+3qERM6DCYnjW9pF/fJe4NPJZ69Ual6wKUnpV0O4iPeh5TeYAKgBccEFeywFZk8/rmNuz7LojCjiE8kAlCRJkqRC7YcHI1fl18BphKSFtFsKzAEuBT4OfI1QOSKrjsMEQKXHKGAEb04BJ+Wj1J/T9+SxTjdvVkVavtxHqOi3zC7sk2eBc5Nle+AzhGRAzzu81URCUmyHoZD6/F3kOMPQJy8DvwEuBv5GcSv7FeMzYn6yQKgI2AK0AlvYdWu1DvCuZL9ZKjUvCpOkyrAJKyQAWnpZA+qSKyY8N699/IzeXLwHxH82IpIkSUqp2BBUlHcZgre4AzgAmEplJP+tqAf4IWGaqCsz3IfHOoyVIn/G5B0V5llC9bxSWluVo0eBKwgJ5+8hTFM4HNiNkLD2HeD3hAPnJv/l527gQ4REwF/i1PYr28cQSP3a3xtiGNboJkIF1rGEaol/Jl3Jf6vyMPBVYCvgHcCFhAvDtHothkBl0AP83TBIUkXYZMU/TABUSVx65YTb57ZNaIwimoFHjIgkSZKkPEVYDWJFPyZMH/u3Cm9HF/BO4AyymZC7JaEihlQuvYTqMXsDjYQp5KT+ehQ4BdgYuKzEz71iAuAThGS/LwNHAOsDm67wOTOfkKBoot/AuB94P2G6RyvevWlvQyD1mRd8rd7fgEOB/ZPP2jcqsA0xIbnoQ4RkwJ9iIuDqTAbWNQwqkcXAT4BtCJU6JUnpt8GKf5gAqJKas2B8e3f9i9tAdCpOJSNJkiSp//YANjIMvERIZPgk4SBtNYgJlZneRWWeyCrUIQ5rlcFi4HzCSZ53A/8yJMrDf4FphGTmHwKvl2EbHgGOJlRC2ij5jPwGcC2hIqFK78/AzoRkTIVYSFq7UcDBhuFtHgQOJ1R+v76K2vUocBIhEfC3dvPb1AFTDIMG2AvANwlVpD6WvN9IkirDWy4UcDoPldz8+dsvAWa/r/nx+bXkzoTow5iMKkmSJKlvjjIEPEc4+XNLlbbvCsL0jL8lnPDIikOBCxzeKpEXgP8jJGs9ZTiUpxsIU+deS/mrt/YQpvBVujxPSOyfRagOmWU7OhykPjkGGGQY3vL5Nhv4CuVJsC+VR5PPi/cm30/Xt+v/513ALwyDBkAH8ANCFU6L9qhQS5P38geBB4CHCPkf9cBIYDwwIflOvIHhUvK95uFkrDyUjJ/a5HvgOkADMJFwIdUYw7VaJgAqHX7ZtlEXcPK0pkU/i6LeWcB+RkWSJEnSWhyW8fY/SUgUu6vK23kVYUqoiwnTPmfBQUAN4SSfNJDvIecQqv69ajiUhxhoJ1TXs2Kk+jpmTk0+zz+V4TiMJSS0POOQkNbIamdv6iBcGPWPDLX5V8CfgIvw4r/lDgGGAa8ZChXJg4SKf/OAJYZD/fQqcDuhCvx9hGS/BwnJW8v6+BgTkve2Y4AmTPyvdo8lY+bOZLwsT/pb1I/H2IhwPLwp+X5QZ1j/xwRApcu89nH/hnj/1ubOd8dE5+B0XpIkSSq92BBUhFHAXhlu/8uEA2R3Z6S9c4CtgS9lpL3rAtsDd/hS1wB4Avgu8DOyOcW2CtdLqMz6dcLJHqm/37VnEBLg3pfhOOxISGyRtGq1yf6O4DbCSe7ODLb9GaCZUPnwEw4F6oFG4HeGQgW6h5D490u88FB98yJwa/KZdGuy3J/sGxaig5DofRGwHqFS+KeB4Ya8oi0jJIXenoyZ5T+fL8JjPw78PFk2JFxgdgow1LAzesU/nHZVKRHFc9omzI8W12wHnAUsNiaSJEmSVnIw2b2QrReYRnaS/5Y7i+qd6nhV9vVlriJ7GDgJ2IIwnZrJf+qvHuBSQuLSVEz+U/5i4KOE6iBZtY3DQFqjvQgXfWXd74ADyWby34rfPz4JfJbCE02qwWGGQAW4g1BNdEdC1T+T/7Q6jxBm4vgAsCUhsehg4HPJPuG9A/Ce/CxwBrAVcLVdUFHeAG4gHLs9iDBt7w5AC/A94I8UJ/lvZU8BX0z2rf5oN7y1AqAJgEqVOX8Y+9rctvEzl0VsFUfxHCMiSZIkaQWTM9z2LxOmxc2apYQDR1m5SMwEQBXLfcAJhCqaP8WpnZTf++9FwLaEBPR7DImK4KXkcz2ryRybOwSkNTrcEHA98E7CFIuC7wOfMQy+NpSX/wDHArsA8zGZVm/3EHBhcuxgY2Az4MRkP/DBEm/LIuBoQpVKpdOrwLWEmVoOIFy0cRAwk5AI+HqJt+cJQoL8rIz3i1MAK/1+uWD8E8D045s7fpEj+oERkSRJkgTsl9F2/wP4dob7/V7gR4QrjqudCYAq1H3AVwnTOnmCR/lYRpiC/WuEChBSsd0E/Ap4fwbbvpndL63RoRlv/62E5D8v3Hir2cCEjOwPrs7WwERCsoO0NrcAZ+K00Xq7xYRErTbg94RpVdMkJiSX9RIuhFb5PQS0J8tfCRcKpkkvYfroOPmZRSNX/MMKgEq1S9sm3NBd37B7Dr5lNCRJkqRMG06YriRrlhKm78x6Is/ZwMsZaOfyKVak/nqIcKX+9oSpeUz+U3/1AnOB7YAPYvKfBtZXyeb0c1YAlFZvCLB7htv/OKHy0SsOhVX6AnB5xmPwDoeB1uIO4DhgT0z+05ueBn5BSDBfDzgK+AnpS/5b0RmEhDOVXg/wN+B0wvGlLQiJdX8ifcl/K/o8oYpyFtWt+IcVAJV68+dHy99oJEmSJGXX3hndh/0ecJfdz3OE6Z9mVnk7I2Bn4Ea7XH30GPB14GLSfTBW6dUL/Bo4C6f5VencS0jkyFoVQCsASqu3BzAow5/FJwJPOgxWKyZcGLcPsFFGY/AOQpVvaWX3JN/lf40Xgil4PHm/uBK4uQLHRQx8FDgQWMfuHHA9wB+By4CrgGcrtA0fIRxDH5ax/nvL92crAEqSJElSOLCgdNsng21+GfiOXf8/55ONBKed7Wr1QQfwcWAr4GeY/Kf8vvtcCewKvBeT/1R6P89gm4cB69r10iplubrZDwlTMmrNXiJUKY59jUgAPAC0EmbLuByT/7LuBeCnwCRgU+A04B8VPC66gFl264C6BfgMYYr5w4GLqMzkv+UeBc7LYD/mWKFoggmAkiRJkqRKsEsG2/xjwgE8BU+SjSlATADUmjxLOEC7JeHA5hJDojxcB+xFmCLsDsOhMrmRbFa7GmfXS6u0X0bb/QDwRbu/z/5INk/uA+wEjHAIiHAx2IeB7YC5mPiXZYuB3yT7deMIlVL/UkVj4tykjSqeRwizSGxLqL78A2BRFbXv+8CyDPbr/6YBNgFQkiRJklQJspYU9TrhIIzeKgvVgnaym7UKrxEO0m6evDd4EFz5uAU4LFn+YzhUZj2EajVZYwKgtGq7ZbTdXwbesPv75UzglQy2u8Z9xcx7gVDVbSvCsZFlhiSz7gA+BowF3k2o7N5dhe18njAlrQqzFJgPTCYcU/oKcG+VtnUR8IcM9vH/pgE2AVCSJEmSlHbDCQcosuQK4Bm7/m2uI0yNXM22tJu1gqXA/wFbEA7SvmxIlIcHgfcDeybvo1JaXJPBNpsAKL3d+sD4DLb7duDXdn+/PQvMzmjbd7H7M+kN4DuE42LfwaThrFoCXAYcQLhI+ieEqdGr3RV2fd4WAWcBmwDvIVRgjzPQ7isz2NcmAEqSJEmSKsZOGdx/nWe3r9JSwrRP1WwksJ5dnXkx8EvCtE6fIJvTZKpwTwGfTMbRL8nGwX5Vln+SvWnrTACU3m6XjLb7DJy6M1/fI1RDy5qd7fpM6SFU+tuKUPnvBUOSSY8DXwI2Ao4H/pax9t/oEOi3vwDvAzYGZgJdGWv/DRnsc6cAliRJkqQVeEI83bbOWHufwgpNa5KFakGb2s2Zdj2wB6Fi24OGQ3l4lTA93hbAjwnJ01IavUD1Tj+1OmPsdultdslgm+/HaQ0L8SLwM18rqmJtwI7Ah4EOw5FJNwHHApsB3yQcK8yiLqDT4bBWy4C5hETxScCvMnwc4MHke0KW1Cz/xQRASZIkSVLabZWx9i4gHLjRqmXhSs7N7OZMWggcAxwK3Go4lIde3qwS8lVCIqCUdv/MWHtH2+XS22yfwTZfhBciFuoXGWzzdkBk11e124CDgCnJ/qGy52rgQGB/wvHBHkPCPYZgtbqBCwgXz7cCdxiSbI8ZEwAlSZIkSWm3Zcba+ye7fI2ycCWnCYDZ8hxwKmG6898ZDhXw2bE7oUrIIsOhCvJAxtq7rl0uvU3WLvjqJVTpUWEWAjdnrM3DgAa7vip1AScDe5LN6SuzrpdQFXYv4Cjgr4bkLawA+HbLE/+2SN47HjYkjhkwAVCSJEmSlH5ZSgCM8WBvX2J0e5W30QTAbFgMnJ3092ys/Kn8LASagIMz8N6o6pS1qc6tACi93RYZa+91wBN2e1FksQrg1nZ7VXkNmElIhL4Aq71lzRJCBfdtk326fxuSVXrJEPzPy4QpoScSEv+cItwx8xYmACqLnP5EksrHHVhJUj6ylAx1N/C0Xb5W1T496qZ2cVWLgcuAbYAvEg7gSv31LPBJQuXIqwyHKljWqlWYACi9/TWxfsba7Oe2sSzEVnZ7VeglJLBuBZxFSARUtvr/UkLi34eB+w3JGpkAGJJFfwhsDnwJeMaQOGZWxQRAZe8TtWfZXkR8O3mjlCSVxqsQnzVkSN23DIWklIoNQWqNAoZnqL232eV9Uu3TBVoBsHrdAuwPHA88ZjiUh2XAuYSThT/GypGqfI9krL1D7XLpLbbIYJuvs9uLppNQDdnXjCrJPwhTvX6QMPWvsuUPwB7ANJy2ta+ynAAYA/OB7YFTCBcCyjGzWrX2vbLm0t9t/AJwektz5y+Io+8TxUcZFUkaoG+mMb25HPNyufjzf/zjlKeMiCQpDxMy1t677fI+ebTK2zeRcMzGxJ7q8QzhKu2fE672l/JxA+Gg/12GQlXkxeTzLivnKgbZ5dLbvvdmyePAfXZ7UV1PqKLla0Zptwg4HZiDFyJn0S3AacAfDUW/ZXV2x78CXwD+6RBwzPSVFQCVWXPbxt83t73h6FzEocA9RkSSii26OZfr3e+GG5qnm/wnSSpA1g5umwDYN49WeftqgXXt5qqwDJhNqNb2U0z+U34eB94DHITJf6o+MfBChtprAqD0Vlm74MvED2PqayZ7lgDnANsAl2DyX9Z0AO8D9vQzoKD9hSx5BDgWOBCT/xwz/WQCoDLvkgXjrx86dtEuEJ0KkXPIS1Lh36s6oig64cYbj9n3hhuOvdl4SJIKND5j7V1ol/fJ4xloowmAle+PwC7AqYQKV1J/LQa+RqhqM99wqIplKQGw3u6W3iJrF3zdZpcX3S0Za68JgJXlWmAn4PPAy4Yjk64GfoWJn+q7Bcki9ZsJgBJwwQV7LJ3b1jA7V9O7eRxzLtBjVCSpf+KY1yE+q7u7e6sbbmi6BCJ3aCRJxbB+xtrbaZf3yevAG1XeRhMAK9fjwLuBQ7Cqp/LXBmwHnJG850nV7PkMtdUKgNJbZS2Z6U67vOg6yFYi+Tigxm5PvUcJFbyOwGm/JUklYgKgtIJLrpjw3Lz28TOIo70I86pLktYujqJofk1NzXY33jhl5j/+8Z43DImkSnwvMwSptV6G2voCodqT+h6vajbGLq44y4BzgR2A3xgO5amTMN3vFMLUP1IWZOk4ggmA0luNzVh7vThkYNyVobbW4cViabY02SfcESt4SZJKrNYQSG83t73hVuDA1imdTb0x50awiVGRpFW6JYriGTfc0HyToZAkDZAsJUE9ZXf3y/NAQxW3z5M6leUvwMfxpK7ytxT4PmHK39cMhzJmSYba6hTAUna/8y4CnrHLB8SdwAEZau96jqVU+nOyT3iPoZAklYMVAKU1mLNgfPuS+t7tiDkdeNWISNJy0aIo4uQbb7x1rxtumGLynyRpIGUpAfBpu7tfXnTsKyWv2xOBRkz+U/7+AuwKnI7Jf8qmpRlqa0So3iQpe995H7W7B8xDvm5U5n3CE4DJmPwnSSojEwCltZg/f+Ibc9vHfzvX27tNHMVzcHo4SRkWxyyJY84dMqRmmxtuaL4AZvYaFUnSAFvn/7d353F21oW9+D/PZEIgKC6VbWZSUFB2FGRxQ1G0LctM0Da51UxCta3c3l4N7a+30uVeQ1tbube3NXS519jeamaC1mnVmUGwGMgJiAsqLqjsipAJOwFkyTJznt8fZ5CdbDOZc87zfr9ez2sghOT5fr7P2T/n+63QWB8z3dul3VcLsgJgc6sn+XiSw5J8ynsF7KB7krw3CqSwuWLjtQogPKFKRaY7TLdsp8jLTHlTvSY8NMlKrwkBmGm2AIZttPKieWNJlrznzNv/vqPesTzJ66QCVMxFs2d3LF29+owfiwKAXWj3Co11k+neLgqAzJQfJPntJF8XBTuoTPLJJH+QxnbmUHXjFRvvbqYckiR7VOz13p2mXLZT5CWm3GtCAHg6BUDYThd+Yd7VSfmG/vlji1MW5yfZTypAm7uuKDp+b82aM/5DFADMgCqtkLLRdG+Xdt8u0LZOzWdTko8k+WiqtV0lU+uWJGcnuUwU8HNV211AARAadq/YeK0AKFu3nfZ4TfiXk68JN4sDgGZiC2DYIUU5ONyzstg46+Ak58UHdUAbKsvcn5Tn7L33xqOU/4Aq3O2JoGlVqQDozePt0+4FrD1NcVO5Mslrkvx5lP/YMeNJ/jrJ0VH+g6orRABJqldiutuUT5u73HbYBa5KckySP4v3bwBoQlYAhJ0wcOl+jyRZ1t93+2Ay6y+TcoFUgNZXbCnL8l+KoviTWq3vXnkAMMOq9MZ23XRvl3Yv7lodqDk8mOTDSf7ObZSd8P00tgi7WhRAfPkIHjenYuN91JRPm0fcdpjm6+vP0/gyz4Q4AGhWCoAwBQZH5t2cZOHi3nVvK4uOjyXlUVIBWlOxuijKc2q1vh/KAoAm4Y1tqmq2CGbcRUn+S5LbRcEO2pjk/DS2CbNKCPA4BUBoqNoqZptM+bTZnMaXdTrcdphiFyf5nSS3iQKAZqcACFNoYLTn8pNPLo+dt9cd7ytT/kWSvaUCtIKyLG8siuL/q9V6L5IGAE1GARDXPjPh/iS9YmAn/UuSZWIAnsYWwFDN57sKgNOf7x4VGasC4K7xsySniwGAVtEhAphatVoxPjDStaI+MX5IWeaCJONSAZrYA0nOnTt39tG1Wp/yHwDNyBvbVJUVAGeW1ZlwHQHuG2B6Va0AuNGUy3eK7Ga6PV4DwNNZARCmyYVfPGBDkqX9fWP/mLL4mxTlaVIBmuaVa5l6R0dWzZ49/geXXvquuyUC4E29JmYVNKrKhzoAAHit1z62mPJpVaUVFvcw3QDA0ykAwjQbHOm+IcnpS+aPvb1ezwUpcphUgBlW6+gozlmzpvd7ogCgBV6zWrmeqlIABACgnVntnalUpS92+qIkAPAMPkiBXWTlcPfqufvf8eqkOCfJQxIBZsDtRVGcVav1vVX5D4AWUYiAClMABID2ZPVx8HwXdoYCIADwDAqAsAutWHHclsGRruUTZXFQWeaCJBNSAXaBR5LyvOSFr1qzpnelOAAAWsJsEQBAW1IAhAZf+AIAgCliC2CYAZ8e7bo3ydL+3vWfSlF+LMlJUgGmQVkUxb/NmpU/WL267zZxAAC0FAVAAGhPSk8AAABMKSsAUjn9vWMjS85Y9/pmOJfB0a5rBke631wU6SuTW80OMIW+2dFRf9OaNb0LV6/uVf4D2DqrcADNRjkAALz2AAAAgK1SAKR6ihxf7yiuWjR/3crfOO3u/ZrhlAaGu0f3LIsjUubcJA+bJGBHlWXWF0XOrtWued3ll5/5VYkAAAAANBUFQAAAAKaULYCpqqIoi8XjnVve1d839tedD23+6CdrL984kye0YrTr0STnLznj9sGJWcVfFWXRHys+ANvusSQXjI+XH7nqqvk/EwcAtKQDkywQwzbrEQEA0IK85wsAAMCUUgCk6vZM8uHxvXZbtLhv3R8PjPQMzfQJrbxo3liSJe858/a/76h3LE/yOtMEbMVF9Xo+eMUVfT8RBQC0tDdPHgAAtC8rAAIAADClbAEMDQeXKT7b3zd22ZK+249uhhO68Avzrh4c6XpDivKsJHeaIuBZfKejo3xLrdbXq/wHAAAA0BIUAAEAAJhSCoDwVG+rp+Pb/X3rPv7eU+/Ye+ZPpygHh3tWFhtnHZzkvCSbTBGQ5L6kPGfvvTcef/nl868QB8CU8CEcAAAAAAAALUcBEJ6pMynev2V2/Yb+3rEPLVjww91m+oQGLt3vkcGR7mVJ/cikGDJFUFXFlrLMBZ2dGw+q1eYvHxpaOCETAAAAAAAAAKguBUB4bi9JkY/O2fTi7y+ef/tpzXBCgyPzbh4c6VpYlOUpSXGtKYIqKVbPmjXxmrVr+5auXr3wQXkAAAAAtCSrjwMAADClFABh6w4py44vLuob+/Lid64/rBlOaGC05/J1D+1/bJHi7CT3mCJoazcURXF6rdb7jssuO/NH4gAAAAAAAAAAHqcACNuoSN5eTuR7i3rHli9YcMuLZvp8arVifGCka0V9YvyQsswFScbNErSVDUnO3XvvjUevWdN7sTgAAAAAAAAAgKdTAITtUs4uinxwzqbdb+nvW790wYJy1kyf0YVfPGDDqtHupRNlcVRSXmKOoMXvZcrUiyIDExOdh9RqfecPDS3cLBWAXXMXLAIAAMBrDwAAAFqNAiDsmF9Iyo/N2bT+6v75609qhhP69GjX9YMjPacVRfqS4hZTBK2nLHN5Z2d5zJo1fUuuvPI023sDAAAAAAAAAM9LARB2zrEpyysW942N/saZdxzYDCc0MNw9One/9YclxTlJHjJF0BJuLsty4dq1fadcdtn874sDAAAAAAAAANgWnSKAnVcmZ4zX66f0zx+7YNNus/9iaGifh2fyfFasOG5LkuX977r1sxnvXJYUv5lklpmCpvNIUv51stdH165960ZxAAAAQCXMTfKyJHsn2T3JHpO//sI03rPvSPKiCuVxkEsCAAAAdpwCIEydPVLmQ3M2benvn7/ujweHuweSopzJExr83IF3JDm7v3f9x1OUy5O8yTRBUyiLIoNlOesPa7XT7xQHAAAAtI39kxyS5FVpFNv2TaPo97Ik+03+nCsmAAAAYKooAMLU605ZfGpx7x2/W8+6patGe74+0yc0ONp1TZKTFs8f6y2Tv0uZA0wTzIyyzNVJcU6t1vs1aQAAAEDL6kpyQpIjkxyaJ0p/e4mGrShFAAAAwFRSAIRpUhblCUWKry6av25w9pbd/vCTF+8z46t8DQx3j76/d/1lj6b8QIr8aZIXmCnYZcaKovjjWu2MGV8dFIBnf/omAgAAnsehSU5JcnKS1yXpEQkAAADQDDpEANOqKMpi8Xjnlpv7+8aWfeDUm+bM9AmtGO16dHC0+/yyszysLMqB+LAbpttjSc5PNh66Zk3vSuU/AAAAaAl7JOlN8okk65Jcl+Tvk/xalP8AAACAJqIACLvGnkk+vGH23B8s7lu3oBlOaNXnetatGu5ZUu+ovy7J100RTIuLkonDa7W+c2u1hQ+LAwAAAJpaZ5IzkvxrknuSjCT5rSTdomEK+XIoAAAAU0oBEHatg8sUn+3vG7ts0fzbj2qGE7rwC/OuPvjYrjemKM9Kcpcpgp1XlrmmLDveXKv19dZq77xVIgAAANDUDkzyP9NY6W80ycI0vtALAAAA0PQUAGFmvK0oO67p71v38feeesfeM30yy5YV9cHhnpXFxlkHJTkvySZTBDvk3qQ8Z599Np6wdu0ZV4oDAAAAmtobk3wuyc1J/luSfUUCAAAAtBoFQJg5nUnx/i2z6zf0961fevLJZedMn9DApfs9MjjSvSypH5kUQ6YItlWxpSxzwR57dB5Uq81fPjS0cEImAC3HNlwAANXx+jRW+vtKkncmmSUSvPYAAACgVSkAwsx7SVJ+rGev9T9Y1HvHqc1wQoMj824eHOlaWNbLtyfFtaYIntdZO1rRAAA4hElEQVRFHR3jh61d27f0kktOe0gcAAAA0LTmJVmZ5KtJzhAHM0QBEAAAgCmlAAjN45CiqF+8uG9s9KwzbzuoGU5o1UU9l617aP9jixRnJ7nXFMFTXF+WOa1W6+u9/PJ33iIOAAAAaFpzkvxFkhuTLBYHM6wQAQAAAFNJARCaTJmcMVHvvG5R79jyRafet9dMn0+tVowPjHSt2DSnfkhZ5oIk42aJSt9Gy9yflOckLzxq7dq+SyQCAAAATe3VSb6e5E+S7C4OmoAVAAEAAJhSCoDQlMrZRZEPFrM33tLft37pggXlrJk+o6GhefevGu1eOlEWRyWl0hNVNF6WWVGvdx5aq81fXqu9VRkWAAAAmleR5I+TfCvJa8QBAAAAtCsFQGhuL0vKj83ZtP7q/vnrT2qGE/r0aNf1gyM9pxVF+pLCtqdUxWX1ev3YtWv7zr7yytPuEQdAW7IKBwBA+3hJkpEkH0nSKQ4AAACgnSkAQms4NmV5xeK+sdHfOPOOA5vhhAaGu0fn7rf+sKQ4J8lDpog2dVNZlgtrtb63X3HFmdeKAwAAAJrey5N8NckZoqBJ+fIRAAAAU0oBEFpImZwxXq//sH/+2EcXLLj7BTN9PitWHLdlcKRreTq3HJqUK5JMmCXaxMNJed4ee3QetXbt/CFxAAAAQEs4No3y36GiAAAAAKpCARBaz9yU+dCcTVuu75+/bklSFjN9QoOfO/COwZGes+sdxYlJvmKKaFVlmXpRZGDWrPLgWm3+sksuOW2TVAAAAKAlHJvky0n2EwVNzgqAAAAATCkFQGhd3SmLTy3uvePri3rXva4ZTujCL3R9e3Ck681FyoUp8lNTRGspvtHRUX/DmjV9Sy67bP5d8gAAAICWcUwa5b+XigIAAACoGgVAaHFlUZ5QFMVVi+avW/kbp93dBN9wLsqBkZ6hufXi8JQ5N8nDZokmvxWtK4rirFrtjNevWXPmN+QBUN0HBBEAALSkVyT5UpT/8NoDAACAilIAhDa5LRdlsXi8c8vN/X1jyz5w6k1zZvqEVox2PTo42n1+2VkeVhblQLyxRZMpyzyalOdt2rTpVWvW9K5MCtcoAAAAtJaXJrk4yT6iAAAAAKpKARDay55JPrxh9twfLO5bt6AZTmjV53rWrRruWVIU9dcnhdXVaAZlURRDs2bNOrxWm7/sa19b+JhIAAAAoOXMSjKU5BBRAAAAAFWmAAjt6eAyxWf754+tXjT/9qOa4YQGhud94+Bj939DivKsJHeZImbIt4uiPGnNmt6Fl19++k/FAQAAAC3rvyd5mxhoQXahAAAAYEopAEI7K3NKUXZc09+37uPvPfWOvWf6dJYtK+qDwz0rN82ZfXCS85JsMknsGsUdRZGza7VrTlizZv5V8gAAAICWdnKSPxUDLaoQAQAAAFNJARDaX2dSvH+8s359f9/6pSefXHbO9AkNDe3z8OBI97J6vX5UUgyZIqZLWWZzWeaCPfaYdeiaNX0rkmV1qQDwXA8bIgAAaAlzk3wijS2AwWsPAAAAKk8BECqiLPLSpPzYvL3WX7uo945Tm+GcLrxo3k2DI10Ly3r59hTlD8wSU+yi2bM7Dlu7tm/pJZec9pA4AAAAoC38eZKDxUALUwAEAABgSikAQsWUyaFFUb94cd/Y6Fln3nZQM5zTqot6Llv3YPcxRYqzk9xrlthJ1xVFx6/Uan29q1ef8WNxAAAAQNs4KslSMdDibAEMAADAlFIAhIoqkzMm6p3XLeodW77o1Pv2munzqdWK8YGRrhWb5tQPKctckGTcLLFd13SZ+5PynL333njUmjVn/IdEAAAAoO38dWz9S+uzAiAAAABTSgEQKq2cXRT5YDF70/WL+9a/f8GCcsbfQB0amnf/qtHupRNlcVSSL5kjtq7YUpZZURTFIbXa/OVDQwsnZAIAAABt57QkvyQGAAAAgKdSAASSlPuXKT8+Z9P6q5f0rn9TM5zRp0e7rh8c6T61KNKXlLZx5TkUq4uiPGbt2r6za7Ve20cDAABA+/pTEdAmrAAIAADAlFIABJ7s2HpRXrm4b2z0PaetP6AZTmhguHt005wHD0uKc5I8ZIpIkrIsb0zSW6v1vmPNmr4fSgSAqXh4EQEAQNP6pSSvFwMAAADAMykAAs9QJmd0dJY/6p8/9tEFC+5+wUyfz9DQEZsHR7qWp3PLoUm5IkndLFXWA0nOnTt39tG1Wt9F4gAAAIBKOFcEAAAAAM9OARB4LnNT5kNzNm25rn/+uiVJWcz0CQ1+7sA7Bkd6zq53FCckucoUVUdZpl4UGdhtt/FDarW+8y+55LRNUgEAAIBKODzJyWKgjVh9HAAAgCmlAAhsTU/K4lP9fXd8bVHvutc1wwld+IWubw+OdJ1UpFyYIj81RW2v1tFRHLtmTd+SSy99193iAAAAgEr53SSFGAAAAACenQIgsI3KE4uiuGrR/HUr3913174zfz5FOTDSMzS3Xhye5Lwkj5mjtnN7URRn1Wp9b12zpvd74gAAAIDKmZukXwwAAAAAz00BENiu+4yiLBbPyvjN/X1jyz5w6k1zZvqEVox2PTo40r2s7CxfVRblQGyh0Q4eScrzkhe+as2a3pXiAGAX8RwCAKD59CXZSwx47QEAAADPTQEQ2BEvSPLhDbPnXru4b92CZjihVZ/rWbdquGdJUXa8Ncl3TVFLKouiGOrsLA6v1eYvq9XeulEkAAAAUGm/LgIAAACA56cACOyMV5YpPts/f2z14tPvPLIZTmhgdP+1Bx/b9doU5VlJ7jJFLeObHR31N61Z07tw9ere28QBAAAAlfeiJL8iBgAAAIDn1ykCYKeVOaWcNfGd/r51/2+i7PiTT4923TuTp7NsWVFPsnLBgrs/N2fTlj9Icm6SOSaqCS+dMus7OnLemjXX/FOyrC4RAKDi/m+SB8XApIdFAFTcL8X7OQAAAABbpQAITOH9SfH+zpS/1t+3/s/WPbT/P9RqxfhMntDQ0D4PJ1n2njNuX9XRMesjSbnANDWNx5JcMD5efuSqq+b/TBwAAEmS85PcKgYASJKcIQLaVCkCAAAAppItgIEpVRZ5aVJ+bN5e66/t71vfFNu0XHjRvJsGR7oWdhR5R4ryB2Zpxl1Ur+eIWq3vXOU/AJrpaYwIAACaRkds/wsAAACwTRQAgWlRJocm5SWL+8ZGzzrztoOa4ZxWDnevXvdg9zFFirOT3GuWdrnvdHSUb6nV+nqvuKLvJ+IAAAAAnsNRSfYRA23Kl48AAACYUgqAwLQqkzMm6p3XLeodW77o1Pv2munzqdWK8YGRrhWb5tQPKctckGTCLE27+5LynL333nj85ZfPv0IcAAAAwFacJAIAAACAbaMACOwC5eyiyAeL2ZuuX9y3/v3LlpUzft8zNDTv/lWj3UuLWcVRSb5kjqZDsaUsc0Fn58aDarX5y4eGFipbAgAAANtCAZB2ZgVAAAAAplSnCIBdp9y/TD5+yzXr37+kd/05K0e7vjLTZzTw+a7rkpy6eP5Yb1mWH0uKV5inqVCsnjVrYulll535I1kAAAAA2+kNInhOm5LcluT2JPcmeSDJhiSPJNncomN6d5JXV2gOC5cxAAAAU0kBENjlyuS1ZVFe0d+3/t/q4/lvF17c9dOZPqeB4e7RBQt++B9zNr3kd5Lyz5LsZaZ2yA1FUfz+mjW9F4sCgNZ7igIAQBPYJ0mPGH7+HPXbSVYn+VaSa5Lc2obPXV+TahUAvfYAtwVw2wEAppQtgIGZUiTlgo7O8kf9fWPLFiy4fY+ZPqGhoSM2D450LU/nlkOTckWSumnaZhuSnLv33huPVv4DAAAAdsKxIsjNSX4/yf5Jjk/yR0n+PclP4kN/oH1sEgHskM0iAACeTgEQmGlzk3x4zqaOG/vnr1uSlDO+Bcbg5w68Y3Ck5+x6R3FCkqtM0XMry9SLIgMTE52H1Gp95w8NLfTCEwCY0qcbIgCAyjmmwmNfn2RJkkOS/G2Su1wOQBurWgHQZ7LyddsBADwZAtpeT8riU/19d3xt8fzbT2yGE7rwC13fHhzpOqlIuTBFfmqKnqosc3lnZ3nMmjV9S6688rR7JAIATIMJEQBA5RxR0XF/IclhSQZiV4p250su0FC1EtMcUz6tdnfbAQCqTAEQaDLliWXZ8dVF89etfHffXfvO/PkU5cBIz9DcenF4kvOSbDRHubksy4Vr1/adctll878vDgBgOp8cxgfgAFA1r6rgmJcneVeSh0w/UCFVe699d1Mu3ymiAAgAPIMCINCU901FWSyelfGb+/vGln3g1Jtm/JtxK0a7Hh0c6V5WdpavLItyINX8pu4jSXle8sKj1q6dP+QyBaDNWIWjeY2LAAAqpWoFwMEkv+f5KFBBVgBkqhRJdqvQeC1UAQA8gwIg0MxekOTDG2bPvXZx37oFzXBCqz7Xs27VcM+Soux4a5LvVmQeyqLIQDLr4Fpt/rJa7a1eXAIAu1KVtgH2gRAAVbdPkhdVaLy3JDk7yn9VY76hoWrvM3u9N312T6MEWBVWAAQAnkEBEGgFryxTfLZ//tjqxaffeWQznNDA6P5rDz6267UpyrOS3NWuwZdlri7L4o1r1vQtqdVOv9OlCADMgCqtALin6Qag4rorNt7fSfKoaQcqqmolpheZctm67QAA00UBEGgdZU4pZ018p79v3cff3bv+ZTN9OsuWFfXB4Z6VnR2bD02R89vsRddYURRnrV3b+7q1a3u/5uIDAGZQlT4Un2u6Aai4/Ss01m8k+bIprxyr/8ETqlZi2t+UT5sutx0AoOoUAIFW05kU7+9MeUN/3/qlJ59cds70CX3yCy9/YHC4+9x6vX5UUgy1crhlmUeTnJ9sPHTNmt6VSeFNSQBgpj1cobEqAAJQdftWaKz/23QDFfdYxcarADh99qvYeDeacgDg6RQAgZZUFnlpUn5s3l7rr+3vW/8rzXBOF14076bBka6FHUXeUSY/bMFYLyqKiSNqtb5za7WFD7vKAIAm8UiFxmoLYACqriof4D+S5IumG6i4jalWCXA/Uz5tqlauvN+UAwBPpwAItLQyOTQpL1ncNzb6ntPvekUznNPK4e7Ve+53xzFFirOT3Nv0GZa5piw73lyr9fXWau+81VUFQHWfVtCkqvTFhF8w3QBUXFVWALw0yaOmG6D53z+fQl2me9p0V2y895lyAODpFACBtlAmZ3TMGr9uUe/Y8kWn3rfXTJ/PihXHbRkY6VqxaU79kLLMBUkmmjC2e5PynH322XjC2rVnXOkqAgCaVJUKgLaEAqDqqrI6kvdhqssXj+CpqlRkemWSTlM+LQ5zuwEAqk4BEGgnuxVFPljM3nT94r7171+2rJzx+7ihoXn3rxrtXlrMKo4qk/9ojpiKLWWZC/bYo/OgWm3+8qGhhRMuHQCgiW2o0FitCAFA1VWlDP81Uw2QpFpFpjlplACZekdXbLz3mHIA4OkUAIE2VO5fpvz4Ldesv3pR39gbm+GMBj7fdd2qke5fKYr0JeWPZ/BULuroGD9s7dq+pZdcctpDrhUAoAVUaUsoKwACUHX7VGScPzTVAEmSOys23qNN+ZSrWrFyIlYABACehQIg0LbK5LVFcmV/3/rPvue09Qc0wzkNDHePbprz4GFJcU6Sn+3Cv/r6ssxptVpf7+WXv/MWVwcA0EKqVADsNt0AVNwLKjDGu7Nr3xOiudgCGJ5qXcXGe6Qpn3KHJZldofHemWTctAMAT6cACLS7IikXdHSWP+rvG1u2YMHte8z0CQ0NHbF5cKRr+XgmDk3KFUnq0/V3lWXuT8pzkhcetXZt3yUuBwB47odNETStKhUAX9V4/goAlTWnAmP8iWkG+LmqFQDfYMqn3JsqNt4xUw4APBsFQKAq5ib58JxNHTf2z1+3JCln/IPVz4z84vrBkZ6zixQnJrlqiv/48bLMinq989Babf7yWu2tvhEGALSqKhUA90oyz5QDUGFVKADeY5oBfq5qBcA3pvFZBVPnHW4zAABJpwiAiulJWXyqv2/sffWOdedc+IWe7870CQ2MdH0rKU96d+8dh0zVn1mvdxx9xRVnXGe6AYA2sL5i4z0yyW2mHYCKqkIBcINprjQrj8NTVe21z5wkb07yJVM/JTqTnFyxMd9u2gGAZ2MFQKCiird01ItvL5q/buW7++7atwnOp/z0aNf1U/WnKf8BAG2kam9uH2HKAaioIsluFRinAiDAE26u4JjfYdqnzOvSWEnfbQYAqDwFQKDS94FFWSyelfGb+/vGln3g1JvmiAQAoOmsS1Kv0HhPNOUAVNScNEqA7W6jqa40KwDCUz2U5O6KjXlhklmmfkr8egXHfKNpBwCejQIgQPKCJB/eMHvutYv71i0QBwBUkg/imteWJHdWaLynxIdBAFRTVb6YOW6qAZ7ipoqNtyfJW037Tts9yXsqOG4FQADgWSkAAjzhlWWKzy7qG/vy4tPvPFIcAABN47YKjfXFSY4x5QBUUFUKgFtMNcBTVLHQ9D7TvtPemeQlFRvzpiS3m3oA4NkoAAI8TZG8vZxVv6a/b93H3927/mUSAQCYcTdXbLynmHIAKmh2RcbpPXmAp/pBBcd8ZhKfPeycsys45uuSTJh6AODZeLMB4FmVs5Pi/Z0pb+jvW790wYLSNmwAADPnhoqN91dNOQAVtLki4+w01ZVWigCe4XsVHPMeSf7Q1O+wk5K8pYLj/o6pBwCeiwIgwPMoi7w0KT82Z+P6axfPX//LEgEAmBFVKwAen+Qo0w5AxWyqyDhnm2qAp/huRcf9gSTdpn+H/EVFx/09Uw8APBcFQIBtUeSwsiy/tLhvbPQ9p9/1CoEAQNuxEkdzu6GCYz7LtANQMVUpAO5pqgGe4r4k6yo47t2T/JHp326nJXlzRceuAAgAPCcFQIDtUCZndMwav25R79jyRafet5dEAAB2iZuSTFRszP1pfCAEAFWxOdX4UsZLTTXAM3y7ouM+O8mJpn+bvTDJ31d07PVUd7VMAGAbKAACbL/diiIfLGZvvG5x3/r3L1tWui8FAJhejyW5vmJj3jfJfzH1AFRImUYJsN29xFRX/joHnumrFR13Z5JVSV7gEtgmf5vk5RUd+w+SPOASAACei9IKwI7rKlN+/OZr1n9jUd/YG8UBADCtrqngmP8oiVWnAaiSjRUYY5dpBniGr1Z47Acl+SuXwFadkeQ33UYAAJ6dAiDAzjuuSK7s71v/2SW9639RHAAA0+I7FRzzy5L8gakHoEKqUAB8eZLCVAM8xbeSbKrw+H83yXtdBs/pyCQDFc9AARAAeF4KgABTo0jKBfWivK6/b2zZb5z8k91FAgAtxVZcze+aio77Q0mOMf0AVMSDFRjjnkn2NdVedwBPsTHJtys8/iLJiiSnuxSeYV6SS5K8uOI5fMWlAAA8HwVAgKk1N8mHx/fa7ab++euWJKVvdAMATI1vJxmv4Lh3S3JhGmUBAGh3d1ZknMr9AM/05YqPvzPJvyZ5o0vh5/ZJo/zXU/Ecbk7yE5cDAPB8FAABpkdPyuJT/X1ja/rPWPdqcQAA7LSHU91VAA9NcoFLAIAKuKsi4zzBVAM8w6UiyJ5pFCEXiCKHJ/l6kiNE4bYBAGydAiDAtCreko7imkXz1618d99dtncBANg5V1Z47O9L8lGXQGu9GEjy2iT/Pcn/EwfANqlKAfAtpvrnDkzjyw5VYQtgeG5XJ3lADNkjjZUAz61wBm9PclWSl7sckigAAgDbQAEQYBfc1xZlsXhWxq/v7x370AdOvWmOSAAAdsgVFR//h5Iscxk0tRcl+bU0Cn/rk3wryZ8l6U+yu3gAtqoqWwCflOQXKj7X+6axwvENSV7j0geSjCe5TAxJGl8m+qskn0+yf4XGvfvkuC9J8mKXQZJkc5I1YgAAtkYBEGDXeXGKfHTD7LnXLupdd4Y4AAC221eSTFQ8gw8n+ZsknS6HptCR5NVJ/jCND2XuTTKU5L1J9nvS75sd5QaAbVGVFQA70yiMV9GLk3wkyS1JPpBkN5c98CRfEMFTnJnkh0nOqsBYX5/kmjRWPvR69wmXJ3lIDADA1igAAux6ryyKYnRR39iXz+q94whxAEBTsBVXa7g/yTfEkN9Lo2zWJYpdriPJ0Uk+mMZqHHcn+W6S85OcnOf/oOp48QFs1V0VGusH01jhqSr2S/IXSX6c5I+T7Ol1B/AsRtNY8YwnvCTJJ5PU0p5byL8qyaeSXJnkMNP9DP8mAgBgWygAAsyQInn7RFF+p79v3cff3bv+ZRIBANgmF4sgSfKmNFZH+DVRTPfT9hyVRknjc2kU/r6XZHkaq3Fsz/aNCoAAW3d7hcZ6eJJfrcA4j0jyz0luTfInaRRZAJ7Lg0lWi+FZvSWNEmAtydvaYDyHJFmZ5EdJliSZZYqfYTzJsBgAgG2hAAgwo8rZSfH+WUX5o/7e9WfKAwBgq74ogp/bN43tZq9I8lpxTIn9k/SlsULRpUk2JPl+GoW/d2b7Cn9PpwAIsHU3JKlXaLx/m+SFbTiuWUlOTXJJkmuTvC/JHJc3sI3+XQTP6y1JLktja+Bzk8xroXPfa/IxYW2S65IsjuLf81mT5F4xAADbolMEAE1h7xTlGUm+IAoAgOf1vTRWB5onip87KcnVSf41yd8l+ZpItsleSY5No5h3YpITpvm6etXk3/mQ6AGe02NprBT3ioqMtyfJPyX59bTH1rCHJjkrjUJHt8v5WdkCGLbu35P8fZI9RPG8Dk/yV0k+ksaqgCNJLk/ygya7r5mXxoqFv5LGl63mmrptNiACAGBbKQACAADQSso0tmJdKoqn6Ejy7snjO0n+MclnkjwsmuyWxodjR6Sxne+Rk/984AzM0WvTWMUBgOd2XapTAEyShUluS/KHac1y2D5prJJ7VpLXu3yBKfDg5Gu+RaLY5tcZb8sT2wLfnUYh8Mo0yoA/yK5bRW7u5GuvI9P4ktXb0vgiFNvvoVgNEwDYDgqAAAAAVuJoNZ+OAuDzOSbJJ9JYDbCWZDSNrZN/2ubj3i/JQWmURg5Kclgahb9Xpnne/zg+CoAAW3NdktMrNuY/SLJvkvcn2dgC53tIkvlprOT0+jTKJwBT6V+iALij9kmjXL7wSb92dxpFwJuS3JnkriTrk9wz+d8eS/JoGu+NPPC0P+8FSWYn2T2NVRlfnGT/yb+na/LnAWmU/l7uMWHK/OvknAAAbBMFQAAAAFrN1Ul+ksaHCzy33dPYZulXkvxDkh8l+UaSbyf5VhrbKW9skbF0pFGM2DeNLQUPzBNlv8cLf62wldTxLkuArbquouNenOR1Sc5O85XFX5bkjUnekkY502pOO84Xj2DbrEljS/gDRTEl9slTVwmk+f2LCACA7aEACAAAQKsp09je9o9EsV0OnzzeO/nvW5LckOTHaRQqn3zcl+T+TF9BcM8kL5o8Xvykf/6FPLGSxP5POvZNMqsN5uA4lyHAVl1X4bG/Msnlaazg+7+TfCnJ+C4+h1lpFOtPTPKmyeOwJIVLE9iF6kn+T5LzRUEFfTvJ18QAAGwPBUAAAABa0SeTnBsfRu+M2Wls03Tk8/yex9IoAm6YPDZN/vrDaRQIk8a2REUa20ElT2wRlTTKfUUaZYK9Jo8XPem/V82BSfZOY6stAJ7dtWmU3qr83vXJk8d9SYbTWAnr60lunsK/Y48kPWmsqHz0k54THP6kx3SAmfSJJP8jjS8PQZV8TAQAwPZSAAQAAKAV3ZjGCjmniGJa7ZHGlrvdopgyxye5WAwAz+nhJN+NVVOTxsq475s8kuSBJLdMHmN5YsXe+9NYLStprN67Rxol/D0njxckeWkaK+zOm3xc/wXxzghbAMO225DkU0n+iyiokPVJPisGAGB7KQACAAD4IK5VfTwKgLQeBUCArbsiCoDP5sVJXjt5AFTB8iT/OUmHKKiIv0+yWQwAwPbyhBkAAIBW9fk0vh0PreR4EQBs1VdEQJvyxSPYPjfGamhUxwNJ/o8YAIAdoQAIAABAqxqPN8dpPSeIAGCrroyiFAANH5587Qft7n+lUQIEANhuCoAAAAC0sr9L8qAYaCF7J/lFMQA8r3uTXC8GANJYBfBfxUCbuy+N9zcAAHaIAiAAAACt7MEkHxcDLcY2wABbt1YEAEz6syRbxEAbOz/Jz8QAAOwoBUAAAABbzLW6v02yUQy0EAVAgK0bEQFedwCTbkzyD2KgTd2S5AIxAAA7QwEQAACAVndnvFlOa1EABNi61UnuFwMAk85Lco8YaEO/l2STGACAnaEACAAAQDv4qyT3iYEW8dp4TwZga7YkGRUDbcYKgLDjHkjyP8RAm1nt+Q4AMBW82QwAAEA7eCDJR8RAi3hRkleKAWCr/k0EADzJJ5J8Uwy0iY1J/qsYAICpoAAIAABAu/jHJLeIgRZhG2CArftykgfFAMCkiSTvS7JZFLSBZUluEAMAMBUUAAEAAGgXm5L8dmytRmtQAATYtsd22+LRTjxPhZ33g1j9ndb3nSR/IwYAYKooAAIAAPggrp2sSbJKDLSA40QAsE0+JQIAnuavknxXDLSoTUmWJNkiCgBgqigAAgAA0G5+L8m9YqDJHZtkthgAtuqyJDeKAYAn2ZLkPyX5mShoQf8tjZUsAQCmjAIgAAAA7ebeJB8QA01u9yRHiAFgq8oknxADAE9zY5L/KgZazL8n+TsxAABTTQEQAACAdvSZJJ8UA03ueBEAbJNPJHlQDLSBUgQwpVZ63UcL+WmS94sBAJgOCoAAAAC0qw8kuUkMNDEFQIBt82CSfxIDAM/id5N8Rww0uUeSvCvJ/aIAAKaDAiAAAICVONrVw0l+PcljoqBJHScCgG32sSSbxQDA0zyapDfJmChoUvUki5NcIwoAYLooAAIAANDOrklyVpQ8aU5HJdlDDADbZF0aWwFDK/OcFKbHWBolwEdEQRM6N8nnxQAATCcFQAAAANrdUJLzxUAT6kzyGjEAbLO/iHIHAM/uO0kWJRkXBU3kE0n+lxgAgOmmAAgAAEAV/EmSETHQhI4XAcA2uzONrYAB4NkMJ3lvGluuwky7MMnviAEA2BUUAAEAAKiCepJfT1ITBU1GARBg+/xlkp+KgRZlC2CYfoNJfsvtjRn2+SRnJZkQBQCwKygAAgAA+GCgKh5LMj/Jt0RBEzlOBADb5dEkHxIDAM/jX5Kc47U+M2Q0jS8g2o4aANhlFAABAACokoeSnJrkh6KgSbwqyYvEALBd/jXJl8QAwPO4IMlvxwps7Fqrkvxqks2iAAB2JQVAAAAAqubeJCcl+booaAIdSV4rBoDt9ptJNoiBFmM1Mti1/jnJu9JYDR6m298nWZJkiygAgF1NARAAAIAq2pDkl5LUREETOF4EANttfZLfFwMAWzGS5LQkD4qCaVIm+ZMkH0hSFwcAMBMUAAEAAKiqn6WxHfAXRMEMO04EADvkk2lstQcAz6eW5MQkN4iCKfZwkoVJ/lIUAMBMUgAEAACwFVeVbUzyq2m8We86YKZYARBgx/3nJNeJoe3ckORDXncAU3y/cmKSi0TBFLklyRuS/JsoAICZpgAIAABA1dXT2K7nPUkeEwcz4IAk+4gBYIc8nORdSR4QRVvYlGRZklcn+ZvYshOYWg8mmZ/kz2OrVnbOJUlOSHKtKACAZqAACAAAAA2fSfKmJDeJghlgFUCAHXd9kl9LskUULW11kqOTnJdGEXA8yeViAaZYPcn/SHJKktvFwXbamOScJKcnuV8cAECzUAAEAACAJ1yT5Ngk/yIKdjEFQICdc1ka2wHbYrX13JzkzCTvSHLj0/7bl9tsrK5PaB61NFYb/awo2EbXprHq33L35wBAs1EABAAAgKd6OMn7kvynJBvEwS5ynAgAdtr/S/J7YmgZDyX5wyRHJBl+jt9zqZiAabRh8nVff5J7xMFz2JLkf8aWvwBAE1MABAAA8M1tnt1nkxye5F9FwS5gBUCAqbE8ybliaGobk/xtkoOT/K8km5/n996S5MciA6bZqiSHJvkn7w/wNFcleW2SD00+fgEANCUFQAAAAHhudyb59SSnJ7lVHEzTNfYPSRaIAmDKnJ/kd5PURdFUxtNYpfGQJL+fbV9tq522AVYsguZ1f5LfTnJSrPJGcl+S33I9AACtQgEQAAAAtu7iJEcmOS+NLYJhZ9yV5B+TnJykO8l/TXKFWACm1D+msaXjJlHMuPEkn5p8LvWbSW7bzv/fNsDArnRVkmPSKAOOiaNyHkvjiwSvTPLPUdwGAFqEAiAAAABsm0eSLEvy8iQXpPFhNmyr+5IMJOlL0pPGylRrY3UqgOn06SRvTXKHKGbE5snHvsOT/EaSG3bwz7m8jZ53KZJAa5hIYzvgVyQ5J8kDIml79SRDk49Z5ybZIBIAoJUoAAIAAMD2uTfJ0iRHp1EsmBAJz+G2JP83ySlJ9k2yJMlolEcBdqWvJTkhyTdEscvcn8bqSa+YfOy7aSf/vAeSfFOswAzYnGR5koOS/Pnk/RvtZUuSlWmsUrswya0iAQBakQIgAAAA7JjrkrwnycFprAj4mEgqbyLJt9PYKvq4JAcm+Z00Vi5SFAWYOeuSvGny/tn98fS5OY2Vsn4xjdWTpnLrzC+LF5hB9yf5H5P3b+dk+7cyp/k8Mvk6/uAkZ02+vgcAaFkKgAAAALbiYufcmsaKgAcn+askd4ukUsbS2B7sV5O8NI3i37I0ioDuWwCax/jk/fMpaRTVmBqb09gy8R1JXpXGSlmPTMPfc6mogSbwyOT93MFJFif5qkhazk+S/HEaZc6lUeYEANqEAiAAAABMjfVpfJAwL8m7k6wVSVt6LEktyR8leU2SniS/neRzSR4SD0DTW5vk6CR/mca2f+yYG5N8aPJ5z8IkqzO9xfdvtMnjrC8HQHvYkmQwyRuTHJXk79LYrpzmNJ7k80lOzRNf3LOdMwDQVhQAAQAAYGptTvKZJCcnOTzJR5L8WCwt66EkF6dR+HtTkhcneWuSjyb5nngAWtJjSf4kjdLG58Wxze5KY7vEE5MckuR/ZtetfDyeZI0pAJrQD5J8MElXGlvJXhIF82ZxTRpl9V9M8q4kX0pSFwsA0I46RQAAAADT5rokfzp5vC7JrydZkMaHQzSnu5NcOXlckeT7SSbEAtCWbkijEPDGJH+W5G0ieYZ7kgwn+fckX57hx8RLk8w3JUCTeizJysnjpUneOfna75T4PHZX+m6Sz6axPf3N4gAAqsITTgAAANg1vj55/F6SY5OcluT0JMfHCv0z5ZE0PiC6ZvL4epLrxQJQOVelUdA4MY0VX3sr/tj8kyQjaayO+JU0TxH+y22QrS2AoRruT/LPk8cvJPnlJL8y+XMf8UypR5OsTWPlxUui9AcAVFQhAqqmv2/sjiT7SYIm9M+DI92/JQYAmBEvTaOQVTWXx/Y3zWDvJL+U5C1JTkpyqEimxYNJvpMnyn7XJLkxVvfbHgem8QFmFYzHFs/T5ZhUp1h1T5LbTHlLenmS30ryvlTjfcSH09he9z/SWGXvpiY+17e1+H3IpjRWGa6iQ5P0VGSsE7FlNc+uY/K50C8neUeSE5LMFct2376unbyNfSmNVds3imWXOSDJyyp0rX3XlE+Lk1OdharG0tgdhB3XneSwCo33tjTer2TH/WKSV1VovF95/LmQAiCVowBIE1MABAAgSfZN8uY0yoDHJXl1fCi0PR5N442yx49r0yj73RKr7gCwfWanUdBYmMbWsy9uk3FtSGPVwyvS+LDgW0m2mG6AXa4zjULgGyaPN6ZRdOAJD6WxUvtXJ4+vJ/mZWAAAnvnEEgAAAGgedyUZmjySZFYaK6YcO3kcNfnvVf5gaCLJrWkU/G7IUwt/t7uEAJgiW5JcPHnMSaOg/8uTx5EtMoZH01jR9FtJvj3587pYBRqgGYwn+ebksXzy17qSHD15vPpJr/9mVyCPW5N8/0nH99L4IpdV2wEAtkIBEAAAAJrbRJIfTh4DT/r1vZIcMnkclsZWPAckmZfGh0at+gHRljRKkLcluSON7VLWTf7z47/20ySbXRoA7EKbknx58viDNHYYOTHJ6yd/Hp3kpTN4fg8k+UkaxfgfpFHy+2EaxYlx0wfQMtZPHl960q/tNvm67xVJDpr8+fg/Hzj531tBOfn67pYkP37Szx8nuT7Jg6YfAGDHKAACAABAa3ooT6wW8XQdaRQTDkiyT5KXpbG18Msmj1+Y/LlHkj2TvCiNbYb3mMLzeyyNrZkeTKOU8Pix4Vl+7cE0Sn9jkz+tSgRAs7szyfDk8bj9khyR5FVJfjGNUv4Bk4/BL5k8Zm3H37F58vH+oST3Jbl78hhLck8aq97+JI0Vkx4wJQBta3OSayePpysmX/Ptk8YXwfadPPaf/LUXJ3nh5PGiyeOFmZrS4IbJx6ifPel4YPIx6u40vrx15+RrvPWTv+aLXAAA00ABEAAAANpPPU+sHLG9XjL5s0jjw6Inm5vGVoKPezSNFZGSxmoOD4gegAq7c/K47Hl+z15Jdk/ygsl/3y2N1X4f397wsSQbn/YYCwDPpUyjYHdXnr0g+FzmTL6+e9yL0vgiWSZ/7jb5ePS4n+WJFWXHJ/8dAIAmoQAIAAAAPNmGJ/3z/eIAgCn1+Ip+d4sCgBm0KU8tmm8QCQBA6+oQAQAAAAAAAAAAALQeBUAAAAAAAAAAAABoQQqAAAAAAAAAAAAA0IIUAAEAAAAAAAAAAKAFKQACAAAAAAAAAABAC1IABAAAAAAAAAAAgBakAAgAAAAAAAAAAAAtSAEQAAAAAAAAAAAAWpACIAAAAAAAAAAAALQgBUAAAAAAAAAAAABoQQqAAAAAAAAAAAAA0IIUAAEAAAAAAAAAAKAFKQACAAAAAAAAAABAC1IABAAAAAAAAAAAgBakAAgAAAAAAAAAAAAtSAEQAAAAAAAAAAAAWpACIAAAAAAAAAAAALQgBUAAAAAAAAAAAABoQQqAAAAAAAAAAAAA0IIUAAEAAAAAAAAAAKAFKQACAAAAAAAAAABAC1IABAAAAAAAAAAAgBakAAgAAAAAAAAAAAAtSAEQAAAAAAAAAAAAWpACIAAAAAAAAAAAALQgBUAAAAAAAAAAAABoQQqAAAAAAAAAAAAA0IIUAAEAAAAAAAAAAKAFKQACAAAAAAAAAABAC1IABAAAAAAAAAAAgBakAAgAAAAAAAAAAAAtSAEQAAAAAAAAAAAAWpACIAAAAAAAAAAAALQgBUAAAAAAAAAAAABoQQqAAAAAAAAAAAAA0IIUAAEAAAAAAAAAAKAFKQACAAAAAAAAAABAC1IABAAAAAAAAAAAgBakAAgAAAAAAAAAAAAtSAEQAAAAAAAAAAAAWpACIJVTJiuTYoskAAAAAAAAAACAVqYASOWsGun+UMes+pFJ8UVpAAAAAAAAAAAArUoBkEpa+fmeGwdHus7oKPKOMvmhRAAAAAAAAAAAgFajAEilrRzuXr3nfncckxTnJMWDEgEAAAAAAAAAAFqFAiCVt2LFcVsGR7qWd8yqH1SWuSDJhFQAAAAAAAAAAIBmpwAIk1Z+vue+VaPdSzuS45NcIREAAAAAAAAAAKCZKQDC06wc6f7O4Ej3W4oifUl+IhEAAAAAAAAAAKAZKQDCcxgY7h7dNKd+RMqcm+RnEgEAAAAAAAAAAJqJAiA8j6GheY8NjnafP56JQ5NyRZK6VAAAAAAAAAAAgGagAAjb4DMjv7h+cKTn7LLseF2Sr0oEAAAAAAAAAACYaQqAsB1Wje7/zcGRrjcVKRcmuU0iAAAAAAAAAADATFEAhO1WlAMjPUPFxlmHJzkvyUaZAAAAAAAAAAAAu5oCIOyggUv3e2RwpHvZeJFXlUU5IBEAAAAAAAAAAGBXUgCEnfSZ4e7bVw33LKmnfFuS70sEAAAAAAAAAADYFRQAYYpcONKz5uBju45JUZ6V5G6JAAAAAAAAAAAA00kBEKbQsmVFfXC4Z2V9YvzQFDk/yWapAAAAAAAAAAAA00EBEKbBhV88YMPgcPe5HbPKo5LiixIBAAAAAAAAAACmmgIgTKOVn++5cXCk64yOIu9I8iOJAAAAAAAAAAAAU0UBEHaBlcPdq+fud8drkuKcpHhQIgAAAAAAAAAAwM5SAIRdZMWK47YMjnQt75hVP6gsc0GSCakAAAAAAAAAAAA7SgEQdrGVn++5b9Vo99KO5PgkV0gEAAAAAAAAAADYEQqAMENWjnR/Z3Ck+y1Fkb4kP5EIAAAAAAAAAACwPRQAYYYNDHePbppTPyJlzk3yM4kAAAAAAAAAAADbQgEQmsDQ0LzHBke7z++o1w8ri3IgSSkVAAAAAAAAAADg+SgAQhNZedG8sVXDPUvKsuPEssjXJAIAAAAAAAAAADwXBUBoQqtG9//mquGuN6Yoz0pyp0QAAAAAAAAAAICnUwCEplWUg8M9K4uNsw5Ocl6SjTIBAAAAAAAAAAAepwAITW7g0v0eGRzpXjZe5FVlUQ5IBAAAAAAAAAAASBQAoWV8Zrj79lXDPUvqKd+W5PsSAQAAAAAAAACAalMAhBZz4UjPmoOP7TomRXlWkrslAgAAAAAAAAAA1aQACC1o2bKiPjjcs7I+MX5oipyfZLNUAAAAAAAAAACgWhQAoYVd+MUDNgwOd5+b5OiUxcUSAQAAAAAAAACA6lAAhDYwONJ9w+Bo1+kdRd6R5EcSAQAAAAAAAACA9qcACG1k5XD36rn73fGapDgnKR6UCAAAAAAAAAAAtC8FQGgzK1Yct2VwpGt5x6z6QWWZC5JMSAUAAAAAAAAAANqPAiC0qZWf77lv1Wj30o7k+CRXSgQAAAAAAAAAANqLAiC0uZUj3d8ZHOl+c1Gkr0xulQgAAAAAAAAAALQHBUCoiIHh7tHNc+qHp8y5SX4mEQAAAAAAAAAAaG0KgFAhQ0PzHhsc7T6/o14/rCzKgSSlVAAAAAAAAAAAoDUpAEIFrbxo3tiq4Z4lZdlxYlnkaxIBAAAAAAAAAIDWowAIFbZqdP9vrhruemOK8qwkd0oEAAAAAAAAAABahwIgVF5RDg73rCw2zjo4yXlJNsoEAAAAAAAAAACanwIgkCQZuHS/RwZHupcl9aOSYkgiAAAAAAAAAADQ3BQAgacYHJl38+BI18KiLE9J8n2JAAAAAAAAAABAc1IABJ7VwGjP5Qcf23VMivKsJPdIBAAAAAAAAAAAmosCIPCcli0r6oPDPSvrE+OHpMj5STZLBQAAAAAAAAAAmoMCILBVF37xgA2Dw93nJjk6ZXGxRAAAAAAAAAAAYOYpAALbbHCk+4bB0a7TO4q8I8mPJAIAAAAAAAAAADNHARDYbiuHu1fP3e+O1yTFOUnxoEQAAAAAAAAAAGDXUwAEdsiKFcdtGRzpWt4xq35QWeaCJBNSAQAAAAAAAACAXUcBENgpKz/fc9+q0e6lKYsTklwpEQAAAAAAAAAA2DUUAIEpMTjadc3gSPebiyJ9ZXKrRAAAAAAAAAAAYHopAAJTamC4e3TznPrhKXNukoclAgAAAAAAAAAA00MBEJhyQ0PzHhsc7T6/o14/tCzKgSSlVAAAAAAAAAAAYGopAALTZuVF88ZWDfcsqXfUX5fk6xIBAAAAAAAAAICpowAITLsLvzDv6sGRrjekKM9KcqdEAAAAAAAAAABg5ykAArtIUQ4O96wsNs46OMl5STbKBAAAAAAAAAAAdpwCILBLDVy63yODI93LkvpRSTEkEQAAAAAAAAAA2DEKgMCMGByZd/PgSNfCoixPSYprJQIAAAAAAAAAANtHARCYUQOjPZeve2j/Y4sUZye5RyIAAAAAAAAAALBtFACBGVerFeMDI10r6hPjh5RlLkgyLhUAAAAAAAAAAHh+CoBA07jwiwdsWDXavTTJkSmLiyUCAAAAAAAAAADPTQEQaDqDI903DI52nd5R5B0pc51EAAAAAAAAAADgmRQAgaa1crh79dz973h1UpyT5CGJAAAAAAAAAADAExQAgaa2YsVxWwZHupZPlMVBZZkLkkxIBQAAAAAAAAAAFACBFvHp0a57V412L01ZnJDkSokAAAAAAAAAAFB1CoBASxkc7bpmcKT7zUWRvjK5VSIAAAAAAAAAAFSVAiDQkgaGu0f3LIsjUubcJA9LBAAAAAAAAACAqlEABFrWitGuRwdHu8/vqNcPLYtyIEkpFQAAAAAAAAAAqkIBEGh5Ky+aN7ZquGdJvaP+uiRflwgAAAAAAAAAAFWgAAi0jQu/MO/qwZGuN6Qoz0pyp0QAAAAAAAAAAGhnCoBAmynKweGelcXGWQcnOS/JJpkAAAAAAAAAANCOFACBtjRw6X6PDI50L0vqRybFkEQAAAAAAAAAAGg3CoBAWxscmXfz4EjXwqIsT0mKayUCAAAAAAAAAEC7UAAEKmFgtOfydQ/tf2yR4uwk90gEAAAAAAAAAIBWpwAIVEatVowPjHStqE+MH1KWuSDJuFQAAAAAAAAAAGhVCoBA5Vz4xQM2rBrtXjpRFkcl5SUSAQAAAAAAAACgFSkAApX16dGu6wdHek4rivQlxS0SAQAAAAAAAACglSgAApU3MNw9One/9YclxTlJHpIIAAAAAAAAAACtQAEQIMmKFcdtGRzpWj5RFgeVZS5IMiEVAAAAAAAAAACamQIgwJN8erTr3lWj3UtTFick+YpEAAAAAAAAAABoVgqAAM9icLTrmsGR7pOKIn1lcqtEAAAAAAAAAABoNgqAAM9jYLh7dM+yOCJlzk3ysEQAAAAAAAAAAGgWCoAAW7FitOvRwdHu88vO8rCyKAeSlFIBAAAAAAAAAGCmKQACbKNVn+tZt2q4Z0m9o/66JF+XCAAAAAAAAAAAM0kBEGA7XfiFeVcffGzXG1OUZyW5SyIAAAAAAAAAAMwEBUCAHbBsWVEfHO5ZWWycdVCS85JskgoAAAAAAAAAALuSAiDAThi4dL9HBke6lyX1I5NiSCIAAAAAAAAAAOwqCoAAU2BwZN7NgyNdC8t6+fakuFYiAAAAAAAAAABMNwVAgCm06qKey9Y9tP+xRYqzk9wjEQAAAAAAAAAAposCIMAUq9WK8YGRrhWb5tQPLctckGRcKgAAAAAAAAAATDUFQIBpMjQ07/5Vo91LJ8riqKS8RCIAAAAAAAAAAEwlBUCAafbp0a7rB0d6TiuK9CXFLRIBAAAAAAAAAGAqKAAC7CIDw92jc/dbf1hSnJPkIYkAAAAAAAAAALAzFAABdqEVK47bMjjStTydWw5NyhVJJqQCAAAAAAAAAMCOUAAEmAGDnzvwjsGRnrPrHcWJSb4iEQAAAAAAAAAAAGg5ZdHft37R4t6x82QBAAAAAAAAAMC2+v8BSpBw/1mxkRUAAAAldEVYdGRhdGU6Y3JlYXRlADIwMTgtMTItMDRUMTc6MzE6MzkrMDA6MDCLk6DeAAAAJXRFWHRkYXRlOm1vZGlmeQAyMDE4LTEyLTA0VDE3OjMxOjM5KzAwOjAw+s4YYgAAAABJRU5ErkJggg==;clipPath=inset(0% 77.33% 0% 0%);" vertex="1" parent="1">
          <mxGeometry x="304" y="620" width="28.33" height="30" as="geometry" />
        </mxCell>
        <mxCell id="JmuAxBopoD4e7R5yBPcm-48" style="edgeStyle=orthogonalEdgeStyle;rounded=0;orthogonalLoop=1;jettySize=auto;html=1;entryX=0.5;entryY=1;entryDx=0;entryDy=0;strokeColor=#4E4634;" edge="1" parent="1" source="JmuAxBopoD4e7R5yBPcm-33" target="JmuAxBopoD4e7R5yBPcm-4">
          <mxGeometry relative="1" as="geometry" />
        </mxCell>
        <mxCell id="JmuAxBopoD4e7R5yBPcm-33" value="" style="rounded=0;whiteSpace=wrap;html=1;fillColor=none;strokeColor=#4E4634;" vertex="1" parent="1">
          <mxGeometry x="254" y="599" width="440" height="160" as="geometry" />
        </mxCell>
        <mxCell id="JmuAxBopoD4e7R5yBPcm-34" value="&lt;b&gt;&lt;font color=&quot;#4e4634&quot;&gt;Control Node&lt;/font&gt;&lt;/b&gt;" style="text;html=1;align=center;verticalAlign=middle;whiteSpace=wrap;rounded=0;" vertex="1" parent="1">
          <mxGeometry x="254" y="570" width="110" height="30" as="geometry" />
        </mxCell>
        <mxCell id="JmuAxBopoD4e7R5yBPcm-35" value="" style="rounded=0;whiteSpace=wrap;html=1;fillColor=none;" vertex="1" parent="1">
          <mxGeometry x="744" y="645" width="60" height="60" as="geometry" />
        </mxCell>
        <mxCell id="JmuAxBopoD4e7R5yBPcm-36" value="" style="shape=image;verticalLabelPosition=bottom;labelBackgroundColor=default;verticalAlign=top;aspect=fixed;imageAspect=0;image=data:image/png,iVBORw0KGgoAAAANSUhEUgAAAGwAAABsCAMAAAC4uKf/AAAAAXNSR0IArs4c6QAAAARnQU1BAACxjwv8YQUAAAFHUExURQAAAAAAAAAAAAAAAAAAAAAAAAAAAAAAAAAAAAAAAAAAAAAAAAAAAAAAAAAAAAAAAAAAAAAAAAAAAAAAAAAAAAAAAAAAAAAAAAAAAAAAAAAAAAAAAAAAAAAAAAAAAAAAAAAAAAAAAAAAAAAAAAAAAAAAAAAAAAAAAAAAAAAAAAAAAAAAAAAAAAAAAAAAAAAAAAAAAAAAAAAAAAAAAAAAAAAAAAAAAAAAAAAAAAAAAAAAAAAAAAAAAAAAAAAAAAAAAAAAAAAAAAAAAAAAAAAAAAAAAAAAAAAAAAAAAAAAAAAAAAAAAAAAAAAAAAAAAAAAAAAAAAAAAAAAAAAAAAAAAAAAAAAAAAAAAAAAAAAAAAAAAAAAAAAAAAAAAAAAAAAAAAAAAAAAAAAAAAAAAAAAAAAAAAAAAAAAAAAAAAAAAAAAAAAAAAAAAM0KMQsAAABsdFJOUwABAgMEBQkKDhETFhcYGRobHB0gISMkJSYoKjQ2OEZHSUpSVFVWXF9lZm5vcHFyc3R1dnx/gIGChIWHiouMjo+Rkpudn6CiqauusLGys7i5u7y9v8fIydDS4OHi5OXm5+jp6uzt7vP09fb8/bxW4b0AAAAJcEhZcwAAFxEAABcRAcom8z8AAAI9SURBVGhD7dr7NxtBFAfwK0S99bEoWkUbUfFIi6Soaos+lHpWPUI80oRk//+fezb5nuCczWZmc2d76tzPTzPjzv0mzq6wg8T/qm8knkwYkoyP9CHGMbR9bRt1vTWIqPAnLBn1MVwM+4KpYatO1gQmxo0RtWQwNu6yhaIYBiBKGxgFYINSGAUgRXmMsgszhrzPIiJPGNgnDcX7wIDwKSLscli6DV9j136GCAmrhYSxkDAWEsZCwlhIGItAw9okjIOEsZAwFhLGItiwNCIkrBYSxkLCWEgYi/sb1iphHP51mLlnxPUniLgJyy7OGlJ++n0TFgQJuyuXw0CPn7D9Ycsa3sdEh4+wtUbngm78gakG/bCzzuLdQw/PsaBOP+xrKYvoGxbUlY+0lM0hi+axoCyvf1jn/52laB0jZecdpazOCywoW/dxwFq6Gh9ov0o7Ss36R8d7rywr8gsTdZfNRDGMdeSuMNAx5nxDVjAxbNnJotASpkZ9CBXDiF5smv4XjZ8DiHL0RuI4Va5gehf7XOxOo6iCqUgvYlS9Q2cXSZTwWUZnF59RwmcNnV18Rwmb0AE6u/hdhyIu7X/Q2UWmFUVcnhfQ2UXhGYq4TKKxqxiKuHjcZra9gyImluePmKsnKOMxi7YVzKCMRbfHtejIdKGQweOqv5HuPUJpjZr6Xx+jpYej0f4mbPAvvHjocYfdVjhcqPXvyQhaKXmJTX69RR8lb7DJr6flh/LVpXuwybee8QQ+cKtIxLqxRdwbRH8Bl84rM2tChzkAAAAASUVORK5CYII=;" vertex="1" parent="1">
          <mxGeometry x="760" y="663" width="28" height="28" as="geometry" />
        </mxCell>
        <mxCell id="JmuAxBopoD4e7R5yBPcm-37" value="&lt;b&gt;&lt;font color=&quot;#4e4634&quot;&gt;Managed&lt;/font&gt;&lt;/b&gt;&lt;div&gt;&lt;b&gt;&lt;font color=&quot;#4e4634&quot;&gt;Node&lt;/font&gt;&lt;/b&gt;&lt;/div&gt;" style="text;html=1;align=left;verticalAlign=middle;whiteSpace=wrap;rounded=0;" vertex="1" parent="1">
          <mxGeometry x="744" y="612" width="70" height="30" as="geometry" />
        </mxCell>
        <mxCell id="JmuAxBopoD4e7R5yBPcm-43" value="&lt;font color=&quot;#4e4634&quot;&gt;manage&lt;/font&gt;" style="text;html=1;align=center;verticalAlign=middle;whiteSpace=wrap;rounded=0;" vertex="1" parent="1">
          <mxGeometry x="174" y="651" width="60" height="30" as="geometry" />
        </mxCell>
        <mxCell id="JmuAxBopoD4e7R5yBPcm-44" style="edgeStyle=orthogonalEdgeStyle;rounded=0;orthogonalLoop=1;jettySize=auto;html=1;entryX=-0.022;entryY=0.567;entryDx=0;entryDy=0;entryPerimeter=0;strokeColor=#4E4634;" edge="1" parent="1" source="JmuAxBopoD4e7R5yBPcm-33" target="JmuAxBopoD4e7R5yBPcm-35">
          <mxGeometry relative="1" as="geometry" />
        </mxCell>
        <mxCell id="JmuAxBopoD4e7R5yBPcm-46" style="edgeStyle=orthogonalEdgeStyle;rounded=0;orthogonalLoop=1;jettySize=auto;html=1;entryX=0.01;entryY=0.616;entryDx=0;entryDy=0;entryPerimeter=0;strokeColor=#4E4634;" edge="1" parent="1" source="JmuAxBopoD4e7R5yBPcm-3" target="JmuAxBopoD4e7R5yBPcm-4">
          <mxGeometry relative="1" as="geometry" />
        </mxCell>
        <mxCell id="JmuAxBopoD4e7R5yBPcm-49" value="&lt;font color=&quot;#4e4634&quot;&gt;push or pull&lt;/font&gt;" style="text;html=1;align=center;verticalAlign=middle;whiteSpace=wrap;rounded=0;" vertex="1" parent="1">
          <mxGeometry x="383.46000000000004" y="474" width="64.96" height="20" as="geometry" />
        </mxCell>
        <mxCell id="JmuAxBopoD4e7R5yBPcm-51" value="&lt;font color=&quot;#4e4634&quot;&gt;push or pull&lt;/font&gt;" style="text;html=1;align=center;verticalAlign=middle;whiteSpace=wrap;rounded=0;rotation=-90;" vertex="1" parent="1">
          <mxGeometry x="428.00000000000006" y="550" width="64.96" height="20" as="geometry" />
        </mxCell>
      </root>
    </mxGraphModel>
  </diagram>
</mxfile>
